<svg width="512" height="512" viewBox="0 0 512 512" fill="none" xmlns="http://www.w3.org/2000/svg">
<path d="M23.727 0.746155C179.129 0.746155 334.524 0.746155 487.868 0.746155C503.493 0.746155 511.298 8.55836 511.298 24.1754C511.298 193.562 511.298 362.956 511.298 488.317C511.298 503.941 503.493 511.746 487.868 511.746C339.539 511.746 191.202 511.746 23.727 511.746C8.10987 511.746 0.297668 503.941 0.297668 488.317C0.297668 330.726 0.297668 173.134 0.297668 24.1754C0.297668 8.55836 8.10987 0.746155 23.727 0.746155Z" fill="#F0E9E5"/>
<path d="M23.727 0.746155C163.885 0.746155 304.044 0.746155 487.868 0.746155H23.727ZM23.727 0.746155C171.061 0.746155 318.401 0.746155 487.868 0.746155H23.727ZM487.868 0.746155C503.493 0.746155 511.298 8.55836 511.298 24.1754L487.868 0.746155ZM487.868 0.746155C503.493 0.746155 511.298 8.55836 511.298 24.1754L487.868 0.746155ZM511.298 24.1754C511.298 155.731 511.298 287.294 511.298 488.317V24.1754ZM511.298 24.1754C511.298 206.602 511.298 389.035 511.298 488.317V24.1754ZM511.298 488.317C511.298 503.941 503.493 511.746 487.868 511.746L511.298 488.317ZM511.298 488.317C511.298 503.941 503.493 511.746 487.868 511.746L511.298 488.317ZM487.868 511.746C373.76 511.746 259.645 511.746 23.727 511.746H487.868ZM487.868 511.746C313.276 511.746 138.677 511.746 23.727 511.746H487.868ZM23.727 511.746C8.10987 511.746 0.297668 503.941 0.297668 488.317L23.727 511.746ZM23.727 511.746C8.10987 511.746 0.297668 503.941 0.297668 488.317L23.727 511.746ZM0.297668 488.317C0.297668 363.248 0.297668 238.18 0.297668 24.1754V488.317ZM0.297668 488.317C0.297668 351.849 0.297668 215.373 0.297668 24.1754V488.317ZM0.297668 24.1754C0.297668 8.55836 8.10987 0.746155 23.727 0.746155L0.297668 24.1754ZM0.297668 24.1754C0.297668 8.55836 8.10987 0.746155 23.727 0.746155L0.297668 24.1754Z" fill="#F0E9E5"/>
</svg>
