<svg width="699" height="699" viewBox="0 0 699 699" fill="none" xmlns="http://www.w3.org/2000/svg">
<path d="M32.2977 0.746155C244.548 0.746155 456.788 0.746155 666.228 0.746155C687.568 0.746155 698.228 11.4162 698.228 32.7462C698.228 264.096 698.228 495.456 698.228 666.676C698.228 688.016 687.568 698.676 666.228 698.676C463.638 698.676 261.038 698.676 32.2977 698.676C10.9677 698.676 0.297668 688.016 0.297668 666.676C0.297668 451.436 0.297668 236.196 0.297668 32.7462C0.297668 11.4162 10.9677 0.746155 32.2977 0.746155Z" fill="url(#paint0_linear_12_4)"/>
<path d="M32.2977 0.746155C223.728 0.746155 415.158 0.746155 666.228 0.746155ZM32.2977 0.746155C233.528 0.746155 434.768 0.746155 666.228 0.746155ZM666.228 0.746155C687.568 0.746155 698.228 11.4162 698.228 32.7462ZM666.228 0.746155C687.568 0.746155 698.228 11.4162 698.228 32.7462ZM698.228 32.7462C698.228 212.426 698.228 392.116 698.228 666.676ZM698.228 32.7462C698.228 281.906 698.228 531.076 698.228 666.676ZM698.228 666.676C698.228 688.016 687.568 698.676 666.228 698.676ZM698.228 666.676C698.228 688.016 687.568 698.676 666.228 698.676ZM666.228 698.676C510.378 698.676 354.518 698.676 32.2977 698.676ZM666.228 698.676C427.768 698.676 189.298 698.676 32.2977 698.676ZM32.2977 698.676C10.9677 698.676 0.297668 688.016 0.297668 666.676ZM32.2977 698.676C10.9677 698.676 0.297668 688.016 0.297668 666.676ZM0.297668 666.676C0.297668 495.856 0.297668 325.036 0.297668 32.7462ZM0.297668 666.676C0.297668 480.286 0.297668 293.886 0.297668 32.7462ZM0.297668 32.7462C0.297668 11.4162 10.9677 0.746155 32.2977 0.746155ZM0.297668 32.7462C0.297668 11.4162 10.9677 0.746155 32.2977 0.746155Z" fill="url(#paint1_linear_12_4)"/>
<defs>
<linearGradient id="paint0_linear_12_4" x1="349.263" y1="0.746155" x2="349.263" y2="698.676" gradientUnits="userSpaceOnUse">
<stop stop-color="white"/>
<stop offset="1" stop-color="#ABBADF"/>
</linearGradient>
<linearGradient id="paint1_linear_12_4" x1="349.263" y1="0.746155" x2="349.263" y2="698.676" gradientUnits="userSpaceOnUse">
<stop stop-color="white"/>
<stop offset="1" stop-color="#ABBADF"/>
</linearGradient>
</defs>
</svg>
