<svg width="434" height="584" viewBox="0 0 434 584" fill="none" xmlns="http://www.w3.org/2000/svg">
<path fill-rule="evenodd" clip-rule="evenodd" d="M167.414 571.657C174.974 570.437 195.854 570.947 212.794 564.357C229.734 557.767 257.294 547.367 269.054 532.107C280.824 516.857 277.124 495.957 283.404 472.827C289.684 449.687 300.374 416.817 306.724 393.297C313.074 369.787 316.764 356.677 321.494 331.747C326.224 306.817 332.274 266.077 335.084 243.707C337.894 221.337 338.214 212.567 338.334 197.497C338.454 182.437 337.734 165.187 335.784 153.317C333.834 141.437 327.814 127.567 326.654 126.227C325.494 124.877 329.064 138.507 328.814 145.267C328.564 152.017 330.374 156.917 325.164 166.777C319.944 176.637 309.874 193.067 297.534 204.427C285.184 215.777 271.064 223.387 251.074 234.897C231.094 246.417 196.714 265.877 177.614 273.517C158.514 281.157 142.264 257.537 136.494 280.757C130.714 303.977 137.934 365.077 142.954 412.827C147.974 460.577 162.674 541.517 166.614 567.257" fill="#111214"/>
<path fill-rule="evenodd" clip-rule="evenodd" d="M167.414 571.657C174.974 570.437 195.854 570.947 212.794 564.357C229.734 557.767 257.294 547.367 269.054 532.107C280.824 516.857 277.124 495.957 283.404 472.827C289.684 449.687 300.374 416.817 306.724 393.297C313.074 369.787 316.764 356.677 321.494 331.747C326.224 306.817 332.274 266.077 335.084 243.707C337.894 221.337 338.214 212.567 338.334 197.497C338.454 182.437 337.734 165.187 335.784 153.317C333.834 141.437 327.814 127.567 326.654 126.227C325.494 124.877 329.064 138.507 328.814 145.267C328.564 152.017 330.374 156.917 325.164 166.777C319.944 176.637 309.874 193.067 297.534 204.427C285.184 215.777 271.064 223.387 251.074 234.897C231.094 246.417 196.714 265.877 177.614 273.517C158.514 281.157 142.264 257.537 136.494 280.757C130.714 303.977 137.934 365.077 142.954 412.827C147.974 460.577 162.674 541.517 166.614 567.257M167.414 571.657C174.974 570.437 195.854 570.947 212.794 564.357C229.734 557.767 257.294 547.367 269.054 532.107C280.824 516.857 277.124 495.957 283.404 472.827C289.684 449.687 300.374 416.817 306.724 393.297C313.074 369.787 316.764 356.677 321.494 331.747C326.224 306.817 332.274 266.077 335.084 243.707C337.894 221.337 338.214 212.567 338.334 197.497C338.454 182.437 337.734 165.187 335.784 153.317C333.834 141.437 327.814 127.567 326.654 126.227C325.494 124.877 329.064 138.507 328.814 145.267C328.564 152.017 330.374 156.917 325.164 166.777C319.944 176.637 309.874 193.067 297.534 204.427C285.184 215.777 271.064 223.387 251.074 234.897C231.094 246.417 196.714 265.877 177.614 273.517C158.514 281.157 142.264 257.537 136.494 280.757C130.714 303.977 137.934 365.077 142.954 412.827C147.974 460.577 162.674 541.517 166.614 567.257" fill="#111214"/>
<path fill-rule="evenodd" clip-rule="evenodd" d="M132.494 307.662C147.664 297.752 199.744 263.522 223.514 248.202C247.284 232.882 262.044 224.602 275.104 215.732C288.154 206.862 295.274 200.882 301.834 194.982C308.384 189.082 310.264 186.882 314.424 180.342C318.584 173.792 324.574 163.572 326.774 155.722C328.974 147.872 328.424 139.472 327.604 133.222C326.794 126.972 321.644 117.902 321.874 118.212C322.114 118.532 328.294 126.272 329.024 135.092C329.754 143.912 331.344 159.322 326.274 171.132C321.204 182.942 311.314 194.262 298.614 205.952C285.924 217.652 274.234 223.582 250.094 241.312C225.954 259.052 169.864 284.792 153.764 312.362C137.674 339.932 151.254 363.882 153.524 406.712C155.804 449.552 167.204 554.172 167.404 569.372C167.604 584.572 160.534 541.522 154.714 497.902C148.894 454.292 136.194 339.372 132.494 307.662Z" fill="#50669D"/>
<path fill-rule="evenodd" clip-rule="evenodd" d="M132.494 307.662C147.664 297.752 199.744 263.522 223.514 248.202C247.284 232.882 262.044 224.602 275.104 215.732C288.154 206.862 295.274 200.882 301.834 194.982C308.384 189.082 310.264 186.882 314.424 180.342C318.584 173.792 324.574 163.572 326.774 155.722C328.974 147.872 328.424 139.472 327.604 133.222C326.794 126.972 321.644 117.902 321.874 118.212C322.114 118.532 328.294 126.272 329.024 135.092C329.754 143.912 331.344 159.322 326.274 171.132C321.204 182.942 311.314 194.262 298.614 205.952C285.924 217.652 274.234 223.582 250.094 241.312C225.954 259.052 169.864 284.792 153.764 312.362C137.674 339.932 151.254 363.882 153.524 406.712C155.804 449.552 167.204 554.172 167.404 569.372C167.604 584.572 160.534 541.522 154.714 497.902C148.894 454.292 136.194 339.372 132.494 307.662ZM132.494 307.662C147.664 297.752 199.744 263.522 223.514 248.202C247.284 232.882 262.044 224.602 275.104 215.732C288.154 206.862 295.274 200.882 301.834 194.982C308.384 189.082 310.264 186.882 314.424 180.342C318.584 173.792 324.574 163.572 326.774 155.722C328.974 147.872 328.424 139.472 327.604 133.222C326.794 126.972 321.644 117.902 321.874 118.212C322.114 118.532 328.294 126.272 329.024 135.092C329.754 143.912 331.344 159.322 326.274 171.132C321.204 182.942 311.314 194.262 298.614 205.952C285.924 217.652 274.234 223.582 250.094 241.312C225.954 259.052 169.864 284.792 153.764 312.362C137.674 339.932 151.254 363.882 153.524 406.712C155.804 449.552 167.204 554.172 167.404 569.372C167.604 584.572 160.534 541.522 154.714 497.902C148.894 454.292 136.194 339.372 132.494 307.662Z" fill="#50669D"/>
<path fill-rule="evenodd" clip-rule="evenodd" d="M281.479 554.79C264.339 552.56 204.899 547.8 178.649 541.39C152.399 534.97 138.849 527.35 123.989 516.31C109.119 505.28 99.1092 495.3 89.4692 475.19C79.8292 455.08 72.4992 419.18 66.1492 395.67C59.7992 372.15 56.1092 359.05 51.3792 334.11C46.6492 309.18 40.5892 268.45 37.7792 246.08C34.9792 223.7 34.6492 214.94 34.5392 199.87C34.4192 184.8 35.4492 167.56 37.0892 155.68C38.7192 143.8 43.3692 129.96 44.3292 128.59C45.2892 127.22 42.2792 140.72 42.8492 147.48C43.4092 154.24 42.6392 159.04 47.7092 169.14C52.7792 179.25 60.7792 197.04 73.2692 208.11C85.7592 219.18 100.969 227.09 122.659 235.54C144.339 243.99 172.049 253.17 203.369 258.8C234.679 264.44 284.319 268.02 310.549 269.36C336.779 270.7 350.279 263.36 360.749 266.85C371.229 270.33 367.839 281.33 373.399 290.27C378.959 299.21 390.279 313.36 394.099 320.48C397.919 327.6 397.989 322.47 396.319 332.99C394.659 343.51 391.709 356.66 384.099 383.61C376.489 410.57 357.479 473.02 350.659 494.74C343.839 516.45 346.569 509 343.159 513.91C339.739 518.82 336.229 520.14 330.159 524.19C324.089 528.25 314.829 533.16 306.719 538.26C298.599 543.36 285.689 552.04 281.479 554.79Z" fill="#111214"/>
<path fill-rule="evenodd" clip-rule="evenodd" d="M278.251 554.012C261.111 551.512 201.931 545.952 175.421 539.012C148.901 532.062 133.661 523.332 119.161 512.342C104.661 501.342 90.3114 473.582 88.4314 473.022C86.5614 472.472 96.8814 497.172 107.911 509.002C118.931 520.832 137.431 535.882 154.581 544.012C171.741 552.132 184.361 553.172 210.841 557.762C237.321 562.352 293.101 568.312 313.471 571.532C333.831 574.762 327.261 579.872 333.011 577.082C338.761 574.302 333.441 604.882 347.951 554.842C362.461 504.812 406.921 330.082 420.051 276.882C433.171 223.672 438.241 239.862 426.711 235.622C415.181 231.382 367.051 247.912 350.871 251.462C334.681 255.002 341.561 255.762 329.611 256.872C317.671 257.982 296.551 258.682 279.191 258.122C261.821 257.572 245.641 256.802 225.431 253.542C205.221 250.272 175.561 243.332 157.921 238.542C140.271 233.742 129.791 228.742 119.581 224.782C109.371 220.832 105.201 220.132 96.6514 214.782C88.1114 209.432 74.9114 198.462 68.3214 192.692C61.7214 186.932 60.9514 186.512 57.0614 180.192C53.1714 173.872 47.1314 162.762 44.9814 154.772C42.8314 146.782 43.3314 138.522 44.1514 132.272C44.9614 126.022 50.1114 116.952 49.8814 117.262C49.6414 117.582 43.7214 125.452 42.7314 134.142C41.7414 142.832 39.3814 157.212 43.9314 169.402C48.4814 181.602 57.6014 196.152 70.0414 207.332C82.4814 218.512 97.0014 227.792 118.561 236.492C140.121 245.182 167.941 253.892 199.391 259.512C230.851 265.122 281.471 268.112 307.321 270.192C333.171 272.272 343.841 268.842 354.511 271.982C365.191 275.122 365.311 281.062 371.371 289.012C377.431 296.962 387.251 312.502 390.871 319.702C394.491 326.902 394.761 321.692 393.091 332.212C391.431 342.732 388.481 355.882 380.871 382.832C373.261 409.792 354.251 472.242 347.431 493.962C340.611 515.672 343.341 508.222 339.931 513.132C336.511 518.042 333.001 519.362 326.931 523.412C320.861 527.472 311.601 532.382 303.491 537.482C295.371 542.582 282.461 551.262 278.251 554.012Z" fill="#50669D"/>
<path fill-rule="evenodd" clip-rule="evenodd" d="M278.251 554.012C261.111 551.512 201.931 545.952 175.421 539.012C148.901 532.062 133.661 523.332 119.161 512.342C104.661 501.342 90.3114 473.582 88.4314 473.022C86.5614 472.472 96.8814 497.172 107.911 509.002C118.931 520.832 137.431 535.882 154.581 544.012C171.741 552.132 184.361 553.172 210.841 557.762C237.321 562.352 293.101 568.312 313.471 571.532C333.831 574.762 327.261 579.872 333.011 577.082C338.761 574.302 333.441 604.882 347.951 554.842C362.461 504.812 406.921 330.082 420.051 276.882C433.171 223.672 438.241 239.862 426.711 235.622C415.181 231.382 367.051 247.912 350.871 251.462C334.681 255.002 341.561 255.762 329.611 256.872C317.671 257.982 296.551 258.682 279.191 258.122C261.821 257.572 245.641 256.802 225.431 253.542C205.221 250.272 175.561 243.332 157.921 238.542C140.271 233.742 129.791 228.742 119.581 224.782C109.371 220.832 105.201 220.132 96.6514 214.782C88.1114 209.432 74.9114 198.462 68.3214 192.692C61.7214 186.932 60.9514 186.512 57.0614 180.192C53.1714 173.872 47.1314 162.762 44.9814 154.772C42.8314 146.782 43.3314 138.522 44.1514 132.272C44.9614 126.022 50.1114 116.952 49.8814 117.262C49.6414 117.582 43.7214 125.452 42.7314 134.142C41.7414 142.832 39.3814 157.212 43.9314 169.402C48.4814 181.602 57.6014 196.152 70.0414 207.332C82.4814 218.512 97.0014 227.792 118.561 236.492C140.121 245.182 167.941 253.892 199.391 259.512C230.851 265.122 281.471 268.112 307.321 270.192C333.171 272.272 343.841 268.842 354.511 271.982C365.191 275.122 365.311 281.062 371.371 289.012C377.431 296.962 387.251 312.502 390.871 319.702C394.491 326.902 394.761 321.692 393.091 332.212C391.431 342.732 388.481 355.882 380.871 382.832C373.261 409.792 354.251 472.242 347.431 493.962C340.611 515.672 343.341 508.222 339.931 513.132C336.511 518.042 333.001 519.362 326.931 523.412C320.861 527.472 311.601 532.382 303.491 537.482C295.371 542.582 282.461 551.262 278.251 554.012ZM278.251 554.012C261.111 551.512 201.931 545.952 175.421 539.012C148.901 532.062 133.661 523.332 119.161 512.342C104.661 501.342 90.3114 473.582 88.4314 473.022C86.5614 472.472 96.8814 497.172 107.911 509.002C118.931 520.832 137.431 535.882 154.581 544.012C171.741 552.132 184.361 553.172 210.841 557.762C237.321 562.352 293.101 568.312 313.471 571.532C333.831 574.762 327.261 579.872 333.011 577.082C338.761 574.302 333.441 604.882 347.951 554.842C362.461 504.812 406.921 330.082 420.051 276.882C433.171 223.672 438.241 239.862 426.711 235.622C415.181 231.382 367.051 247.912 350.871 251.462C334.681 255.002 341.561 255.762 329.611 256.872C317.671 257.982 296.551 258.682 279.191 258.122C261.821 257.572 245.641 256.802 225.431 253.542C205.221 250.272 175.561 243.332 157.921 238.542C140.271 233.742 129.791 228.742 119.581 224.782C109.371 220.832 105.201 220.132 96.6514 214.782C88.1114 209.432 74.9114 198.462 68.3214 192.692C61.7214 186.932 60.9514 186.512 57.0614 180.192C53.1714 173.872 47.1314 162.762 44.9814 154.772C42.8314 146.782 43.3314 138.522 44.1514 132.272C44.9614 126.022 50.1114 116.952 49.8814 117.262C49.6414 117.582 43.7214 125.452 42.7314 134.142C41.7414 142.832 39.3814 157.212 43.9314 169.402C48.4814 181.602 57.6014 196.152 70.0414 207.332C82.4814 218.512 97.0014 227.792 118.561 236.492C140.121 245.182 167.941 253.892 199.391 259.512C230.851 265.122 281.471 268.112 307.321 270.192C333.171 272.272 343.841 268.842 354.511 271.982C365.191 275.122 365.311 281.062 371.371 289.012C377.431 296.962 387.251 312.502 390.871 319.702C394.491 326.902 394.761 321.692 393.091 332.212C391.431 342.732 388.481 355.882 380.871 382.832C373.261 409.792 354.251 472.242 347.431 493.962C340.611 515.672 343.341 508.222 339.931 513.132C336.511 518.042 333.001 519.362 326.931 523.412C320.861 527.472 311.601 532.382 303.491 537.482C295.371 542.582 282.461 551.262 278.251 554.012Z" fill="#50669D"/>
<path d="M189.969 156.641C191.169 159.761 192.359 162.891 195.329 170.641C198.329 177.641 198.329 177.641 195.329 184.641C193.999 187.821 192.659 191.001 189.969 197.421C186.969 204.421 186.969 204.421 183.969 197.421C182.589 194.481 181.209 191.541 177.969 184.641C174.969 177.641 174.969 177.641 177.969 170.641C179.499 167.071 181.029 163.511 183.969 156.641C186.969 149.641 186.969 149.641 189.969 156.641Z" fill="#7D8FBB"/>
<path d="M189.969 156.641C191.509 160.651 193.039 164.671 195.329 170.641ZM189.969 156.641C191.639 161.011 193.319 165.381 195.329 170.641ZM195.329 170.641C198.329 177.641 198.329 177.641 195.329 184.641ZM195.329 170.641C198.329 177.641 198.329 177.641 195.329 184.641ZM195.329 184.641C194.199 187.341 193.059 190.051 189.969 197.421ZM195.329 184.641C193.339 189.381 191.349 194.131 189.969 197.421ZM189.969 197.421C186.969 204.421 186.969 204.421 183.969 197.421ZM189.969 197.421C186.969 204.421 186.969 204.421 183.969 197.421ZM183.969 197.421C181.829 192.861 179.689 188.301 177.969 184.641ZM183.969 197.421C181.749 192.681 179.519 187.951 177.969 184.641ZM177.969 184.641C174.969 177.641 174.969 177.641 177.969 170.641ZM177.969 184.641C174.969 177.641 174.969 177.641 177.969 170.641ZM177.969 170.641C179.519 167.031 181.059 163.421 183.969 156.641ZM177.969 170.641C179.259 167.641 180.539 164.631 183.969 156.641ZM183.969 156.641C186.969 149.641 186.969 149.641 189.969 156.641ZM183.969 156.641C186.969 149.641 186.969 149.641 189.969 156.641Z" fill="#7D8FBB"/>
<path d="M151.824 129.963C151.824 131.233 151.714 132.533 151.494 133.793C151.274 135.053 150.934 136.303 150.494 137.503C150.064 138.703 149.514 139.883 148.874 140.993C148.234 142.103 147.484 143.163 146.664 144.143C145.844 145.123 144.924 146.043 143.944 146.863C142.964 147.683 141.904 148.433 140.794 149.073C139.684 149.713 138.504 150.263 137.304 150.693C136.104 151.133 134.854 151.473 133.594 151.693C132.334 151.913 131.034 152.023 129.764 152.023C128.484 152.023 127.184 151.913 125.924 151.693C124.674 151.473 123.414 151.133 122.214 150.693C121.014 150.263 119.834 149.713 118.724 149.073C117.624 148.433 116.554 147.683 115.574 146.863C114.594 146.043 113.674 145.123 112.854 144.143C112.034 143.163 111.284 142.103 110.654 140.993C110.014 139.883 109.464 138.703 109.024 137.503C108.584 136.303 108.254 135.053 108.034 133.793C107.804 132.533 107.694 131.233 107.694 129.963C107.694 128.683 107.804 127.383 108.034 126.123C108.254 124.873 108.584 123.613 109.024 122.413C109.464 121.213 110.014 120.033 110.654 118.923C111.284 117.823 112.034 116.753 112.854 115.773C113.674 114.793 114.594 113.873 115.574 113.053C116.554 112.233 117.624 111.483 118.724 110.853C119.834 110.213 121.014 109.663 122.214 109.223C123.414 108.783 124.674 108.453 125.924 108.233C127.184 108.003 128.484 107.893 129.764 107.893C131.034 107.893 132.334 108.003 133.594 108.233C134.854 108.453 136.104 108.783 137.304 109.223C138.504 109.663 139.684 110.213 140.794 110.853C141.904 111.483 142.964 112.233 143.944 113.053C144.924 113.873 145.844 114.793 146.664 115.773C147.484 116.753 148.234 117.823 148.874 118.923C149.514 120.033 150.064 121.213 150.494 122.413C150.934 123.613 151.274 124.873 151.494 126.123C151.714 127.383 151.774 129.323 151.824 129.963C151.884 130.603 151.884 129.323 151.824 129.963Z" fill="#506392"/>
<path d="M151.824 129.963C151.824 131.233 151.714 132.533 151.494 133.793C151.274 135.053 150.934 136.303 150.494 137.503C150.064 138.703 149.514 139.883 148.874 140.993C148.234 142.103 147.484 143.163 146.664 144.143C145.844 145.123 144.924 146.043 143.944 146.863C142.964 147.683 141.904 148.433 140.794 149.073C139.684 149.713 138.504 150.263 137.304 150.693C136.104 151.133 134.854 151.473 133.594 151.693C132.334 151.913 131.034 152.023 129.764 152.023C128.484 152.023 127.184 151.913 125.924 151.693C124.674 151.473 123.414 151.133 122.214 150.693C121.014 150.263 119.834 149.713 118.724 149.073C117.624 148.433 116.554 147.683 115.574 146.863C114.594 146.043 113.674 145.123 112.854 144.143C112.034 143.163 111.284 142.103 110.654 140.993C110.014 139.883 109.464 138.703 109.024 137.503C108.584 136.303 108.254 135.053 108.034 133.793C107.804 132.533 107.694 131.233 107.694 129.963C107.694 128.683 107.804 127.383 108.034 126.123C108.254 124.873 108.584 123.613 109.024 122.413C109.464 121.213 110.014 120.033 110.654 118.923C111.284 117.823 112.034 116.753 112.854 115.773C113.674 114.793 114.594 113.873 115.574 113.053C116.554 112.233 117.624 111.483 118.724 110.853C119.834 110.213 121.014 109.663 122.214 109.223C123.414 108.783 124.674 108.453 125.924 108.233C127.184 108.003 128.484 107.893 129.764 107.893C131.034 107.893 132.334 108.003 133.594 108.233C134.854 108.453 136.104 108.783 137.304 109.223C138.504 109.663 139.684 110.213 140.794 110.853C141.904 111.483 142.964 112.233 143.944 113.053C144.924 113.873 145.844 114.793 146.664 115.773C147.484 116.753 148.234 117.823 148.874 118.923C149.514 120.033 150.064 121.213 150.494 122.413C150.934 123.613 151.274 124.873 151.494 126.123C151.714 127.383 151.774 129.323 151.824 129.963C151.884 130.603 151.884 129.323 151.824 129.963Z" fill="#506392"/>
<path d="M270.125 129.35C270.125 130.62 270.015 131.92 269.795 133.18C269.575 134.44 269.235 135.69 268.795 136.89C268.365 138.09 267.815 139.27 267.175 140.38C266.535 141.49 265.785 142.55 264.965 143.53C264.145 144.51 263.225 145.43 262.245 146.25C261.265 147.07 260.205 147.82 259.095 148.46C257.985 149.1 256.805 149.65 255.605 150.08C254.405 150.52 253.155 150.86 251.895 151.08C250.635 151.3 249.335 151.41 248.065 151.41C246.785 151.41 245.485 151.3 244.225 151.08C242.975 150.86 241.715 150.52 240.515 150.08C239.315 149.65 238.135 149.1 237.025 148.46C235.925 147.82 234.855 147.07 233.875 146.25C232.895 145.43 231.975 144.51 231.155 143.53C230.335 142.55 229.585 141.49 228.955 140.38C228.315 139.27 227.765 138.09 227.325 136.89C226.885 135.69 226.555 134.44 226.335 133.18C226.105 131.92 225.995 130.62 225.995 129.35C225.995 128.07 226.105 126.77 226.335 125.51C226.555 124.26 226.885 123 227.325 121.8C227.765 120.6 228.315 119.42 228.955 118.31C229.585 117.21 230.335 116.14 231.155 115.16C231.975 114.18 232.895 113.26 233.875 112.44C234.855 111.62 235.925 110.87 237.025 110.24C238.135 109.6 239.315 109.05 240.515 108.61C241.715 108.17 242.975 107.84 244.225 107.62C245.485 107.39 246.785 107.28 248.065 107.28C249.335 107.28 250.635 107.39 251.895 107.62C253.155 107.84 254.405 108.17 255.605 108.61C256.805 109.05 257.985 109.6 259.095 110.24C260.205 110.87 261.265 111.62 262.245 112.44C263.225 113.26 264.145 114.18 264.965 115.16C265.785 116.14 266.535 117.21 267.175 118.31C267.815 119.42 268.365 120.6 268.795 121.8C269.235 123 269.575 124.26 269.795 125.51C270.015 126.77 270.075 128.71 270.125 129.35C270.185 129.99 270.185 128.71 270.125 129.35Z" fill="#506392"/>
<path d="M270.125 129.35C270.125 130.62 270.015 131.92 269.795 133.18C269.575 134.44 269.235 135.69 268.795 136.89C268.365 138.09 267.815 139.27 267.175 140.38C266.535 141.49 265.785 142.55 264.965 143.53C264.145 144.51 263.225 145.43 262.245 146.25C261.265 147.07 260.205 147.82 259.095 148.46C257.985 149.1 256.805 149.65 255.605 150.08C254.405 150.52 253.155 150.86 251.895 151.08C250.635 151.3 249.335 151.41 248.065 151.41C246.785 151.41 245.485 151.3 244.225 151.08C242.975 150.86 241.715 150.52 240.515 150.08C239.315 149.65 238.135 149.1 237.025 148.46C235.925 147.82 234.855 147.07 233.875 146.25C232.895 145.43 231.975 144.51 231.155 143.53C230.335 142.55 229.585 141.49 228.955 140.38C228.315 139.27 227.765 138.09 227.325 136.89C226.885 135.69 226.555 134.44 226.335 133.18C226.105 131.92 225.995 130.62 225.995 129.35C225.995 128.07 226.105 126.77 226.335 125.51C226.555 124.26 226.885 123 227.325 121.8C227.765 120.6 228.315 119.42 228.955 118.31C229.585 117.21 230.335 116.14 231.155 115.16C231.975 114.18 232.895 113.26 233.875 112.44C234.855 111.62 235.925 110.87 237.025 110.24C238.135 109.6 239.315 109.05 240.515 108.61C241.715 108.17 242.975 107.84 244.225 107.62C245.485 107.39 246.785 107.28 248.065 107.28C249.335 107.28 250.635 107.39 251.895 107.62C253.155 107.84 254.405 108.17 255.605 108.61C256.805 109.05 257.985 109.6 259.095 110.24C260.205 110.87 261.265 111.62 262.245 112.44C263.225 113.26 264.145 114.18 264.965 115.16C265.785 116.14 266.535 117.21 267.175 118.31C267.815 119.42 268.365 120.6 268.795 121.8C269.235 123 269.575 124.26 269.795 125.51C270.015 126.77 270.075 128.71 270.125 129.35C270.185 129.99 270.185 128.71 270.125 129.35Z" fill="#506392"/>
<path fill-rule="evenodd" clip-rule="evenodd" d="M185.735 4.58439C178.985 4.49439 163.485 -1.34561 145.225 4.02439C126.975 9.40439 93.6347 29.9744 76.2147 36.8244C58.7847 43.6744 50.5947 45.7844 40.6547 45.1044C30.7147 44.4344 14.6547 28.9744 16.5747 32.7744C18.5047 36.5844 32.0147 62.0944 52.2047 67.9544C72.3947 73.8144 119.845 66.8444 137.725 67.9544C155.605 69.0644 153.355 71.6544 159.475 74.6244C165.605 77.5844 169.855 80.3644 174.485 85.7344C179.105 91.1144 185.355 120.384 187.235 106.864C189.115 93.3344 185.985 21.6344 185.735 4.58439Z" fill="#506392"/>
<path fill-rule="evenodd" clip-rule="evenodd" d="M185.735 4.58439C178.985 4.49439 163.485 -1.34561 145.225 4.02439C126.975 9.40439 93.6347 29.9744 76.2147 36.8244C58.7847 43.6744 50.5947 45.7844 40.6547 45.1044C30.7147 44.4344 14.6547 28.9744 16.5747 32.7744C18.5047 36.5844 32.0147 62.0944 52.2047 67.9544C72.3947 73.8144 119.845 66.8444 137.725 67.9544C155.605 69.0644 153.355 71.6544 159.475 74.6244C165.605 77.5844 169.855 80.3644 174.485 85.7344C179.105 91.1144 185.355 120.384 187.235 106.864C189.115 93.3344 185.985 21.6344 185.735 4.58439ZM185.735 4.58439C178.985 4.49439 163.485 -1.34561 145.225 4.02439C126.975 9.40439 93.6347 29.9744 76.2147 36.8244C58.7847 43.6744 50.5947 45.7844 40.6547 45.1044C30.7147 44.4344 14.6547 28.9744 16.5747 32.7744C18.5047 36.5844 32.0147 62.0944 52.2047 67.9544C72.3947 73.8144 119.845 66.8444 137.725 67.9544C155.605 69.0644 153.355 71.6544 159.475 74.6244C165.605 77.5844 169.855 80.3644 174.485 85.7344C179.105 91.1144 185.355 120.384 187.235 106.864C189.115 93.3344 185.985 21.6344 185.735 4.58439Z" fill="#506392"/>
<path fill-rule="evenodd" clip-rule="evenodd" d="M185.519 4.76188C192.269 4.67188 207.769 -1.16812 226.029 4.20188C244.279 9.58188 277.619 30.1519 295.039 37.0019C312.469 43.8519 320.659 45.9619 330.599 45.2819C340.539 44.6119 356.599 29.1519 354.679 32.9519C352.749 36.7619 339.239 62.2719 319.049 68.1319C298.859 73.9919 251.409 67.0219 233.529 68.1319C215.649 69.2419 217.899 71.8319 211.779 74.8019C205.649 77.7619 201.399 80.5419 196.769 85.9119C192.149 91.2919 185.899 120.562 184.019 107.042C182.139 93.5119 185.269 21.8119 185.519 4.76188Z" fill="#506392"/>
<path fill-rule="evenodd" clip-rule="evenodd" d="M185.519 4.76188C192.269 4.67188 207.769 -1.16812 226.029 4.20188C244.279 9.58188 277.619 30.1519 295.039 37.0019C312.469 43.8519 320.659 45.9619 330.599 45.2819C340.539 44.6119 356.599 29.1519 354.679 32.9519C352.749 36.7619 339.239 62.2719 319.049 68.1319C298.859 73.9919 251.409 67.0219 233.529 68.1319C215.649 69.2419 217.899 71.8319 211.779 74.8019C205.649 77.7619 201.399 80.5419 196.769 85.9119C192.149 91.2919 185.899 120.562 184.019 107.042C182.139 93.5119 185.269 21.8119 185.519 4.76188ZM185.519 4.76188C192.269 4.67188 207.769 -1.16812 226.029 4.20188C244.279 9.58188 277.619 30.1519 295.039 37.0019C312.469 43.8519 320.659 45.9619 330.599 45.2819C340.539 44.6119 356.599 29.1519 354.679 32.9519C352.749 36.7619 339.239 62.2719 319.049 68.1319C298.859 73.9919 251.409 67.0219 233.529 68.1319C215.649 69.2419 217.899 71.8319 211.779 74.8019C205.649 77.7619 201.399 80.5419 196.769 85.9119C192.149 91.2919 185.899 120.562 184.019 107.042C182.139 93.5119 185.269 21.8119 185.519 4.76188Z" fill="#506392"/>
<path fill-rule="evenodd" clip-rule="evenodd" d="M186.706 3.11641C179.256 3.01641 162.166 -3.42359 142.036 2.50641C121.906 8.42641 85.1458 31.1164 65.9258 38.6664C46.7158 46.2164 37.6858 48.5464 26.7258 47.8064C15.7658 47.0564 -1.95423 30.0064 0.175768 34.2064C2.29577 38.4064 17.1958 66.5264 39.4558 72.9964C61.7258 79.4564 114.046 71.7664 133.766 72.9964C153.476 74.2164 150.996 77.0764 157.756 80.3464C164.506 83.6164 169.196 86.6864 174.296 92.6064C179.396 98.5364 186.296 130.816 188.356 115.896C190.426 100.986 186.986 21.9164 186.706 3.11641Z" fill="#111214"/>
<path fill-rule="evenodd" clip-rule="evenodd" d="M186.706 3.11641C179.256 3.01641 162.166 -3.42359 142.036 2.50641C121.906 8.42641 85.1458 31.1164 65.9258 38.6664C46.7158 46.2164 37.6858 48.5464 26.7258 47.8064C15.7658 47.0564 -1.95423 30.0064 0.175768 34.2064C2.29577 38.4064 17.1958 66.5264 39.4558 72.9964C61.7258 79.4564 114.046 71.7664 133.766 72.9964C153.476 74.2164 150.996 77.0764 157.756 80.3464C164.506 83.6164 169.196 86.6864 174.296 92.6064C179.396 98.5364 186.296 130.816 188.356 115.896C190.426 100.986 186.986 21.9164 186.706 3.11641ZM186.706 3.11641C179.256 3.01641 162.166 -3.42359 142.036 2.50641C121.906 8.42641 85.1458 31.1164 65.9258 38.6664C46.7158 46.2164 37.6858 48.5464 26.7258 47.8064C15.7658 47.0564 -1.95423 30.0064 0.175768 34.2064C2.29577 38.4064 17.1958 66.5264 39.4558 72.9964C61.7258 79.4564 114.046 71.7664 133.766 72.9964C153.476 74.2164 150.996 77.0764 157.756 80.3464C164.506 83.6164 169.196 86.6864 174.296 92.6064C179.396 98.5364 186.296 130.816 188.356 115.896C190.426 100.986 186.986 21.9164 186.706 3.11641Z" fill="#111214"/>
<path fill-rule="evenodd" clip-rule="evenodd" d="M186.468 3.31215C193.918 3.21215 211.008 -3.22785 231.138 2.70215C251.268 8.62215 288.028 31.3122 307.248 38.8622C326.458 46.4122 335.488 48.7422 346.448 48.0022C357.408 47.2522 375.128 30.2022 372.998 34.4022C370.878 38.6022 355.978 66.7221 333.718 73.1921C311.448 79.6521 259.128 71.9621 239.408 73.1921C219.698 74.4121 222.178 77.2722 215.418 80.5422C208.668 83.8122 203.978 86.8821 198.878 92.8021C193.778 98.7321 186.878 131.012 184.818 116.092C182.748 101.182 186.188 22.1122 186.468 3.31215Z" fill="#111214"/>
<path fill-rule="evenodd" clip-rule="evenodd" d="M186.468 3.31215C193.918 3.21215 211.008 -3.22785 231.138 2.70215C251.268 8.62215 288.028 31.3122 307.248 38.8622C326.458 46.4122 335.488 48.7422 346.448 48.0022C357.408 47.2522 375.128 30.2022 372.998 34.4022C370.878 38.6022 355.978 66.7221 333.718 73.1921C311.448 79.6521 259.128 71.9621 239.408 73.1921C219.698 74.4121 222.178 77.2722 215.418 80.5422C208.668 83.8122 203.978 86.8821 198.878 92.8021C193.778 98.7321 186.878 131.012 184.818 116.092C182.748 101.182 186.188 22.1122 186.468 3.31215ZM186.468 3.31215C193.918 3.21215 211.008 -3.22785 231.138 2.70215C251.268 8.62215 288.028 31.3122 307.248 38.8622C326.458 46.4122 335.488 48.7422 346.448 48.0022C357.408 47.2522 375.128 30.2022 372.998 34.4022C370.878 38.6022 355.978 66.7221 333.718 73.1921C311.448 79.6521 259.128 71.9621 239.408 73.1921C219.698 74.4121 222.178 77.2722 215.418 80.5422C208.668 83.8122 203.978 86.8821 198.878 92.8021C193.778 98.7321 186.878 131.012 184.818 116.092C182.748 101.182 186.188 22.1122 186.468 3.31215Z" fill="#111214"/>
</svg>
