<svg width="348" height="496" viewBox="0 0 348 496" fill="none" xmlns="http://www.w3.org/2000/svg">
<path fill-rule="evenodd" clip-rule="evenodd" d="M156 465.694C156.448 465.634 157.504 464.435 158.677 465.332C159.859 466.23 162.169 467.904 163.055 471.072C163.942 474.247 163.986 480.628 163.986 484.361C163.986 488.102 164.183 496.044 163.073 493.51C161.972 490.968 158.319 473.206 157.361 469.141" fill="#7286FF"/>
<path fill-rule="evenodd" clip-rule="evenodd" d="M234.188 224.158C231.828 224.088 211.658 230.018 220.018 223.748C228.388 217.478 269.198 196.188 284.388 186.528C299.568 176.868 304.568 171.678 311.118 165.778C317.668 159.888 319.548 157.678 323.708 151.138C327.868 144.598 333.858 134.378 336.058 126.518C338.258 118.668 337.708 110.268 336.898 104.018C336.078 97.7677 330.928 88.6977 331.168 89.0077C331.398 89.3277 337.578 97.0677 338.308 105.888C339.048 114.708 340.628 130.118 335.558 141.928C330.498 153.738 324.798 163.048 307.898 176.758C291.008 190.458 246.478 216.258 234.188 224.158Z" fill="#7286FF"/>
<mask id="mask0_15_567" style="mask-type:alpha" maskUnits="userSpaceOnUse" x="0" y="98" width="317" height="373">
<path fill-rule="evenodd" clip-rule="evenodd" d="M215.227 470.356C200.288 468.413 148.484 464.264 125.606 458.678C102.728 453.082 90.9187 446.441 77.9676 436.819C65.0078 427.206 56.2836 418.508 47.882 400.982C39.4803 383.455 33.0919 352.167 27.5577 331.677C22.0234 311.178 18.8074 299.761 14.685 278.025C10.5626 256.297 5.28108 220.799 2.83205 201.303C0.391736 181.798 0.104122 174.163 0.00825298 161.029C-0.0963319 147.895 0.801358 132.87 2.23068 122.516C3.6513 112.162 7.70396 100.1 8.54064 98.9056C9.37732 97.7115 6.75398 109.477 7.25075 115.369C7.73882 121.261 7.06773 125.444 11.4864 134.247C15.9052 143.058 22.9995 158.318 33.763 168.21C44.5265 178.102 57.1552 186.26 76.0502 193.625C94.9539 200.989 119.732 207.726 147.15 212.389C174.569 217.052 217.702 220.424 240.562 221.592C263.423 222.76 275.189 216.363 284.314 219.405C293.447 222.438 290.493 232.025 295.339 239.816C300.184 247.608 310.05 259.94 313.379 266.146C316.709 272.351 316.77 267.88 315.314 277.048C313.867 286.217 311.296 297.678 304.664 321.166C298.032 344.663 281.464 399.09 275.52 418.02C269.576 436.941 271.955 430.448 268.983 434.728C266.002 439.007 262.943 440.157 257.653 443.687C252.363 447.226 244.292 451.505 237.224 455.95C230.147 460.394 218.896 467.959 215.227 470.356Z" fill="#C5D1EA"/>
<path fill-rule="evenodd" clip-rule="evenodd" d="M215.227 470.356C200.288 468.413 148.484 464.264 125.606 458.678C102.728 453.082 90.9187 446.441 77.9676 436.819C65.0078 427.206 56.2836 418.508 47.882 400.982C39.4803 383.455 33.0919 352.167 27.5577 331.677C22.0234 311.178 18.8074 299.761 14.685 278.025C10.5626 256.297 5.28108 220.799 2.83205 201.303C0.391736 181.798 0.104122 174.163 0.00825298 161.029C-0.0963319 147.895 0.801358 132.87 2.23068 122.516C3.6513 112.162 7.70396 100.1 8.54064 98.9056C9.37732 97.7115 6.75398 109.477 7.25075 115.369C7.73882 121.261 7.06773 125.444 11.4864 134.247C15.9052 143.058 22.9995 158.318 33.763 168.21C44.5265 178.102 57.1552 186.26 76.0502 193.625C94.9539 200.989 119.732 207.726 147.15 212.389C174.569 217.052 217.702 220.424 240.562 221.592C263.423 222.76 275.189 216.363 284.314 219.405C293.447 222.438 290.493 232.025 295.339 239.816C300.184 247.608 310.05 259.94 313.379 266.146C316.709 272.351 316.77 267.88 315.314 277.048C313.867 286.217 311.296 297.678 304.664 321.166C298.032 344.663 281.464 399.09 275.52 418.02C269.576 436.941 271.955 430.448 268.983 434.728C266.002 439.007 262.943 440.157 257.653 443.687C252.363 447.226 244.292 451.505 237.224 455.95C230.147 460.394 218.896 467.959 215.227 470.356ZM215.227 470.356C200.288 468.413 148.484 464.264 125.606 458.678C102.728 453.082 90.9187 446.441 77.9676 436.819C65.0078 427.206 56.2836 418.508 47.882 400.982C39.4803 383.455 33.0919 352.167 27.5577 331.677C22.0234 311.178 18.8074 299.761 14.685 278.025C10.5626 256.297 5.28108 220.799 2.83205 201.303C0.391736 181.798 0.104122 174.163 0.00825298 161.029C-0.0963319 147.895 0.801358 132.87 2.23068 122.516C3.6513 112.162 7.70396 100.1 8.54064 98.9056C9.37732 97.7115 6.75398 109.477 7.25075 115.369C7.73882 121.261 7.06773 125.444 11.4864 134.247C15.9052 143.058 22.9995 158.318 33.763 168.21C44.5265 178.102 57.1552 186.26 76.0502 193.625C94.9539 200.989 119.732 207.726 147.15 212.389C174.569 217.052 217.702 220.424 240.562 221.592C263.423 222.76 275.189 216.363 284.314 219.405C293.447 222.438 290.493 232.025 295.339 239.816C300.184 247.608 310.05 259.94 313.379 266.146C316.709 272.351 316.77 267.88 315.314 277.048C313.867 286.217 311.296 297.678 304.664 321.166C298.032 344.663 281.464 399.09 275.52 418.02C269.576 436.941 271.955 430.448 268.983 434.728C266.002 439.007 262.943 440.157 257.653 443.687C252.363 447.226 244.292 451.505 237.224 455.95C230.147 460.394 218.896 467.959 215.227 470.356Z" fill="#C5D1EA"/>
</mask>
<g mask="url(#mask0_15_567)">
<path d="M-129.702 -101.254C82.5477 -101.254 294.788 -101.254 504.228 -101.254C525.568 -101.254 536.228 -90.5838 536.228 -69.2538C536.228 162.096 536.228 393.456 536.228 564.676C536.228 586.016 525.568 596.676 504.228 596.676C301.638 596.676 99.0377 596.676 -129.702 596.676C-151.032 596.676 -161.702 586.016 -161.702 564.676C-161.702 349.436 -161.702 134.196 -161.702 -69.2538C-161.702 -90.5838 -151.032 -101.254 -129.702 -101.254Z" fill="url(#paint0_linear_15_567)"/>
<path d="M-129.702 -101.254C61.7277 -101.254 253.158 -101.254 504.228 -101.254ZM-129.702 -101.254C71.5277 -101.254 272.768 -101.254 504.228 -101.254ZM504.228 -101.254C525.568 -101.254 536.228 -90.5838 536.228 -69.2538ZM504.228 -101.254C525.568 -101.254 536.228 -90.5838 536.228 -69.2538ZM536.228 -69.2538C536.228 110.426 536.228 290.116 536.228 564.676ZM536.228 -69.2538C536.228 179.906 536.228 429.076 536.228 564.676ZM536.228 564.676C536.228 586.016 525.568 596.676 504.228 596.676ZM536.228 564.676C536.228 586.016 525.568 596.676 504.228 596.676ZM504.228 596.676C348.378 596.676 192.518 596.676 -129.702 596.676ZM504.228 596.676C265.768 596.676 27.2977 596.676 -129.702 596.676ZM-129.702 596.676C-151.032 596.676 -161.702 586.016 -161.702 564.676ZM-129.702 596.676C-151.032 596.676 -161.702 586.016 -161.702 564.676ZM-161.702 564.676C-161.702 393.856 -161.702 223.036 -161.702 -69.2538ZM-161.702 564.676C-161.702 378.286 -161.702 191.886 -161.702 -69.2538ZM-161.702 -69.2538C-161.702 -90.5838 -151.032 -101.254 -129.702 -101.254ZM-161.702 -69.2538C-161.702 -90.5838 -151.032 -101.254 -129.702 -101.254Z" fill="url(#paint1_linear_15_567)"/>
</g>
<path fill-rule="evenodd" clip-rule="evenodd" d="M212.413 469.678C197.475 467.499 145.897 462.653 122.793 456.605C99.6796 450.547 86.3973 442.939 73.7599 433.361C61.1226 423.774 48.616 399.58 46.9775 399.092C45.3477 398.612 54.342 420.139 63.9551 430.45C73.5595 440.76 89.683 453.877 104.63 460.962C119.586 468.039 130.584 468.946 153.663 472.946C176.741 476.946 225.356 482.141 243.109 484.947C260.854 487.762 255.128 492.216 260.139 489.784C265.15 487.361 260.514 514.013 273.16 470.401C285.806 426.798 324.555 274.514 335.998 228.148C347.432 181.773 351.851 195.883 341.802 192.188C331.753 188.493 289.806 202.899 275.705 205.993C261.594 209.078 267.591 209.741 257.176 210.708C246.769 211.676 228.363 212.286 213.233 211.798C198.094 211.318 183.992 210.647 166.379 207.806C148.765 204.956 122.915 198.907 107.541 194.733C92.1582 190.549 83.0244 186.192 74.126 182.74C65.2276 179.298 61.5932 178.688 54.1416 174.025C46.6986 169.362 35.1943 159.801 29.4508 154.773C23.6986 149.753 23.0276 149.387 19.6373 143.878C16.247 138.37 10.9829 128.687 9.10905 121.724C7.23523 114.76 7.671 107.561 8.38567 102.114C9.09161 96.6671 13.5801 88.7622 13.3796 89.0323C13.1704 89.3112 8.01091 96.1703 7.14808 103.744C6.28525 111.318 4.22842 123.85 8.19393 134.474C12.1594 145.107 20.1079 157.788 30.9499 167.532C41.7918 177.276 54.4466 185.364 73.237 192.946C92.0274 200.52 116.274 208.111 143.684 213.009C171.102 217.898 215.22 220.504 237.749 222.317C260.278 224.13 269.578 221.14 278.877 223.877C288.185 226.614 288.29 231.791 293.571 238.719C298.853 245.648 307.411 259.192 310.566 265.467C313.721 271.742 313.957 267.201 312.501 276.37C311.054 285.539 308.483 296.999 301.851 320.487C295.218 343.984 278.65 398.412 272.707 417.342C266.763 436.263 269.142 429.77 266.17 434.049C263.189 438.328 260.13 439.479 254.84 443.009C249.55 446.547 241.479 450.826 234.411 455.271C227.334 459.716 216.083 467.281 212.413 469.678Z" fill="#E5EDFE"/>
<path fill-rule="evenodd" clip-rule="evenodd" d="M212.413 469.678C197.475 467.499 145.897 462.653 122.793 456.605C99.6796 450.547 86.3973 442.939 73.7599 433.361C61.1226 423.774 48.616 399.58 46.9775 399.092C45.3477 398.612 54.342 420.139 63.9551 430.45C73.5595 440.76 89.683 453.877 104.63 460.962C119.586 468.039 130.584 468.946 153.663 472.946C176.741 476.946 225.356 482.141 243.109 484.947C260.854 487.762 255.128 492.216 260.139 489.784C265.15 487.361 260.514 514.013 273.16 470.401C285.806 426.798 324.555 274.514 335.998 228.148C347.432 181.773 351.851 195.883 341.802 192.188C331.753 188.493 289.806 202.899 275.705 205.993C261.594 209.078 267.591 209.741 257.176 210.708C246.769 211.676 228.363 212.286 213.233 211.798C198.094 211.318 183.992 210.647 166.379 207.806C148.765 204.956 122.915 198.907 107.541 194.733C92.1582 190.549 83.0244 186.192 74.126 182.74C65.2276 179.298 61.5932 178.688 54.1416 174.025C46.6986 169.362 35.1943 159.801 29.4508 154.773C23.6986 149.753 23.0276 149.387 19.6373 143.878C16.247 138.37 10.9829 128.687 9.10905 121.724C7.23523 114.76 7.671 107.561 8.38567 102.114C9.09161 96.6671 13.5801 88.7622 13.3796 89.0323C13.1704 89.3112 8.01091 96.1703 7.14808 103.744C6.28525 111.318 4.22842 123.85 8.19393 134.474C12.1594 145.107 20.1079 157.788 30.9499 167.532C41.7918 177.276 54.4466 185.364 73.237 192.946C92.0274 200.52 116.274 208.111 143.684 213.009C171.102 217.898 215.22 220.504 237.749 222.317C260.278 224.13 269.578 221.14 278.877 223.877C288.185 226.614 288.29 231.791 293.571 238.719C298.853 245.648 307.411 259.192 310.566 265.467C313.721 271.742 313.957 267.201 312.501 276.37C311.054 285.539 308.483 296.999 301.851 320.487C295.218 343.984 278.65 398.412 272.707 417.342C266.763 436.263 269.142 429.77 266.17 434.049C263.189 438.328 260.13 439.479 254.84 443.009C249.55 446.547 241.479 450.826 234.411 455.271C227.334 459.716 216.083 467.281 212.413 469.678ZM212.413 469.678C197.475 467.499 145.897 462.653 122.793 456.605C99.6796 450.547 86.3973 442.939 73.7599 433.361C61.1226 423.774 48.616 399.58 46.9775 399.092C45.3477 398.612 54.342 420.139 63.9551 430.45C73.5595 440.76 89.683 453.877 104.63 460.962C119.586 468.039 130.584 468.946 153.663 472.946C176.741 476.946 225.356 482.141 243.109 484.947C260.854 487.762 255.128 492.216 260.139 489.784C265.15 487.361 260.514 514.013 273.16 470.401C285.806 426.798 324.555 274.514 335.998 228.148C347.432 181.773 351.851 195.883 341.802 192.188C331.753 188.493 289.806 202.899 275.705 205.993C261.594 209.078 267.591 209.741 257.176 210.708C246.769 211.676 228.363 212.286 213.233 211.798C198.094 211.318 183.992 210.647 166.379 207.806C148.765 204.956 122.915 198.907 107.541 194.733C92.1582 190.549 83.0244 186.192 74.126 182.74C65.2276 179.298 61.5932 178.688 54.1416 174.025C46.6986 169.362 35.1943 159.801 29.4508 154.773C23.6986 149.753 23.0276 149.387 19.6373 143.878C16.247 138.37 10.9829 128.687 9.10905 121.724C7.23523 114.76 7.671 107.561 8.38567 102.114C9.09161 96.6671 13.5801 88.7622 13.3796 89.0323C13.1704 89.3112 8.01091 96.1703 7.14808 103.744C6.28525 111.318 4.22842 123.85 8.19393 134.474C12.1594 145.107 20.1079 157.788 30.9499 167.532C41.7918 177.276 54.4466 185.364 73.237 192.946C92.0274 200.52 116.274 208.111 143.684 213.009C171.102 217.898 215.22 220.504 237.749 222.317C260.278 224.13 269.578 221.14 278.877 223.877C288.185 226.614 288.29 231.791 293.571 238.719C298.853 245.648 307.411 259.192 310.566 265.467C313.721 271.742 313.957 267.201 312.501 276.37C311.054 285.539 308.483 296.999 301.851 320.487C295.218 343.984 278.65 398.412 272.707 417.342C266.763 436.263 269.142 429.77 266.17 434.049C263.189 438.328 260.13 439.479 254.84 443.009C249.55 446.547 241.479 450.826 234.411 455.271C227.334 459.716 216.083 467.281 212.413 469.678Z" fill="#E5EDFE"/>
<path d="M179.566 137.519C180.612 140.238 181.649 142.966 184.237 149.721C186.852 155.821 186.852 155.821 184.237 161.922C183.078 164.694 181.91 167.465 179.566 173.06C176.951 179.161 176.951 179.161 174.337 173.06C173.134 170.498 171.931 167.936 169.107 161.922C166.493 155.821 166.493 155.821 169.107 149.721C170.441 146.609 171.774 143.507 174.337 137.519C176.951 131.418 176.951 131.418 179.566 137.519Z" fill="#394382"/>
<path d="M179.566 137.519C180.908 141.014 182.241 144.518 184.237 149.721ZM179.566 137.519C181.021 141.328 182.486 145.136 184.237 149.721ZM184.237 149.721C186.852 155.821 186.852 155.821 184.237 161.922ZM184.237 149.721C186.852 155.821 186.852 155.821 184.237 161.922ZM184.237 161.922C183.252 164.275 182.259 166.637 179.566 173.06ZM184.237 161.922C182.503 166.053 180.769 170.193 179.566 173.06ZM179.566 173.06C176.951 179.161 176.951 179.161 174.337 173.06ZM179.566 173.06C176.951 179.161 176.951 179.161 174.337 173.06ZM174.337 173.06C172.472 169.086 170.606 165.112 169.107 161.922ZM174.337 173.06C172.402 168.929 170.458 164.807 169.107 161.922ZM169.107 161.922C166.493 155.821 166.493 155.821 169.107 149.721ZM169.107 161.922C166.493 155.821 166.493 155.821 169.107 149.721ZM169.107 149.721C170.458 146.574 171.8 143.428 174.337 137.519ZM169.107 149.721C170.232 147.106 171.347 144.483 174.337 137.519ZM174.337 137.519C176.951 131.418 176.951 131.418 179.566 137.519ZM174.337 137.519C176.951 131.418 176.951 131.418 179.566 137.519Z" fill="#394382"/>
<path d="M146.321 114.268C146.321 115.374 146.225 116.507 146.033 117.606C145.841 118.704 145.545 119.793 145.161 120.839C144.787 121.885 144.307 122.913 143.75 123.881C143.192 124.848 142.538 125.772 141.823 126.626C141.109 127.48 140.307 128.282 139.453 128.997C138.599 129.711 137.675 130.365 136.708 130.923C135.74 131.481 134.712 131.96 133.666 132.335C132.62 132.718 131.531 133.014 130.432 133.206C129.334 133.398 128.201 133.494 127.094 133.494C125.979 133.494 124.846 133.398 123.748 133.206C122.658 133.014 121.56 132.718 120.514 132.335C119.468 131.96 118.44 131.481 117.473 130.923C116.514 130.365 115.581 129.711 114.727 128.997C113.873 128.282 113.071 127.48 112.357 126.626C111.642 125.772 110.988 124.848 110.439 123.881C109.882 122.913 109.402 121.885 109.019 120.839C108.635 119.793 108.348 118.704 108.156 117.606C107.955 116.507 107.86 115.374 107.86 114.268C107.86 113.152 107.955 112.019 108.156 110.921C108.348 109.831 108.635 108.733 109.019 107.687C109.402 106.642 109.882 105.613 110.439 104.646C110.988 103.687 111.642 102.755 112.357 101.9C113.071 101.046 113.873 100.245 114.727 99.5299C115.581 98.8152 116.514 98.1615 117.473 97.6125C118.44 97.0547 119.468 96.5753 120.514 96.1919C121.56 95.8084 122.658 95.5208 123.748 95.329C124.846 95.1286 125.979 95.0327 127.094 95.0327C128.201 95.0327 129.334 95.1286 130.432 95.329C131.531 95.5208 132.62 95.8084 133.666 96.1919C134.712 96.5753 135.74 97.0547 136.708 97.6125C137.675 98.1615 138.599 98.8152 139.453 99.5299C140.307 100.245 141.109 101.046 141.823 101.9C142.538 102.755 143.192 103.687 143.75 104.646C144.307 105.613 144.787 106.642 145.161 107.687C145.545 108.733 145.841 109.831 146.033 110.921C146.225 112.019 146.277 113.71 146.321 114.268C146.373 114.825 146.373 113.71 146.321 114.268Z" fill="#7286FF"/>
<path d="M146.321 114.268C146.321 115.374 146.225 116.507 146.033 117.606C145.841 118.704 145.545 119.793 145.161 120.839C144.787 121.885 144.307 122.913 143.75 123.881C143.192 124.848 142.538 125.772 141.823 126.626C141.109 127.48 140.307 128.282 139.453 128.997C138.599 129.711 137.675 130.365 136.708 130.923C135.74 131.481 134.712 131.96 133.666 132.335C132.62 132.718 131.531 133.014 130.432 133.206C129.334 133.398 128.201 133.494 127.094 133.494C125.979 133.494 124.846 133.398 123.748 133.206C122.658 133.014 121.56 132.718 120.514 132.335C119.468 131.96 118.44 131.481 117.473 130.923C116.514 130.365 115.581 129.711 114.727 128.997C113.873 128.282 113.071 127.48 112.357 126.626C111.642 125.772 110.988 124.848 110.439 123.881C109.882 122.913 109.402 121.885 109.019 120.839C108.635 119.793 108.348 118.704 108.156 117.606C107.955 116.507 107.86 115.374 107.86 114.268C107.86 113.152 107.955 112.019 108.156 110.921C108.348 109.831 108.635 108.733 109.019 107.687C109.402 106.642 109.882 105.613 110.439 104.646C110.988 103.687 111.642 102.755 112.357 101.9C113.071 101.046 113.873 100.245 114.727 99.5299C115.581 98.8152 116.514 98.1615 117.473 97.6125C118.44 97.0547 119.468 96.5753 120.514 96.1919C121.56 95.8084 122.658 95.5208 123.748 95.329C124.846 95.1286 125.979 95.0327 127.094 95.0327C128.201 95.0327 129.334 95.1286 130.432 95.329C131.531 95.5208 132.62 95.8084 133.666 96.1919C134.712 96.5753 135.74 97.0547 136.708 97.6125C137.675 98.1615 138.599 98.8152 139.453 99.5299C140.307 100.245 141.109 101.046 141.823 101.9C142.538 102.755 143.192 103.687 143.75 104.646C144.307 105.613 144.787 106.642 145.161 107.687C145.545 108.733 145.841 109.831 146.033 110.921C146.225 112.019 146.277 113.71 146.321 114.268C146.373 114.825 146.373 113.71 146.321 114.268Z" fill="#7286FF"/>
<path d="M249.425 113.733C249.425 114.84 249.329 115.973 249.137 117.071C248.946 118.17 248.649 119.259 248.266 120.305C247.891 121.351 247.412 122.379 246.854 123.346C246.296 124.314 245.642 125.238 244.928 126.092C244.213 126.946 243.411 127.748 242.557 128.462C241.703 129.177 240.779 129.831 239.812 130.389C238.844 130.946 237.816 131.426 236.77 131.8C235.724 132.184 234.635 132.48 233.537 132.672C232.439 132.864 231.306 132.96 230.199 132.96C229.083 132.96 227.95 132.864 226.852 132.672C225.763 132.48 224.664 132.184 223.619 131.8C222.573 131.426 221.544 130.946 220.577 130.389C219.618 129.831 218.686 129.177 217.832 128.462C216.977 127.748 216.176 126.946 215.461 126.092C214.746 125.238 214.093 124.314 213.544 123.346C212.986 122.379 212.506 121.351 212.123 120.305C211.739 119.259 211.452 118.17 211.26 117.071C211.06 115.973 210.964 114.84 210.964 113.733C210.964 112.618 211.06 111.485 211.26 110.387C211.452 109.297 211.739 108.199 212.123 107.153C212.506 106.107 212.986 105.079 213.544 104.112C214.093 103.153 214.746 102.22 215.461 101.366C216.176 100.512 216.977 99.7103 217.832 98.9957C218.686 98.281 219.618 97.6273 220.577 97.0783C221.544 96.5205 222.573 96.0411 223.619 95.6577C224.664 95.2742 225.763 94.9866 226.852 94.7948C227.95 94.5944 229.083 94.4985 230.199 94.4985C231.306 94.4985 232.439 94.5944 233.537 94.7948C234.635 94.9866 235.724 95.2742 236.77 95.6577C237.816 96.0411 238.844 96.5205 239.812 97.0783C240.779 97.6273 241.703 98.281 242.557 98.9957C243.411 99.7103 244.213 100.512 244.928 101.366C245.642 102.22 246.296 103.153 246.854 104.112C247.412 105.079 247.891 106.107 248.266 107.153C248.649 108.199 248.946 109.297 249.137 110.387C249.329 111.485 249.381 113.176 249.425 113.733C249.477 114.291 249.477 113.176 249.425 113.733Z" fill="#7286FF"/>
<path d="M249.425 113.733C249.425 114.84 249.329 115.973 249.137 117.071C248.946 118.17 248.649 119.259 248.266 120.305C247.891 121.351 247.412 122.379 246.854 123.346C246.296 124.314 245.642 125.238 244.928 126.092C244.213 126.946 243.411 127.748 242.557 128.462C241.703 129.177 240.779 129.831 239.812 130.389C238.844 130.946 237.816 131.426 236.77 131.8C235.724 132.184 234.635 132.48 233.537 132.672C232.439 132.864 231.306 132.96 230.199 132.96C229.083 132.96 227.95 132.864 226.852 132.672C225.763 132.48 224.664 132.184 223.619 131.8C222.573 131.426 221.544 130.946 220.577 130.389C219.618 129.831 218.686 129.177 217.832 128.462C216.977 127.748 216.176 126.946 215.461 126.092C214.746 125.238 214.093 124.314 213.544 123.346C212.986 122.379 212.506 121.351 212.123 120.305C211.739 119.259 211.452 118.17 211.26 117.071C211.06 115.973 210.964 114.84 210.964 113.733C210.964 112.618 211.06 111.485 211.26 110.387C211.452 109.297 211.739 108.199 212.123 107.153C212.506 106.107 212.986 105.079 213.544 104.112C214.093 103.153 214.746 102.22 215.461 101.366C216.176 100.512 216.977 99.7103 217.832 98.9957C218.686 98.281 219.618 97.6273 220.577 97.0783C221.544 96.5205 222.573 96.0411 223.619 95.6577C224.664 95.2742 225.763 94.9866 226.852 94.7948C227.95 94.5944 229.083 94.4985 230.199 94.4985C231.306 94.4985 232.439 94.5944 233.537 94.7948C234.635 94.9866 235.724 95.2742 236.77 95.6577C237.816 96.0411 238.844 96.5205 239.812 97.0783C240.779 97.6273 241.703 98.281 242.557 98.9957C243.411 99.7103 244.213 100.512 244.928 101.366C245.642 102.22 246.296 103.153 246.854 104.112C247.412 105.079 247.891 106.107 248.266 107.153C248.649 108.199 248.946 109.297 249.137 110.387C249.329 111.485 249.381 113.176 249.425 113.733C249.477 114.291 249.477 113.176 249.425 113.733Z" fill="#7286FF"/>
<path fill-rule="evenodd" clip-rule="evenodd" d="M175.875 2.99548C169.992 2.91704 156.484 -2.17276 140.569 2.50742C124.664 7.1963 95.6065 25.1239 80.4242 31.094C65.2333 37.064 58.0954 38.903 49.4322 38.3103C40.7691 37.7264 26.7722 24.2524 28.4455 27.5642C30.1276 30.8848 41.9021 53.1178 59.4985 58.225C77.0949 63.3322 118.45 57.2576 134.033 58.225C149.616 59.1924 147.655 61.4497 152.989 64.0382C158.331 66.618 162.035 69.0408 166.071 73.721C170.097 78.4099 175.544 103.92 177.183 92.1367C178.821 80.3447 176.093 17.8552 175.875 2.99548Z" fill="#7286FF"/>
<path fill-rule="evenodd" clip-rule="evenodd" d="M175.875 2.99548C169.992 2.91704 156.484 -2.17276 140.569 2.50742C124.664 7.1963 95.6065 25.1239 80.4242 31.094C65.2333 37.064 58.0954 38.903 49.4322 38.3103C40.7691 37.7264 26.7722 24.2524 28.4455 27.5642C30.1276 30.8848 41.9021 53.1178 59.4985 58.225C77.0949 63.3322 118.45 57.2576 134.033 58.225C149.616 59.1924 147.655 61.4497 152.989 64.0382C158.331 66.618 162.035 69.0408 166.071 73.721C170.097 78.4099 175.544 103.92 177.183 92.1367C178.821 80.3447 176.093 17.8552 175.875 2.99548ZM175.875 2.99548C169.992 2.91704 156.484 -2.17276 140.569 2.50742C124.664 7.1963 95.6065 25.1239 80.4242 31.094C65.2333 37.064 58.0954 38.903 49.4322 38.3103C40.7691 37.7264 26.7722 24.2524 28.4455 27.5642C30.1276 30.8848 41.9021 53.1178 59.4985 58.225C77.0949 63.3322 118.45 57.2576 134.033 58.225C149.616 59.1924 147.655 61.4497 152.989 64.0382C158.331 66.618 162.035 69.0408 166.071 73.721C170.097 78.4099 175.544 103.92 177.183 92.1367C178.821 80.3447 176.093 17.8552 175.875 2.99548Z" fill="#7286FF"/>
<path fill-rule="evenodd" clip-rule="evenodd" d="M175.687 3.15017C181.57 3.07173 195.079 -2.01806 210.994 2.66211C226.899 7.351 255.956 25.2786 271.139 31.2486C286.33 37.2187 293.467 39.0576 302.131 38.465C310.794 37.8811 324.791 24.4071 323.117 27.7189C321.435 31.0395 309.661 53.2725 292.064 58.3797C274.468 63.4869 233.113 57.4123 217.53 58.3797C201.947 59.3471 203.908 61.6044 198.574 64.1929C193.232 66.7726 189.527 69.1955 185.492 73.8757C181.466 78.5646 176.019 104.075 174.38 92.2914C172.742 80.4994 175.47 18.0099 175.687 3.15017Z" fill="#7286FF"/>
<path fill-rule="evenodd" clip-rule="evenodd" d="M175.687 3.15017C181.57 3.07173 195.079 -2.01806 210.994 2.66211C226.899 7.351 255.956 25.2786 271.139 31.2486C286.33 37.2187 293.467 39.0576 302.131 38.465C310.794 37.8811 324.791 24.4071 323.117 27.7189C321.435 31.0395 309.661 53.2725 292.064 58.3797C274.468 63.4869 233.113 57.4123 217.53 58.3797C201.947 59.3471 203.908 61.6044 198.574 64.1929C193.232 66.7726 189.527 69.1955 185.492 73.8757C181.466 78.5646 176.019 104.075 174.38 92.2914C172.742 80.4994 175.47 18.0099 175.687 3.15017ZM175.687 3.15017C181.57 3.07173 195.079 -2.01806 210.994 2.66211C226.899 7.351 255.956 25.2786 271.139 31.2486C286.33 37.2187 293.467 39.0576 302.131 38.465C310.794 37.8811 324.791 24.4071 323.117 27.7189C321.435 31.0395 309.661 53.2725 292.064 58.3797C274.468 63.4869 233.113 57.4123 217.53 58.3797C201.947 59.3471 203.908 61.6044 198.574 64.1929C193.232 66.7726 189.527 69.1955 185.492 73.8757C181.466 78.5646 176.019 104.075 174.38 92.2914C172.742 80.4994 175.47 18.0099 175.687 3.15017Z" fill="#7286FF"/>
<path fill-rule="evenodd" clip-rule="evenodd" d="M176.722 3.71608C170.229 3.62893 155.334 -1.9838 137.79 3.18444C120.246 8.34396 88.208 28.1192 71.457 34.6994C54.7147 41.2795 46.8447 43.3102 37.2926 42.6652C27.7405 42.0116 12.2968 27.1518 14.1532 30.8123C16.0009 34.4728 28.9868 58.9805 48.3873 64.6193C67.7965 70.2495 113.396 63.5473 130.582 64.6193C147.76 65.6826 145.599 68.1752 151.491 71.0252C157.373 73.8751 161.461 76.5507 165.906 81.7102C170.351 86.8785 176.364 115.012 178.16 102.008C179.964 89.0138 176.966 20.101 176.722 3.71608Z" fill="#E5EDFE"/>
<path fill-rule="evenodd" clip-rule="evenodd" d="M176.722 3.71608C170.229 3.62893 155.334 -1.9838 137.79 3.18444C120.246 8.34396 88.208 28.1192 71.457 34.6994C54.7147 41.2795 46.8447 43.3102 37.2926 42.6652C27.7405 42.0116 12.2968 27.1518 14.1532 30.8123C16.0009 34.4728 28.9868 58.9805 48.3873 64.6193C67.7965 70.2495 113.396 63.5473 130.582 64.6193C147.76 65.6826 145.599 68.1752 151.491 71.0252C157.373 73.8751 161.461 76.5507 165.906 81.7102C170.351 86.8785 176.364 115.012 178.16 102.008C179.964 89.0138 176.966 20.101 176.722 3.71608ZM176.722 3.71608C170.229 3.62893 155.334 -1.9838 137.79 3.18444C120.246 8.34396 88.208 28.1192 71.457 34.6994C54.7147 41.2795 46.8447 43.3102 37.2926 42.6652C27.7405 42.0116 12.2968 27.1518 14.1532 30.8123C16.0009 34.4728 28.9868 58.9805 48.3873 64.6193C67.7965 70.2495 113.396 63.5473 130.582 64.6193C147.76 65.6826 145.599 68.1752 151.491 71.0252C157.373 73.8751 161.461 76.5507 165.906 81.7102C170.351 86.8785 176.364 115.012 178.16 102.008C179.964 89.0138 176.966 20.101 176.722 3.71608Z" fill="#E5EDFE"/>
<path fill-rule="evenodd" clip-rule="evenodd" d="M176.514 3.88667C183.007 3.79952 197.902 -1.8132 215.446 3.35503C232.99 8.51455 265.028 28.2898 281.779 34.8699C298.521 41.4501 306.391 43.4808 315.943 42.8358C325.496 42.1822 340.939 27.3224 339.083 30.9829C337.235 34.6433 324.249 59.1511 304.849 64.7899C285.44 70.4201 239.841 63.7179 222.654 64.7899C205.476 65.8532 207.637 68.3458 201.745 71.1958C195.863 74.0457 191.775 76.7213 187.33 81.8808C182.885 87.0491 176.872 115.182 175.076 102.179C173.272 89.1844 176.27 20.2716 176.514 3.88667Z" fill="#E5EDFE"/>
<path fill-rule="evenodd" clip-rule="evenodd" d="M176.514 3.88667C183.007 3.79952 197.902 -1.8132 215.446 3.35503C232.99 8.51455 265.028 28.2898 281.779 34.8699C298.521 41.4501 306.391 43.4808 315.943 42.8358C325.496 42.1822 340.939 27.3224 339.083 30.9829C337.235 34.6433 324.249 59.1511 304.849 64.7899C285.44 70.4201 239.841 63.7179 222.654 64.7899C205.476 65.8532 207.637 68.3458 201.745 71.1958C195.863 74.0457 191.775 76.7213 187.33 81.8808C182.885 87.0491 176.872 115.182 175.076 102.179C173.272 89.1844 176.27 20.2716 176.514 3.88667ZM176.514 3.88667C183.007 3.79952 197.902 -1.8132 215.446 3.35503C232.99 8.51455 265.028 28.2898 281.779 34.8699C298.521 41.4501 306.391 43.4808 315.943 42.8358C325.496 42.1822 340.939 27.3224 339.083 30.9829C337.235 34.6433 324.249 59.1511 304.849 64.7899C285.44 70.4201 239.841 63.7179 222.654 64.7899C205.476 65.8532 207.637 68.3458 201.745 71.1958C195.863 74.0457 191.775 76.7213 187.33 81.8808C182.885 87.0491 176.872 115.182 175.076 102.179C173.272 89.1844 176.27 20.2716 176.514 3.88667Z" fill="#E5EDFE"/>
<defs>
<linearGradient id="paint0_linear_15_567" x1="-146.5" y1="-93.5" x2="521.5" y2="591" gradientUnits="userSpaceOnUse">
<stop stop-color="#0A0F20"/>
<stop offset="0.640684" stop-color="#17162D"/>
<stop offset="1" stop-color="#38264C"/>
</linearGradient>
<linearGradient id="paint1_linear_15_567" x1="-146.5" y1="-93.5" x2="521.5" y2="591" gradientUnits="userSpaceOnUse">
<stop stop-color="#0A0F20"/>
<stop offset="0.640684" stop-color="#17162D"/>
<stop offset="1" stop-color="#38264C"/>
</linearGradient>
</defs>
</svg>
