<svg width="405" height="568" viewBox="0 0 405 568" fill="none" xmlns="http://www.w3.org/2000/svg">
<path fill-rule="evenodd" clip-rule="evenodd" d="M162.291 566.807C168.211 564.677 175.311 561.297 197.821 554.007C220.321 546.717 278.361 538.107 297.341 523.067C316.321 508.037 305.411 486.917 311.691 463.787C317.961 440.647 328.661 407.777 335.001 384.257C341.351 360.747 345.051 347.637 349.781 322.707C354.501 297.777 360.561 257.037 363.371 234.667C366.181 212.297 366.501 203.527 366.621 188.467C366.731 173.397 366.021 156.157 364.071 144.277C362.121 132.397 356.101 118.527 354.931 117.187C353.771 115.847 357.351 129.467 357.101 136.227C356.851 142.977 358.661 147.877 353.451 157.737C348.231 167.597 338.161 184.027 325.811 195.387C313.471 206.737 299.351 214.347 279.361 225.857C259.381 237.377 225.001 256.837 205.901 264.477C186.801 272.117 176.341 248.287 164.771 271.717C153.211 295.157 137.181 355.797 136.491 405.097C135.811 454.397 156.661 540.447 160.691 567.517" fill="#506392"/>
<path fill-rule="evenodd" clip-rule="evenodd" d="M162.291 566.807C168.211 564.677 175.311 561.297 197.821 554.007C220.321 546.717 278.361 538.107 297.341 523.067C316.321 508.037 305.411 486.917 311.691 463.787C317.961 440.647 328.661 407.777 335.001 384.257C341.351 360.747 345.051 347.637 349.781 322.707C354.501 297.777 360.561 257.037 363.371 234.667C366.181 212.297 366.501 203.527 366.621 188.467C366.731 173.397 366.021 156.157 364.071 144.277C362.121 132.397 356.101 118.527 354.931 117.187C353.771 115.847 357.351 129.467 357.101 136.227C356.851 142.977 358.661 147.877 353.451 157.737C348.231 167.597 338.161 184.027 325.811 195.387C313.471 206.737 299.351 214.347 279.361 225.857C259.381 237.377 225.001 256.837 205.901 264.477C186.801 272.117 176.341 248.287 164.771 271.717C153.211 295.157 137.181 355.797 136.491 405.097C135.811 454.397 156.661 540.447 160.691 567.517M162.291 566.807C168.211 564.677 175.311 561.297 197.821 554.007C220.321 546.717 278.361 538.107 297.341 523.067C316.321 508.037 305.411 486.917 311.691 463.787C317.961 440.647 328.661 407.777 335.001 384.257C341.351 360.747 345.051 347.637 349.781 322.707C354.501 297.777 360.561 257.037 363.371 234.667C366.181 212.297 366.501 203.527 366.621 188.467C366.731 173.397 366.021 156.157 364.071 144.277C362.121 132.397 356.101 118.527 354.931 117.187C353.771 115.847 357.351 129.467 357.101 136.227C356.851 142.977 358.661 147.877 353.451 157.737C348.231 167.597 338.161 184.027 325.811 195.387C313.471 206.737 299.351 214.347 279.361 225.857C259.381 237.377 225.001 256.837 205.901 264.477C186.801 272.117 176.341 248.287 164.771 271.717C153.211 295.157 137.181 355.797 136.491 405.097C135.811 454.397 156.661 540.447 160.691 567.517" fill="#506392"/>
<path fill-rule="evenodd" clip-rule="evenodd" d="M161.433 298.623C176.603 288.713 228.683 254.483 252.453 239.163C276.223 223.843 290.983 215.563 304.043 206.693C317.093 197.823 324.213 191.843 330.773 185.943C337.323 180.043 339.203 177.843 343.363 171.303C347.523 164.753 353.513 154.533 355.713 146.683C357.913 138.833 357.363 130.433 356.543 124.183C355.733 117.933 350.583 108.863 350.813 109.173C351.053 109.493 357.233 117.233 357.963 126.053C358.693 134.873 360.283 150.283 355.213 162.093C350.143 173.903 340.253 185.223 327.553 196.913C314.863 208.613 303.173 214.543 279.033 232.273C254.893 250.013 203.933 274.223 182.703 303.323C161.473 332.423 155.113 363.153 151.653 406.853C148.193 450.553 162.613 551.833 161.933 565.503C161.263 579.173 147.683 533.343 147.593 488.863C147.513 444.383 159.123 330.333 161.433 298.623Z" fill="#0A1B3C"/>
<path fill-rule="evenodd" clip-rule="evenodd" d="M161.433 298.623C176.603 288.713 228.683 254.483 252.453 239.163C276.223 223.843 290.983 215.563 304.043 206.693C317.093 197.823 324.213 191.843 330.773 185.943C337.323 180.043 339.203 177.843 343.363 171.303C347.523 164.753 353.513 154.533 355.713 146.683C357.913 138.833 357.363 130.433 356.543 124.183C355.733 117.933 350.583 108.863 350.813 109.173C351.053 109.493 357.233 117.233 357.963 126.053C358.693 134.873 360.283 150.283 355.213 162.093C350.143 173.903 340.253 185.223 327.553 196.913C314.863 208.613 303.173 214.543 279.033 232.273C254.893 250.013 203.933 274.223 182.703 303.323C161.473 332.423 155.113 363.153 151.653 406.853C148.193 450.553 162.613 551.833 161.933 565.503C161.263 579.173 147.683 533.343 147.593 488.863C147.513 444.383 159.123 330.333 161.433 298.623ZM161.433 298.623C176.603 288.713 228.683 254.483 252.453 239.163C276.223 223.843 290.983 215.563 304.043 206.693C317.093 197.823 324.213 191.843 330.773 185.943C337.323 180.043 339.203 177.843 343.363 171.303C347.523 164.753 353.513 154.533 355.713 146.683C357.913 138.833 357.363 130.433 356.543 124.183C355.733 117.933 350.583 108.863 350.813 109.173C351.053 109.493 357.233 117.233 357.963 126.053C358.693 134.873 360.283 150.283 355.213 162.093C350.143 173.903 340.253 185.223 327.553 196.913C314.863 208.613 303.173 214.543 279.033 232.273C254.893 250.013 203.933 274.223 182.703 303.323C161.473 332.423 155.113 363.153 151.653 406.853C148.193 450.553 162.613 551.833 161.933 565.503C161.263 579.173 147.683 533.343 147.593 488.863C147.513 444.383 159.123 330.333 161.433 298.623Z" fill="#0A1B3C"/>
<path fill-rule="evenodd" clip-rule="evenodd" d="M252.949 538.536C235.809 536.306 176.369 531.546 150.119 525.136C123.869 518.716 110.319 511.096 95.4595 500.056C80.5895 489.026 70.5795 479.046 60.9395 458.936C51.2995 438.826 43.9695 402.926 37.6195 379.416C31.2695 355.896 27.5795 342.796 22.8495 317.856C18.1195 292.926 12.0595 252.196 9.24948 229.826C6.44948 207.446 6.11947 198.686 6.00947 183.616C5.88947 168.546 6.91947 151.306 8.55947 139.426C10.1895 127.546 14.8395 113.706 15.7995 112.336C16.7595 110.966 13.7495 124.466 14.3195 131.226C14.8795 137.986 14.1095 142.786 19.1795 152.886C24.2495 162.996 32.3895 180.506 44.7395 191.856C57.0895 203.206 71.5795 212.566 93.2595 221.016C114.949 229.466 143.379 237.196 174.839 242.546C206.299 247.896 255.789 251.766 282.019 253.106C308.249 254.446 321.749 247.106 332.219 250.596C342.699 254.076 339.309 265.076 344.869 274.016C350.429 282.956 361.749 297.106 365.569 304.226C369.389 311.346 369.459 306.216 367.789 316.736C366.129 327.256 363.179 340.406 355.569 367.356C347.959 394.316 328.949 456.766 322.129 478.486C315.309 500.196 318.039 492.746 314.629 497.656C311.209 502.566 307.699 503.886 301.629 507.936C295.559 511.996 286.299 516.906 278.189 522.006C270.069 527.106 257.159 535.786 252.949 538.536Z" fill="#506392"/>
<path fill-rule="evenodd" clip-rule="evenodd" d="M252.949 538.536C235.809 536.306 176.369 531.546 150.119 525.136C123.869 518.716 110.319 511.096 95.4595 500.056C80.5895 489.026 70.5795 479.046 60.9395 458.936C51.2995 438.826 43.9695 402.926 37.6195 379.416C31.2695 355.896 27.5795 342.796 22.8495 317.856C18.1195 292.926 12.0595 252.196 9.24948 229.826C6.44948 207.446 6.11947 198.686 6.00947 183.616C5.88947 168.546 6.91947 151.306 8.55947 139.426C10.1895 127.546 14.8395 113.706 15.7995 112.336C16.7595 110.966 13.7495 124.466 14.3195 131.226C14.8795 137.986 14.1095 142.786 19.1795 152.886C24.2495 162.996 32.3895 180.506 44.7395 191.856C57.0895 203.206 71.5795 212.566 93.2595 221.016C114.949 229.466 143.379 237.196 174.839 242.546C206.299 247.896 255.789 251.766 282.019 253.106C308.249 254.446 321.749 247.106 332.219 250.596C342.699 254.076 339.309 265.076 344.869 274.016C350.429 282.956 361.749 297.106 365.569 304.226C369.389 311.346 369.459 306.216 367.789 316.736C366.129 327.256 363.179 340.406 355.569 367.356C347.959 394.316 328.949 456.766 322.129 478.486C315.309 500.196 318.039 492.746 314.629 497.656C311.209 502.566 307.699 503.886 301.629 507.936C295.559 511.996 286.299 516.906 278.189 522.006C270.069 527.106 257.159 535.786 252.949 538.536ZM252.949 538.536C235.809 536.306 176.369 531.546 150.119 525.136C123.869 518.716 110.319 511.096 95.4595 500.056C80.5895 489.026 70.5795 479.046 60.9395 458.936C51.2995 438.826 43.9695 402.926 37.6195 379.416C31.2695 355.896 27.5795 342.796 22.8495 317.856C18.1195 292.926 12.0595 252.196 9.24948 229.826C6.44948 207.446 6.11947 198.686 6.00947 183.616C5.88947 168.546 6.91947 151.306 8.55947 139.426C10.1895 127.546 14.8395 113.706 15.7995 112.336C16.7595 110.966 13.7495 124.466 14.3195 131.226C14.8795 137.986 14.1095 142.786 19.1795 152.886C24.2495 162.996 32.3895 180.506 44.7395 191.856C57.0895 203.206 71.5795 212.566 93.2595 221.016C114.949 229.466 143.379 237.196 174.839 242.546C206.299 247.896 255.789 251.766 282.019 253.106C308.249 254.446 321.749 247.106 332.219 250.596C342.699 254.076 339.309 265.076 344.869 274.016C350.429 282.956 361.749 297.106 365.569 304.226C369.389 311.346 369.459 306.216 367.789 316.736C366.129 327.256 363.179 340.406 355.569 367.356C347.959 394.316 328.949 456.766 322.129 478.486C315.309 500.196 318.039 492.746 314.629 497.656C311.209 502.566 307.699 503.886 301.629 507.936C295.559 511.996 286.299 516.906 278.189 522.006C270.069 527.106 257.159 535.786 252.949 538.536Z" fill="#506392"/>
<path fill-rule="evenodd" clip-rule="evenodd" d="M249.722 537.758C232.582 535.258 173.402 529.698 146.892 522.758C120.372 515.808 105.132 507.078 90.6317 496.088C76.1317 485.088 61.7817 457.328 59.9017 456.768C58.0317 456.218 68.3517 480.918 79.3817 492.748C90.4017 504.578 108.902 519.628 126.052 527.758C143.212 535.878 155.832 536.918 182.312 541.508C208.792 546.098 264.572 552.058 284.942 555.278C305.302 558.508 298.732 563.618 304.482 560.828C310.232 558.048 304.912 588.628 319.422 538.588C333.932 488.558 378.392 313.828 391.522 260.628C404.642 207.418 409.712 223.608 398.182 219.368C386.652 215.128 338.522 231.658 322.342 235.208C306.152 238.748 313.032 239.508 301.082 240.618C289.142 241.728 268.022 242.428 250.662 241.868C233.292 241.318 217.112 240.548 196.902 237.288C176.692 234.018 147.032 227.078 129.392 222.288C111.742 217.488 101.262 212.488 91.0517 208.528C80.8417 204.578 76.6717 203.878 68.1217 198.528C59.5817 193.178 46.3817 182.208 39.7917 176.438C33.1917 170.678 32.4217 170.258 28.5317 163.938C24.6417 157.618 18.6017 146.508 16.4517 138.518C14.3017 130.528 14.8017 122.268 15.6217 116.018C16.4317 109.768 21.5817 100.698 21.3517 101.008C21.1117 101.328 15.1917 109.198 14.2017 117.888C13.2117 126.578 10.8517 140.958 15.4017 153.148C19.9517 165.348 29.0717 179.898 41.5117 191.078C53.9517 202.258 68.4717 211.538 90.0317 220.238C111.592 228.928 139.412 237.638 170.862 243.258C202.322 248.868 252.942 251.858 278.792 253.938C304.642 256.018 315.312 252.588 325.982 255.728C336.662 258.868 336.782 264.808 342.842 272.758C348.902 280.708 358.722 296.248 362.342 303.448C365.962 310.648 366.232 305.438 364.562 315.958C362.902 326.478 359.952 339.628 352.342 366.578C344.732 393.538 325.722 455.988 318.902 477.708C312.082 499.418 314.812 491.968 311.402 496.878C307.982 501.788 304.472 503.108 298.402 507.158C292.332 511.218 283.072 516.128 274.962 521.228C266.842 526.328 253.932 535.008 249.722 537.758Z" fill="#0A1B3C"/>
<path fill-rule="evenodd" clip-rule="evenodd" d="M249.722 537.758C232.582 535.258 173.402 529.698 146.892 522.758C120.372 515.808 105.132 507.078 90.6317 496.088C76.1317 485.088 61.7817 457.328 59.9017 456.768C58.0317 456.218 68.3517 480.918 79.3817 492.748C90.4017 504.578 108.902 519.628 126.052 527.758C143.212 535.878 155.832 536.918 182.312 541.508C208.792 546.098 264.572 552.058 284.942 555.278C305.302 558.508 298.732 563.618 304.482 560.828C310.232 558.048 304.912 588.628 319.422 538.588C333.932 488.558 378.392 313.828 391.522 260.628C404.642 207.418 409.712 223.608 398.182 219.368C386.652 215.128 338.522 231.658 322.342 235.208C306.152 238.748 313.032 239.508 301.082 240.618C289.142 241.728 268.022 242.428 250.662 241.868C233.292 241.318 217.112 240.548 196.902 237.288C176.692 234.018 147.032 227.078 129.392 222.288C111.742 217.488 101.262 212.488 91.0517 208.528C80.8417 204.578 76.6717 203.878 68.1217 198.528C59.5817 193.178 46.3817 182.208 39.7917 176.438C33.1917 170.678 32.4217 170.258 28.5317 163.938C24.6417 157.618 18.6017 146.508 16.4517 138.518C14.3017 130.528 14.8017 122.268 15.6217 116.018C16.4317 109.768 21.5817 100.698 21.3517 101.008C21.1117 101.328 15.1917 109.198 14.2017 117.888C13.2117 126.578 10.8517 140.958 15.4017 153.148C19.9517 165.348 29.0717 179.898 41.5117 191.078C53.9517 202.258 68.4717 211.538 90.0317 220.238C111.592 228.928 139.412 237.638 170.862 243.258C202.322 248.868 252.942 251.858 278.792 253.938C304.642 256.018 315.312 252.588 325.982 255.728C336.662 258.868 336.782 264.808 342.842 272.758C348.902 280.708 358.722 296.248 362.342 303.448C365.962 310.648 366.232 305.438 364.562 315.958C362.902 326.478 359.952 339.628 352.342 366.578C344.732 393.538 325.722 455.988 318.902 477.708C312.082 499.418 314.812 491.968 311.402 496.878C307.982 501.788 304.472 503.108 298.402 507.158C292.332 511.218 283.072 516.128 274.962 521.228C266.842 526.328 253.932 535.008 249.722 537.758ZM249.722 537.758C232.582 535.258 173.402 529.698 146.892 522.758C120.372 515.808 105.132 507.078 90.6317 496.088C76.1317 485.088 61.7817 457.328 59.9017 456.768C58.0317 456.218 68.3517 480.918 79.3817 492.748C90.4017 504.578 108.902 519.628 126.052 527.758C143.212 535.878 155.832 536.918 182.312 541.508C208.792 546.098 264.572 552.058 284.942 555.278C305.302 558.508 298.732 563.618 304.482 560.828C310.232 558.048 304.912 588.628 319.422 538.588C333.932 488.558 378.392 313.828 391.522 260.628C404.642 207.418 409.712 223.608 398.182 219.368C386.652 215.128 338.522 231.658 322.342 235.208C306.152 238.748 313.032 239.508 301.082 240.618C289.142 241.728 268.022 242.428 250.662 241.868C233.292 241.318 217.112 240.548 196.902 237.288C176.692 234.018 147.032 227.078 129.392 222.288C111.742 217.488 101.262 212.488 91.0517 208.528C80.8417 204.578 76.6717 203.878 68.1217 198.528C59.5817 193.178 46.3817 182.208 39.7917 176.438C33.1917 170.678 32.4217 170.258 28.5317 163.938C24.6417 157.618 18.6017 146.508 16.4517 138.518C14.3017 130.528 14.8017 122.268 15.6217 116.018C16.4317 109.768 21.5817 100.698 21.3517 101.008C21.1117 101.328 15.1917 109.198 14.2017 117.888C13.2117 126.578 10.8517 140.958 15.4017 153.148C19.9517 165.348 29.0717 179.898 41.5117 191.078C53.9517 202.258 68.4717 211.538 90.0317 220.238C111.592 228.928 139.412 237.638 170.862 243.258C202.322 248.868 252.942 251.858 278.792 253.938C304.642 256.018 315.312 252.588 325.982 255.728C336.662 258.868 336.782 264.808 342.842 272.758C348.902 280.708 358.722 296.248 362.342 303.448C365.962 310.648 366.232 305.438 364.562 315.958C362.902 326.478 359.952 339.628 352.342 366.578C344.732 393.538 325.722 455.988 318.902 477.708C312.082 499.418 314.812 491.968 311.402 496.878C307.982 501.788 304.472 503.108 298.402 507.158C292.332 511.218 283.072 516.128 274.962 521.228C266.842 526.328 253.932 535.008 249.722 537.758Z" fill="#0A1B3C"/>
<path d="M189.969 156.641C191.169 159.761 192.359 162.891 195.329 170.641C198.329 177.641 198.329 177.641 195.329 184.641C193.999 187.821 192.659 191.001 189.969 197.421C186.969 204.421 186.969 204.421 183.969 197.421C182.589 194.481 181.209 191.541 177.969 184.641C174.969 177.641 174.969 177.641 177.969 170.641C179.499 167.071 181.029 163.511 183.969 156.641C186.969 149.641 186.969 149.641 189.969 156.641Z" fill="#7D8FBB"/>
<path d="M189.969 156.641C191.509 160.651 193.039 164.671 195.329 170.641ZM189.969 156.641C191.639 161.011 193.319 165.381 195.329 170.641ZM195.329 170.641C198.329 177.641 198.329 177.641 195.329 184.641ZM195.329 170.641C198.329 177.641 198.329 177.641 195.329 184.641ZM195.329 184.641C194.199 187.341 193.059 190.051 189.969 197.421ZM195.329 184.641C193.339 189.381 191.349 194.131 189.969 197.421ZM189.969 197.421C186.969 204.421 186.969 204.421 183.969 197.421ZM189.969 197.421C186.969 204.421 186.969 204.421 183.969 197.421ZM183.969 197.421C181.829 192.861 179.689 188.301 177.969 184.641ZM183.969 197.421C181.749 192.681 179.519 187.951 177.969 184.641ZM177.969 184.641C174.969 177.641 174.969 177.641 177.969 170.641ZM177.969 184.641C174.969 177.641 174.969 177.641 177.969 170.641ZM177.969 170.641C179.519 167.031 181.059 163.421 183.969 156.641ZM177.969 170.641C179.259 167.641 180.539 164.631 183.969 156.641ZM183.969 156.641C186.969 149.641 186.969 149.641 189.969 156.641ZM183.969 156.641C186.969 149.641 186.969 149.641 189.969 156.641Z" fill="#7D8FBB"/>
<path d="M151.824 129.963C151.824 131.233 151.714 132.533 151.494 133.793C151.274 135.053 150.934 136.303 150.494 137.503C150.064 138.703 149.514 139.883 148.874 140.993C148.234 142.103 147.484 143.163 146.664 144.143C145.844 145.123 144.924 146.043 143.944 146.863C142.964 147.683 141.904 148.433 140.794 149.073C139.684 149.713 138.504 150.263 137.304 150.693C136.104 151.133 134.854 151.473 133.594 151.693C132.334 151.913 131.034 152.023 129.764 152.023C128.484 152.023 127.184 151.913 125.924 151.693C124.674 151.473 123.414 151.133 122.214 150.693C121.014 150.263 119.834 149.713 118.724 149.073C117.624 148.433 116.554 147.683 115.574 146.863C114.594 146.043 113.674 145.123 112.854 144.143C112.034 143.163 111.284 142.103 110.654 140.993C110.014 139.883 109.464 138.703 109.024 137.503C108.584 136.303 108.254 135.053 108.034 133.793C107.804 132.533 107.694 131.233 107.694 129.963C107.694 128.683 107.804 127.383 108.034 126.123C108.254 124.873 108.584 123.613 109.024 122.413C109.464 121.213 110.014 120.033 110.654 118.923C111.284 117.823 112.034 116.753 112.854 115.773C113.674 114.793 114.594 113.873 115.574 113.053C116.554 112.233 117.624 111.483 118.724 110.853C119.834 110.213 121.014 109.663 122.214 109.223C123.414 108.783 124.674 108.453 125.924 108.233C127.184 108.003 128.484 107.893 129.764 107.893C131.034 107.893 132.334 108.003 133.594 108.233C134.854 108.453 136.104 108.783 137.304 109.223C138.504 109.663 139.684 110.213 140.794 110.853C141.904 111.483 142.964 112.233 143.944 113.053C144.924 113.873 145.844 114.793 146.664 115.773C147.484 116.753 148.234 117.823 148.874 118.923C149.514 120.033 150.064 121.213 150.494 122.413C150.934 123.613 151.274 124.873 151.494 126.123C151.714 127.383 151.774 129.323 151.824 129.963C151.884 130.603 151.884 129.323 151.824 129.963Z" fill="#0A1B3C"/>
<path d="M151.824 129.963C151.824 131.233 151.714 132.533 151.494 133.793C151.274 135.053 150.934 136.303 150.494 137.503C150.064 138.703 149.514 139.883 148.874 140.993C148.234 142.103 147.484 143.163 146.664 144.143C145.844 145.123 144.924 146.043 143.944 146.863C142.964 147.683 141.904 148.433 140.794 149.073C139.684 149.713 138.504 150.263 137.304 150.693C136.104 151.133 134.854 151.473 133.594 151.693C132.334 151.913 131.034 152.023 129.764 152.023C128.484 152.023 127.184 151.913 125.924 151.693C124.674 151.473 123.414 151.133 122.214 150.693C121.014 150.263 119.834 149.713 118.724 149.073C117.624 148.433 116.554 147.683 115.574 146.863C114.594 146.043 113.674 145.123 112.854 144.143C112.034 143.163 111.284 142.103 110.654 140.993C110.014 139.883 109.464 138.703 109.024 137.503C108.584 136.303 108.254 135.053 108.034 133.793C107.804 132.533 107.694 131.233 107.694 129.963C107.694 128.683 107.804 127.383 108.034 126.123C108.254 124.873 108.584 123.613 109.024 122.413C109.464 121.213 110.014 120.033 110.654 118.923C111.284 117.823 112.034 116.753 112.854 115.773C113.674 114.793 114.594 113.873 115.574 113.053C116.554 112.233 117.624 111.483 118.724 110.853C119.834 110.213 121.014 109.663 122.214 109.223C123.414 108.783 124.674 108.453 125.924 108.233C127.184 108.003 128.484 107.893 129.764 107.893C131.034 107.893 132.334 108.003 133.594 108.233C134.854 108.453 136.104 108.783 137.304 109.223C138.504 109.663 139.684 110.213 140.794 110.853C141.904 111.483 142.964 112.233 143.944 113.053C144.924 113.873 145.844 114.793 146.664 115.773C147.484 116.753 148.234 117.823 148.874 118.923C149.514 120.033 150.064 121.213 150.494 122.413C150.934 123.613 151.274 124.873 151.494 126.123C151.714 127.383 151.774 129.323 151.824 129.963C151.884 130.603 151.884 129.323 151.824 129.963Z" fill="#0A1B3C"/>
<path d="M270.125 129.35C270.125 130.62 270.015 131.92 269.795 133.18C269.575 134.44 269.235 135.69 268.795 136.89C268.365 138.09 267.815 139.27 267.175 140.38C266.535 141.49 265.785 142.55 264.965 143.53C264.145 144.51 263.225 145.43 262.245 146.25C261.265 147.07 260.205 147.82 259.095 148.46C257.985 149.1 256.805 149.65 255.605 150.08C254.405 150.52 253.155 150.86 251.895 151.08C250.635 151.3 249.335 151.41 248.065 151.41C246.785 151.41 245.485 151.3 244.225 151.08C242.975 150.86 241.715 150.52 240.515 150.08C239.315 149.65 238.135 149.1 237.025 148.46C235.925 147.82 234.855 147.07 233.875 146.25C232.895 145.43 231.975 144.51 231.155 143.53C230.335 142.55 229.585 141.49 228.955 140.38C228.315 139.27 227.765 138.09 227.325 136.89C226.885 135.69 226.555 134.44 226.335 133.18C226.105 131.92 225.995 130.62 225.995 129.35C225.995 128.07 226.105 126.77 226.335 125.51C226.555 124.26 226.885 123 227.325 121.8C227.765 120.6 228.315 119.42 228.955 118.31C229.585 117.21 230.335 116.14 231.155 115.16C231.975 114.18 232.895 113.26 233.875 112.44C234.855 111.62 235.925 110.87 237.025 110.24C238.135 109.6 239.315 109.05 240.515 108.61C241.715 108.17 242.975 107.84 244.225 107.62C245.485 107.39 246.785 107.28 248.065 107.28C249.335 107.28 250.635 107.39 251.895 107.62C253.155 107.84 254.405 108.17 255.605 108.61C256.805 109.05 257.985 109.6 259.095 110.24C260.205 110.87 261.265 111.62 262.245 112.44C263.225 113.26 264.145 114.18 264.965 115.16C265.785 116.14 266.535 117.21 267.175 118.31C267.815 119.42 268.365 120.6 268.795 121.8C269.235 123 269.575 124.26 269.795 125.51C270.015 126.77 270.075 128.71 270.125 129.35C270.185 129.99 270.185 128.71 270.125 129.35Z" fill="#0A1B3C"/>
<path d="M270.125 129.35C270.125 130.62 270.015 131.92 269.795 133.18C269.575 134.44 269.235 135.69 268.795 136.89C268.365 138.09 267.815 139.27 267.175 140.38C266.535 141.49 265.785 142.55 264.965 143.53C264.145 144.51 263.225 145.43 262.245 146.25C261.265 147.07 260.205 147.82 259.095 148.46C257.985 149.1 256.805 149.65 255.605 150.08C254.405 150.52 253.155 150.86 251.895 151.08C250.635 151.3 249.335 151.41 248.065 151.41C246.785 151.41 245.485 151.3 244.225 151.08C242.975 150.86 241.715 150.52 240.515 150.08C239.315 149.65 238.135 149.1 237.025 148.46C235.925 147.82 234.855 147.07 233.875 146.25C232.895 145.43 231.975 144.51 231.155 143.53C230.335 142.55 229.585 141.49 228.955 140.38C228.315 139.27 227.765 138.09 227.325 136.89C226.885 135.69 226.555 134.44 226.335 133.18C226.105 131.92 225.995 130.62 225.995 129.35C225.995 128.07 226.105 126.77 226.335 125.51C226.555 124.26 226.885 123 227.325 121.8C227.765 120.6 228.315 119.42 228.955 118.31C229.585 117.21 230.335 116.14 231.155 115.16C231.975 114.18 232.895 113.26 233.875 112.44C234.855 111.62 235.925 110.87 237.025 110.24C238.135 109.6 239.315 109.05 240.515 108.61C241.715 108.17 242.975 107.84 244.225 107.62C245.485 107.39 246.785 107.28 248.065 107.28C249.335 107.28 250.635 107.39 251.895 107.62C253.155 107.84 254.405 108.17 255.605 108.61C256.805 109.05 257.985 109.6 259.095 110.24C260.205 110.87 261.265 111.62 262.245 112.44C263.225 113.26 264.145 114.18 264.965 115.16C265.785 116.14 266.535 117.21 267.175 118.31C267.815 119.42 268.365 120.6 268.795 121.8C269.235 123 269.575 124.26 269.795 125.51C270.015 126.77 270.075 128.71 270.125 129.35C270.185 129.99 270.185 128.71 270.125 129.35Z" fill="#0A1B3C"/>
<path fill-rule="evenodd" clip-rule="evenodd" d="M185.735 4.58439C178.985 4.49439 163.485 -1.34561 145.225 4.02439C126.975 9.40439 93.6347 29.9744 76.2147 36.8244C58.7847 43.6744 50.5947 45.7844 40.6547 45.1044C30.7147 44.4344 14.6547 28.9744 16.5747 32.7744C18.5047 36.5844 32.0147 62.0944 52.2047 67.9544C72.3947 73.8144 119.845 66.8444 137.725 67.9544C155.605 69.0644 153.355 71.6544 159.475 74.6244C165.605 77.5844 169.855 80.3644 174.485 85.7344C179.105 91.1144 185.355 120.384 187.235 106.864C189.115 93.3344 185.985 21.6344 185.735 4.58439Z" fill="#506392"/>
<path fill-rule="evenodd" clip-rule="evenodd" d="M185.735 4.58439C178.985 4.49439 163.485 -1.34561 145.225 4.02439C126.975 9.40439 93.6347 29.9744 76.2147 36.8244C58.7847 43.6744 50.5947 45.7844 40.6547 45.1044C30.7147 44.4344 14.6547 28.9744 16.5747 32.7744C18.5047 36.5844 32.0147 62.0944 52.2047 67.9544C72.3947 73.8144 119.845 66.8444 137.725 67.9544C155.605 69.0644 153.355 71.6544 159.475 74.6244C165.605 77.5844 169.855 80.3644 174.485 85.7344C179.105 91.1144 185.355 120.384 187.235 106.864C189.115 93.3344 185.985 21.6344 185.735 4.58439ZM185.735 4.58439C178.985 4.49439 163.485 -1.34561 145.225 4.02439C126.975 9.40439 93.6347 29.9744 76.2147 36.8244C58.7847 43.6744 50.5947 45.7844 40.6547 45.1044C30.7147 44.4344 14.6547 28.9744 16.5747 32.7744C18.5047 36.5844 32.0147 62.0944 52.2047 67.9544C72.3947 73.8144 119.845 66.8444 137.725 67.9544C155.605 69.0644 153.355 71.6544 159.475 74.6244C165.605 77.5844 169.855 80.3644 174.485 85.7344C179.105 91.1144 185.355 120.384 187.235 106.864C189.115 93.3344 185.985 21.6344 185.735 4.58439Z" fill="#506392"/>
<path fill-rule="evenodd" clip-rule="evenodd" d="M185.519 4.76188C192.269 4.67188 207.769 -1.16812 226.029 4.20188C244.279 9.58188 277.619 30.1519 295.039 37.0019C312.469 43.8519 320.659 45.9619 330.599 45.2819C340.539 44.6119 356.599 29.1519 354.679 32.9519C352.749 36.7619 339.239 62.2719 319.049 68.1319C298.859 73.9919 251.409 67.0219 233.529 68.1319C215.649 69.2419 217.899 71.8319 211.779 74.8019C205.649 77.7619 201.399 80.5419 196.769 85.9119C192.149 91.2919 185.899 120.562 184.019 107.042C182.139 93.5119 185.269 21.8119 185.519 4.76188Z" fill="#506392"/>
<path fill-rule="evenodd" clip-rule="evenodd" d="M185.519 4.76188C192.269 4.67188 207.769 -1.16812 226.029 4.20188C244.279 9.58188 277.619 30.1519 295.039 37.0019C312.469 43.8519 320.659 45.9619 330.599 45.2819C340.539 44.6119 356.599 29.1519 354.679 32.9519C352.749 36.7619 339.239 62.2719 319.049 68.1319C298.859 73.9919 251.409 67.0219 233.529 68.1319C215.649 69.2419 217.899 71.8319 211.779 74.8019C205.649 77.7619 201.399 80.5419 196.769 85.9119C192.149 91.2919 185.899 120.562 184.019 107.042C182.139 93.5119 185.269 21.8119 185.519 4.76188ZM185.519 4.76188C192.269 4.67188 207.769 -1.16812 226.029 4.20188C244.279 9.58188 277.619 30.1519 295.039 37.0019C312.469 43.8519 320.659 45.9619 330.599 45.2819C340.539 44.6119 356.599 29.1519 354.679 32.9519C352.749 36.7619 339.239 62.2719 319.049 68.1319C298.859 73.9919 251.409 67.0219 233.529 68.1319C215.649 69.2419 217.899 71.8319 211.779 74.8019C205.649 77.7619 201.399 80.5419 196.769 85.9119C192.149 91.2919 185.899 120.562 184.019 107.042C182.139 93.5119 185.269 21.8119 185.519 4.76188Z" fill="#506392"/>
<path fill-rule="evenodd" clip-rule="evenodd" d="M186.706 3.11641C179.256 3.01641 162.166 -3.42359 142.036 2.50641C121.906 8.42641 85.1458 31.1164 65.9258 38.6664C46.7158 46.2164 37.6858 48.5464 26.7258 47.8064C15.7658 47.0564 -1.95423 30.0064 0.175768 34.2064C2.29577 38.4064 17.1958 66.5264 39.4558 72.9964C61.7258 79.4564 114.046 71.7664 133.766 72.9964C153.476 74.2164 150.996 77.0764 157.756 80.3464C164.506 83.6164 169.196 86.6864 174.296 92.6064C179.396 98.5364 186.296 130.816 188.356 115.896C190.426 100.986 186.986 21.9164 186.706 3.11641Z" fill="#0A1B3C"/>
<path fill-rule="evenodd" clip-rule="evenodd" d="M186.706 3.11641C179.256 3.01641 162.166 -3.42359 142.036 2.50641C121.906 8.42641 85.1458 31.1164 65.9258 38.6664C46.7158 46.2164 37.6858 48.5464 26.7258 47.8064C15.7658 47.0564 -1.95423 30.0064 0.175768 34.2064C2.29577 38.4064 17.1958 66.5264 39.4558 72.9964C61.7258 79.4564 114.046 71.7664 133.766 72.9964C153.476 74.2164 150.996 77.0764 157.756 80.3464C164.506 83.6164 169.196 86.6864 174.296 92.6064C179.396 98.5364 186.296 130.816 188.356 115.896C190.426 100.986 186.986 21.9164 186.706 3.11641ZM186.706 3.11641C179.256 3.01641 162.166 -3.42359 142.036 2.50641C121.906 8.42641 85.1458 31.1164 65.9258 38.6664C46.7158 46.2164 37.6858 48.5464 26.7258 47.8064C15.7658 47.0564 -1.95423 30.0064 0.175768 34.2064C2.29577 38.4064 17.1958 66.5264 39.4558 72.9964C61.7258 79.4564 114.046 71.7664 133.766 72.9964C153.476 74.2164 150.996 77.0764 157.756 80.3464C164.506 83.6164 169.196 86.6864 174.296 92.6064C179.396 98.5364 186.296 130.816 188.356 115.896C190.426 100.986 186.986 21.9164 186.706 3.11641Z" fill="#0A1B3C"/>
<path fill-rule="evenodd" clip-rule="evenodd" d="M186.468 3.31215C193.918 3.21215 211.008 -3.22785 231.138 2.70215C251.268 8.62215 288.028 31.3122 307.248 38.8622C326.458 46.4122 335.488 48.7422 346.448 48.0022C357.408 47.2522 375.128 30.2022 372.998 34.4022C370.878 38.6022 355.978 66.7221 333.718 73.1921C311.448 79.6521 259.128 71.9621 239.408 73.1921C219.698 74.4121 222.178 77.2722 215.418 80.5422C208.668 83.8122 203.978 86.8821 198.878 92.8021C193.778 98.7321 186.878 131.012 184.818 116.092C182.748 101.182 186.188 22.1122 186.468 3.31215Z" fill="#0A1B3C"/>
<path fill-rule="evenodd" clip-rule="evenodd" d="M186.468 3.31215C193.918 3.21215 211.008 -3.22785 231.138 2.70215C251.268 8.62215 288.028 31.3122 307.248 38.8622C326.458 46.4122 335.488 48.7422 346.448 48.0022C357.408 47.2522 375.128 30.2022 372.998 34.4022C370.878 38.6022 355.978 66.7221 333.718 73.1921C311.448 79.6521 259.128 71.9621 239.408 73.1921C219.698 74.4121 222.178 77.2722 215.418 80.5422C208.668 83.8122 203.978 86.8821 198.878 92.8021C193.778 98.7321 186.878 131.012 184.818 116.092C182.748 101.182 186.188 22.1122 186.468 3.31215ZM186.468 3.31215C193.918 3.21215 211.008 -3.22785 231.138 2.70215C251.268 8.62215 288.028 31.3122 307.248 38.8622C326.458 46.4122 335.488 48.7422 346.448 48.0022C357.408 47.2522 375.128 30.2022 372.998 34.4022C370.878 38.6022 355.978 66.7221 333.718 73.1921C311.448 79.6521 259.128 71.9621 239.408 73.1921C219.698 74.4121 222.178 77.2722 215.418 80.5422C208.668 83.8122 203.978 86.8821 198.878 92.8021C193.778 98.7321 186.878 131.012 184.818 116.092C182.748 101.182 186.188 22.1122 186.468 3.31215Z" fill="#0A1B3C"/>
</svg>
