<svg width="24" height="24" viewBox="0 0 24 24" fill="none" xmlns="http://www.w3.org/2000/svg">
<g clip-path="url(#clip0_1682_3)">
<path d="M15 18.5V22.5C15 22.683 14.9 22.851 14.741 22.938C14.666 22.979 14.583 23 14.5 23C14.407 23 14.313 22.974 14.231 22.922L9.23101 19.739C9.08701 19.647 9.00001 19.488 9.00001 19.317V13.941L2.87501 7.673C2.60401 7.369 2.40101 7.045 2.25601 6.69C2.15101 6.435 2.27301 6.143 2.52801 6.038C2.78201 5.934 3.07501 6.055 3.18001 6.31C3.28301 6.56 3.42601 6.789 3.60501 6.991L9.85701 13.387C9.94801 13.481 10 13.606 10 13.737V19.043L14 21.589V18.5C14 18.224 14.224 18 14.5 18C14.776 18 15 18.224 15 18.5ZM23.854 23.854C23.756 23.952 23.628 24 23.5 24C23.372 24 23.244 23.951 23.146 23.854L0.146006 0.854C-0.0489941 0.658 -0.0489941 0.342 0.146006 0.146C0.341006 -0.0500004 0.658006 -0.0490004 0.854006 0.146L3.38401 2.677C3.96701 2.246 4.66801 2 5.39801 2H18.602C20.476 2 22 3.524 22 5.398C22 6.231 21.695 7.033 21.142 7.655L14.822 14.115L23.854 23.147C24.049 23.342 24.049 23.659 23.854 23.854ZM4.09801 3.391L14.115 13.408L20.411 6.974C20.785 6.552 21 5.986 21 5.398C21 4.076 19.924 3 18.602 3H5.39801C4.93301 3 4.48401 3.141 4.09801 3.391Z" fill="#001A72"/>
</g>
<defs>
<clipPath id="clip0_1682_3">
<rect width="24" height="24" fill="white"/>
</clipPath>
</defs>
</svg>
