<svg class="svg-icon" style="width: 1em; height: 1em;vertical-align: middle;fill: currentColor;overflow: hidden;" viewBox="0 0 1024 1024" version="1.1" xmlns="http://www.w3.org/2000/svg"><path d="M747.52 593.92c0 11.264-9.216 20.48-20.48 20.48H296.96c-11.264 0-20.48-9.216-20.48-20.48s9.216-20.48 20.48-20.48h430.08c11.264 0 20.48 9.216 20.48 20.48zM296.96 317.44h184.32c11.264 0 20.48-9.216 20.48-20.48s-9.216-20.48-20.48-20.48H296.96c-11.264 0-20.48 9.216-20.48 20.48s9.216 20.48 20.48 20.48z m604.16 199.68c0 141.312-6.144 284.672-18.432 425.984 0 8.192-4.096 16.384-10.24 21.504s-14.336 8.192-23.552 7.168c-6.144 0-10.24-3.072-13.312-4.096-2.048-1.024-3.072-2.048-4.096-3.072l-80.896-70.656c-4.096-4.096-10.24-3.072-14.336 0l-75.776 66.56c-18.432 16.384-47.104 17.408-67.584 0l-74.752-67.584c-4.096-3.072-9.216-3.072-14.336 1.024l-75.776 66.56c-8.192 8.192-20.48 12.288-32.768 12.288s-24.576-4.096-33.792-12.288l-75.776-66.56c-4.096-4.096-10.24-3.072-14.336 0l-79.872 69.632c-12.288 11.264-30.72 10.24-43.008-2.048-2.048-2.048-3.072-3.072-4.096-5.12-1.024-3.072-4.096-8.192-4.096-14.336C129.024 797.696 122.88 654.336 122.88 517.12c0-138.24 5.12-267.264 16.384-393.216 3.072-35.84 31.744-63.488 67.584-64.512C316.416 54.272 415.744 51.2 512 51.2s195.584 3.072 305.152 8.192c35.84 1.024 64.512 29.696 67.584 65.536C896 248.832 901.12 379.904 901.12 517.12z m-40.96 0c0-136.192-5.12-266.24-16.384-388.096-1.024-15.36-13.312-27.648-28.672-28.672C706.56 95.232 607.232 92.16 512 92.16s-194.56 3.072-303.104 8.192c-15.36 1.024-27.648 12.288-28.672 27.648-11.264 124.928-16.384 251.904-16.384 389.12 0 130.048 5.12 265.216 15.36 402.432l64.512-56.32c20.48-17.408 49.152-16.384 68.608 0l75.776 66.56c4.096 3.072 10.24 4.096 13.312 0l75.776-66.56c10.24-8.192 22.528-12.288 34.816-12.288s24.576 4.096 33.792 13.312l73.728 66.56c4.096 3.072 10.24 3.072 13.312 0l75.776-66.56c20.48-17.408 49.152-16.384 68.608 0l65.536 57.344C855.04 787.456 860.16 651.264 860.16 517.12zM727.04 450.56H296.96c-11.264 0-20.48 9.216-20.48 20.48s9.216 20.48 20.48 20.48h430.08c11.264 0 20.48-9.216 20.48-20.48s-9.216-20.48-20.48-20.48z"  /></svg>