<svg width="20" height="24" viewBox="0 0 20 24" fill="none" xmlns="http://www.w3.org/2000/svg">
<path d="M16.0526 14.1274C16.0526 14.4206 15.8158 14.6605 15.5263 14.6605H4.47368C4.18421 14.6605 3.94737 14.4206 3.94737 14.1274C3.94737 13.8342 4.18421 13.5943 4.47368 13.5943H15.5263C15.8158 13.5943 16.0526 13.8342 16.0526 14.1274ZM4.47368 6.93042H9.21053C9.5 6.93042 9.73684 6.69052 9.73684 6.39731C9.73684 6.1041 9.5 5.86421 9.21053 5.86421H4.47368C4.18421 5.86421 3.94737 6.1041 3.94737 6.39731C3.94737 6.69052 4.18421 6.93042 4.47368 6.93042ZM20 12.1282C20 15.8067 19.8421 19.5385 19.5263 23.2169C19.5263 23.4302 19.4211 23.6434 19.2632 23.7767C19.1053 23.91 18.8947 23.9899 18.6579 23.9633C18.5 23.9633 18.3947 23.8833 18.3158 23.8567C18.2632 23.83 18.2368 23.8033 18.2105 23.7767L16.1316 21.9375C16.0263 21.8308 15.8684 21.8575 15.7632 21.9375L13.8158 23.6701C13.3421 24.0966 12.6053 24.1232 12.0789 23.6701L10.1579 21.9108C10.0526 21.8308 9.92105 21.8308 9.78947 21.9375L7.84211 23.6701C7.63158 23.8833 7.31579 23.9899 7 23.9899C6.68421 23.9899 6.36842 23.8833 6.13158 23.6701L4.18421 21.9375C4.07895 21.8308 3.92105 21.8575 3.81579 21.9375L1.76316 23.75C1.44737 24.0432 0.973684 24.0166 0.657895 23.6967C0.605263 23.6434 0.578948 23.6168 0.552632 23.5634C0.526316 23.4835 0.447368 23.3502 0.447368 23.1903C0.157895 19.4318 0 15.7001 0 12.1282C0 8.52975 0.131579 5.17116 0.421053 1.89254C0.5 0.959597 1.23684 0.239899 2.1579 0.213244C4.97368 0.0799664 7.52632 0 10 0C12.4737 0 15.0263 0.0799664 17.8421 0.213244C18.7632 0.239899 19.5 0.986253 19.5789 1.91919C19.8684 5.14451 20 8.55641 20 12.1282ZM18.9474 12.1282C18.9474 8.58306 18.8158 5.19782 18.5263 2.02582C18.5 1.62598 18.1842 1.30612 17.7895 1.27946C15 1.14619 12.4474 1.06622 10 1.06622C7.55263 1.06622 5 1.14619 2.21053 1.27946C1.81579 1.30612 1.5 1.59933 1.47368 1.99916C1.18421 5.25113 1.05263 8.55641 1.05263 12.1282C1.05263 15.5135 1.18421 19.032 1.44737 22.6038L3.10526 21.1378C3.63158 20.6846 4.36842 20.7113 4.86842 21.1378L6.81579 22.8704C6.92105 22.9504 7.07895 22.977 7.15789 22.8704L9.10526 21.1378C9.36842 20.9245 9.68421 20.8179 10 20.8179C10.3158 20.8179 10.6316 20.9245 10.8684 21.1644L12.7632 22.8971C12.8684 22.977 13.0263 22.977 13.1053 22.8971L15.0526 21.1644C15.5789 20.7113 16.3158 20.738 16.8158 21.1644L18.5 22.6572C18.8158 19.1653 18.9474 15.6201 18.9474 12.1282ZM15.5263 10.3956H4.47368C4.18421 10.3956 3.94737 10.6355 3.94737 10.9287C3.94737 11.222 4.18421 11.4619 4.47368 11.4619H15.5263C15.8158 11.4619 16.0526 11.222 16.0526 10.9287C16.0526 10.6355 15.8158 10.3956 15.5263 10.3956Z" fill="white"/>
</svg>
