<svg width="16" height="19" viewBox="0 0 16 19" fill="none" xmlns="http://www.w3.org/2000/svg">
<path d="M12.8421 11.1842C12.8421 11.4163 12.6526 11.6062 12.4211 11.6062H3.57895C3.34737 11.6062 3.15789 11.4163 3.15789 11.1842C3.15789 10.9521 3.34737 10.7621 3.57895 10.7621H12.4211C12.6526 10.7621 12.8421 10.9521 12.8421 11.1842ZM3.57895 5.48659H7.36842C7.6 5.48659 7.78947 5.29666 7.78947 5.06454C7.78947 4.83242 7.6 4.6425 7.36842 4.6425H3.57895C3.34737 4.6425 3.15789 4.83242 3.15789 5.06454C3.15789 5.29666 3.34737 5.48659 3.57895 5.48659ZM16 9.60152C16 12.5136 15.8737 15.4679 15.6211 18.3801C15.6211 18.5489 15.5368 18.7177 15.4105 18.8232C15.2842 18.9287 15.1158 18.992 14.9263 18.9709C14.8 18.9709 14.7158 18.9076 14.6526 18.8865C14.6105 18.8654 14.5895 18.8443 14.5684 18.8232L12.9053 17.3672C12.8211 17.2827 12.6947 17.3038 12.6105 17.3672L11.0526 18.7388C10.6737 19.0764 10.0842 19.0975 9.66316 18.7388L8.12632 17.346C8.0421 17.2827 7.93684 17.2827 7.83158 17.3672L6.27368 18.7388C6.10526 18.9076 5.85263 18.992 5.6 18.992C5.34737 18.992 5.09474 18.9076 4.90526 18.7388L3.34737 17.3672C3.26316 17.2827 3.13684 17.3038 3.05263 17.3672L1.41053 18.8021C1.15789 19.0342 0.778947 19.0131 0.526316 18.7599C0.48421 18.7177 0.463158 18.6966 0.442105 18.6544C0.421053 18.5911 0.357895 18.4856 0.357895 18.359C0.126316 15.3835 0 12.4292 0 9.60152C0 6.75272 0.105263 4.09384 0.336842 1.49826C0.4 0.759681 0.989474 0.18992 1.72632 0.168818C3.97895 0.0633067 6.02105 0 8 0C9.97895 0 12.0211 0.0633067 14.2737 0.168818C15.0105 0.18992 15.6 0.780783 15.6632 1.51936C15.8947 4.07273 16 6.77382 16 9.60152ZM15.1579 9.60152C15.1579 6.79492 15.0526 4.11494 14.8211 1.60377C14.8 1.28724 14.5474 1.03401 14.2316 1.01291C12 0.907397 9.95789 0.84409 8 0.84409C6.04211 0.84409 4 0.907397 1.76842 1.01291C1.45263 1.03401 1.2 1.26614 1.17895 1.58267C0.947368 4.15714 0.842105 6.77382 0.842105 9.60152C0.842105 12.2815 0.947368 15.067 1.15789 17.8947L2.48421 16.7341C2.90526 16.3753 3.49474 16.3964 3.89474 16.7341L5.45263 18.1057C5.53684 18.169 5.66316 18.1901 5.72632 18.1057L7.28421 16.7341C7.49474 16.5653 7.74737 16.4809 8 16.4809C8.25263 16.4809 8.50526 16.5653 8.69474 16.7552L10.2105 18.1268C10.2947 18.1901 10.4211 18.1901 10.4842 18.1268L12.0421 16.7552C12.4632 16.3964 13.0526 16.4176 13.4526 16.7552L14.8 17.9369C15.0526 15.1725 15.1579 12.3659 15.1579 9.60152ZM12.4211 8.22988H3.57895C3.34737 8.22988 3.15789 8.4198 3.15789 8.65192C3.15789 8.88405 3.34737 9.07397 3.57895 9.07397H12.4211C12.6526 9.07397 12.8421 8.88405 12.8421 8.65192C12.8421 8.4198 12.6526 8.22988 12.4211 8.22988Z" fill="#001A72"/>
</svg>
