<svg width="24" height="24" viewBox="0 0 24 24" fill="none" xmlns="http://www.w3.org/2000/svg">
<g opacity="0.15">
<path d="M12.0504 20.9999C12.0336 21 12.0168 21 12 21C11.9832 21 11.9664 21 11.9496 20.9999C11.9666 20.9832 11.9834 20.9664 12 20.9495C12.0166 20.9664 12.0334 20.9832 12.0504 20.9999Z" fill="#001A72"/>
<path fill-rule="evenodd" clip-rule="evenodd" d="M17.9936 18.7141C17.9978 18.6433 18 18.5719 18 18.5C18 16.567 16.433 15 14.5 15H9.5C7.567 15 6 16.567 6 18.5C6 18.5719 6.00217 18.6433 6.00644 18.7141C4.16145 17.0659 3 14.6686 3 12C3 7.02944 7.02944 3 12 3C16.9706 3 21 7.02944 21 12C21 14.6686 19.8385 17.0659 17.9936 18.7141ZM12 12C13.6569 12 15 10.6569 15 9C15 7.34315 13.6569 6 12 6C10.3431 6 9 7.34315 9 9C9 10.6569 10.3431 12 12 12Z" fill="#001A72"/>
</g>
<path d="M18 18.7083C18 17.0886 16.8283 15 15 15H9C7.17172 15 6 17.0886 6 18.7083M3 12C3 7.02944 7.02944 3 12 3C16.9706 3 21 7.02944 21 12C21 16.9706 16.9706 21 12 21C7.02944 21 3 16.9706 3 12ZM15 9C15 10.6569 13.6569 12 12 12C10.3431 12 9 10.6569 9 9C9 7.34315 10.3431 6 12 6C13.6569 6 15 7.34315 15 9Z" stroke="#001A72" stroke-width="1.5"/>
</svg>
