<svg width="250" height="250" viewBox="0 0 250 250" fill="none" xmlns="http://www.w3.org/2000/svg">
<path d="M249.978 125C249.978 127.111 249.924 129.223 249.818 131.331C249.711 133.439 249.551 135.547 249.338 137.649C249.125 139.747 248.859 141.845 248.539 143.929C248.219 146.014 247.846 148.096 247.42 150.164C246.997 152.232 246.518 154.29 245.988 156.332C245.459 158.376 244.879 160.408 244.247 162.423C243.614 164.434 242.931 166.436 242.199 168.414C241.466 170.392 240.683 172.357 239.851 174.295C239.018 176.234 238.136 178.155 237.207 180.05C236.278 181.945 235.299 183.82 234.273 185.665C233.251 187.51 232.179 189.332 231.06 191.123C229.944 192.912 228.782 194.677 227.577 196.409C226.371 198.14 225.119 199.845 223.827 201.514C222.538 203.182 221.2 204.821 219.828 206.423C218.452 208.025 217.034 209.593 215.582 211.122C214.127 212.651 212.631 214.146 211.103 215.601C209.574 217.053 208.006 218.472 206.404 219.847C204.803 221.219 203.164 222.558 201.496 223.847C199.828 225.139 198.123 226.391 196.391 227.597C194.659 228.803 192.894 229.965 191.106 231.08C189.315 232.199 187.493 233.272 185.648 234.294C183.803 235.32 181.929 236.299 180.034 237.228C178.139 238.157 176.218 239.04 174.28 239.873C172.342 240.705 170.377 241.488 168.399 242.22C166.421 242.953 164.419 243.636 162.408 244.269C160.393 244.901 158.362 245.481 156.318 246.01C154.276 246.54 152.218 247.019 150.15 247.442C148.082 247.869 146.001 248.242 143.917 248.561C141.832 248.881 139.734 249.147 137.636 249.361C135.535 249.574 133.427 249.734 131.319 249.84C129.211 249.947 127.1 250 124.989 250C122.881 250 120.766 249.947 118.658 249.84C116.55 249.734 114.443 249.574 112.345 249.361C110.247 249.147 108.149 248.881 106.064 248.561C103.976 248.242 101.895 247.869 99.8305 247.442C97.7626 247.019 95.7046 246.54 93.66 246.01C91.6187 245.481 89.5874 244.901 87.5727 244.269C85.5581 243.636 83.56 242.953 81.5787 242.22C79.6007 241.488 77.6393 240.705 75.6979 239.873C73.7598 239.04 71.8384 238.157 69.9436 237.228C68.0488 236.299 66.1774 235.32 64.3325 234.294C62.4877 233.272 60.6662 232.199 58.8747 231.08C57.0831 229.965 55.3182 228.803 53.5866 227.597C51.855 226.391 50.15 225.139 48.4817 223.847C46.8133 222.558 45.175 221.219 43.5732 219.847C41.9748 218.472 40.4064 217.053 38.8746 215.601C37.3461 214.146 35.8509 212.651 34.399 211.122C32.9438 209.593 31.5286 208.025 30.1533 206.423C28.778 204.821 27.4426 203.182 26.1506 201.514C24.8586 199.845 23.6098 198.14 22.4043 196.409C21.1955 194.677 20.0334 192.912 18.9178 191.123C17.8023 189.332 16.73 187.51 15.7043 185.665C14.682 183.82 13.703 181.945 12.7739 180.05C11.8449 178.155 10.9624 176.234 10.1299 174.295C9.2974 172.357 8.51485 170.392 7.77891 168.414C7.04631 166.436 6.36366 164.434 5.73095 162.423C5.10158 160.408 4.51883 158.376 3.98936 156.332C3.45988 154.29 2.98369 152.232 2.55745 150.164C2.13454 148.096 1.76158 146.014 1.4419 143.929C1.12221 141.845 0.855814 139.747 0.642693 137.649C0.426242 135.547 0.266401 133.439 0.159841 131.331C0.0532802 129.223 0 127.111 0 125C0 122.892 0.0532802 120.777 0.159841 118.669C0.266401 116.561 0.426242 114.453 0.642693 112.355C0.855814 110.257 1.12221 108.159 1.4419 106.074C1.76158 103.986 2.13454 101.904 2.55745 99.8395C2.98369 97.7713 3.45988 95.7132 3.98936 93.6684C4.51883 91.6269 5.10158 89.5954 5.73095 87.5806C6.36366 85.5658 7.04631 83.5676 7.77891 81.586C8.51485 79.6078 9.2974 77.6463 10.1299 75.7047C10.9624 73.7664 11.8449 71.8449 12.7739 69.9499C13.703 68.055 14.682 66.1833 15.7043 64.3383C16.73 62.4933 17.8023 60.6717 18.9178 58.8799C20.0334 57.0882 21.1955 55.3232 22.4043 53.5914C23.6098 51.8596 24.8586 50.1545 26.1506 48.486C27.4426 46.8175 28.778 45.179 30.1533 43.5772C31.5286 41.9786 32.9438 40.41 34.399 38.8781C35.8509 37.3495 37.3461 35.8542 38.8746 34.4021C40.4064 32.9468 41.9748 31.5314 43.5732 30.156C45.175 28.7806 46.8133 27.4451 48.4817 26.1529C50.15 24.8608 51.855 23.6119 53.5866 22.4063C55.3182 21.1974 57.0831 20.0352 58.8747 18.9195C60.6662 17.8039 62.4877 16.7315 64.3325 15.7058C66.1774 14.6833 68.0488 13.7042 69.9436 12.7751C71.8384 11.8459 73.7598 10.9634 75.6979 10.1308C77.6393 9.29823 79.6007 8.51561 81.5787 7.77961C83.56 7.04694 85.5581 6.36422 87.5727 5.73146C89.5874 5.10203 91.6187 4.51923 93.66 3.98971C95.7046 3.46019 97.7626 2.98395 99.8305 2.55767C101.895 2.13472 103.976 1.76173 106.064 1.44202C108.149 1.12231 110.247 0.855883 112.345 0.642743C114.443 0.426273 116.55 0.266417 118.658 0.159847C120.766 0.0532774 122.881 -7.62939e-06 124.989 -7.62939e-06C127.1 -7.62939e-06 129.211 0.0532774 131.319 0.159847C133.427 0.266417 135.535 0.426273 137.636 0.642743C139.734 0.855883 141.832 1.12231 143.917 1.44202C146.001 1.76173 148.082 2.13472 150.15 2.55767C152.218 2.98395 154.276 3.46019 156.318 3.98971C158.362 4.51923 160.393 5.10203 162.408 5.73146C164.419 6.36422 166.421 7.04694 168.399 7.77961C170.377 8.51561 172.342 9.29823 174.28 10.1308C176.218 10.9634 178.139 11.8459 180.034 12.7751C181.929 13.7042 183.803 14.6833 185.648 15.7058C187.493 16.7315 189.315 17.8039 191.106 18.9195C192.894 20.0352 194.659 21.1974 196.391 22.4063C198.123 23.6119 199.828 24.8608 201.496 26.1529C203.164 27.4451 204.803 28.7806 206.404 30.156C208.006 31.5314 209.574 32.9468 211.103 34.4021C212.631 35.8542 214.127 37.3495 215.582 38.8781C217.034 40.41 218.452 41.9786 219.828 43.5772C221.2 45.179 222.538 46.8175 223.827 48.486C225.119 50.1545 226.371 51.8596 227.577 53.5914C228.782 55.3232 229.944 57.0882 231.06 58.8799C232.179 60.6717 233.251 62.4933 234.273 64.3383C235.299 66.1833 236.278 68.055 237.207 69.9499C238.136 71.8449 239.018 73.7664 239.851 75.7047C240.683 77.6463 241.466 79.6078 242.199 81.586C242.931 83.5676 243.614 85.5658 244.247 87.5806C244.879 89.5954 245.459 91.6269 245.988 93.6684C246.518 95.7132 246.997 97.7713 247.42 99.8395C247.846 101.904 248.219 103.986 248.539 106.074C248.859 108.159 249.125 110.257 249.338 112.355C249.551 114.453 249.711 116.561 249.818 118.669C249.924 120.777 249.951 123.944 249.978 125C250.007 126.056 250.007 123.944 249.978 125Z" fill="#F0E9E5"/>
<path d="M249.978 125C249.978 127.111 249.924 129.223 249.818 131.331C249.711 133.439 249.551 135.547 249.338 137.649C249.125 139.747 248.859 141.845 248.539 143.929C248.219 146.014 247.846 148.096 247.42 150.164C246.997 152.232 246.518 154.29 245.988 156.332C245.459 158.376 244.879 160.408 244.247 162.423C243.614 164.434 242.931 166.436 242.199 168.414C241.466 170.392 240.683 172.357 239.851 174.295C239.018 176.234 238.136 178.155 237.207 180.05C236.278 181.945 235.299 183.82 234.273 185.665C233.251 187.51 232.179 189.332 231.06 191.123C229.944 192.912 228.782 194.677 227.577 196.409C226.371 198.14 225.119 199.845 223.827 201.514C222.538 203.182 221.2 204.821 219.828 206.423C218.452 208.025 217.034 209.593 215.582 211.122C214.127 212.651 212.631 214.146 211.103 215.601C209.574 217.053 208.006 218.472 206.404 219.847C204.803 221.219 203.164 222.558 201.496 223.847C199.828 225.139 198.123 226.391 196.391 227.597C194.659 228.803 192.894 229.965 191.106 231.08C189.315 232.199 187.493 233.272 185.648 234.294C183.803 235.32 181.929 236.299 180.034 237.228C178.139 238.157 176.218 239.04 174.28 239.873C172.342 240.705 170.377 241.488 168.399 242.22C166.421 242.953 164.419 243.636 162.408 244.269C160.393 244.901 158.362 245.481 156.318 246.01C154.276 246.54 152.218 247.019 150.15 247.442C148.082 247.869 146.001 248.242 143.917 248.561C141.832 248.881 139.734 249.147 137.636 249.361C135.535 249.574 133.427 249.734 131.319 249.84C129.211 249.947 127.1 250 124.989 250C122.881 250 120.766 249.947 118.658 249.84C116.55 249.734 114.443 249.574 112.345 249.361C110.247 249.147 108.149 248.881 106.064 248.561C103.976 248.242 101.895 247.869 99.8305 247.442C97.7626 247.019 95.7046 246.54 93.66 246.01C91.6187 245.481 89.5874 244.901 87.5727 244.269C85.5581 243.636 83.56 242.953 81.5787 242.22C79.6007 241.488 77.6393 240.705 75.6979 239.873C73.7598 239.04 71.8384 238.157 69.9436 237.228C68.0488 236.299 66.1774 235.32 64.3325 234.294C62.4877 233.272 60.6662 232.199 58.8747 231.08C57.0831 229.965 55.3182 228.803 53.5866 227.597C51.855 226.391 50.15 225.139 48.4817 223.847C46.8133 222.558 45.175 221.219 43.5732 219.847C41.9748 218.472 40.4064 217.053 38.8746 215.601C37.3461 214.146 35.8509 212.651 34.399 211.122C32.9438 209.593 31.5286 208.025 30.1533 206.423C28.778 204.821 27.4426 203.182 26.1506 201.514C24.8586 199.845 23.6098 198.14 22.4043 196.409C21.1955 194.677 20.0334 192.912 18.9178 191.123C17.8023 189.332 16.73 187.51 15.7043 185.665C14.682 183.82 13.703 181.945 12.7739 180.05C11.8449 178.155 10.9624 176.234 10.1299 174.295C9.2974 172.357 8.51485 170.392 7.77891 168.414C7.04631 166.436 6.36366 164.434 5.73095 162.423C5.10158 160.408 4.51883 158.376 3.98936 156.332C3.45988 154.29 2.98369 152.232 2.55745 150.164C2.13454 148.096 1.76158 146.014 1.4419 143.929C1.12221 141.845 0.855814 139.747 0.642693 137.649C0.426242 135.547 0.266401 133.439 0.159841 131.331C0.0532802 129.223 0 127.111 0 125C0 122.892 0.0532802 120.777 0.159841 118.669C0.266401 116.561 0.426242 114.453 0.642693 112.355C0.855814 110.257 1.12221 108.159 1.4419 106.074C1.76158 103.986 2.13454 101.904 2.55745 99.8395C2.98369 97.7713 3.45988 95.7132 3.98936 93.6684C4.51883 91.6269 5.10158 89.5954 5.73095 87.5806C6.36366 85.5658 7.04631 83.5676 7.77891 81.586C8.51485 79.6078 9.2974 77.6463 10.1299 75.7047C10.9624 73.7664 11.8449 71.8449 12.7739 69.9499C13.703 68.055 14.682 66.1833 15.7043 64.3383C16.73 62.4933 17.8023 60.6717 18.9178 58.8799C20.0334 57.0882 21.1955 55.3232 22.4043 53.5914C23.6098 51.8596 24.8586 50.1545 26.1506 48.486C27.4426 46.8175 28.778 45.179 30.1533 43.5772C31.5286 41.9786 32.9438 40.41 34.399 38.8781C35.8509 37.3495 37.3461 35.8542 38.8746 34.4021C40.4064 32.9468 41.9748 31.5314 43.5732 30.156C45.175 28.7806 46.8133 27.4451 48.4817 26.1529C50.15 24.8608 51.855 23.6119 53.5866 22.4063C55.3182 21.1974 57.0831 20.0352 58.8747 18.9195C60.6662 17.8039 62.4877 16.7315 64.3325 15.7058C66.1774 14.6833 68.0488 13.7042 69.9436 12.7751C71.8384 11.8459 73.7598 10.9634 75.6979 10.1308C77.6393 9.29823 79.6007 8.51561 81.5787 7.77961C83.56 7.04694 85.5581 6.36422 87.5727 5.73146C89.5874 5.10203 91.6187 4.51923 93.66 3.98971C95.7046 3.46019 97.7626 2.98395 99.8305 2.55767C101.895 2.13472 103.976 1.76173 106.064 1.44202C108.149 1.12231 110.247 0.855883 112.345 0.642743C114.443 0.426273 116.55 0.266417 118.658 0.159847C120.766 0.0532774 122.881 -7.62939e-06 124.989 -7.62939e-06C127.1 -7.62939e-06 129.211 0.0532774 131.319 0.159847C133.427 0.266417 135.535 0.426273 137.636 0.642743C139.734 0.855883 141.832 1.12231 143.917 1.44202C146.001 1.76173 148.082 2.13472 150.15 2.55767C152.218 2.98395 154.276 3.46019 156.318 3.98971C158.362 4.51923 160.393 5.10203 162.408 5.73146C164.419 6.36422 166.421 7.04694 168.399 7.77961C170.377 8.51561 172.342 9.29823 174.28 10.1308C176.218 10.9634 178.139 11.8459 180.034 12.7751C181.929 13.7042 183.803 14.6833 185.648 15.7058C187.493 16.7315 189.315 17.8039 191.106 18.9195C192.894 20.0352 194.659 21.1974 196.391 22.4063C198.123 23.6119 199.828 24.8608 201.496 26.1529C203.164 27.4451 204.803 28.7806 206.404 30.156C208.006 31.5314 209.574 32.9468 211.103 34.4021C212.631 35.8542 214.127 37.3495 215.582 38.8781C217.034 40.41 218.452 41.9786 219.828 43.5772C221.2 45.179 222.538 46.8175 223.827 48.486C225.119 50.1545 226.371 51.8596 227.577 53.5914C228.782 55.3232 229.944 57.0882 231.06 58.8799C232.179 60.6717 233.251 62.4933 234.273 64.3383C235.299 66.1833 236.278 68.055 237.207 69.9499C238.136 71.8449 239.018 73.7664 239.851 75.7047C240.683 77.6463 241.466 79.6078 242.199 81.586C242.931 83.5676 243.614 85.5658 244.247 87.5806C244.879 89.5954 245.459 91.6269 245.988 93.6684C246.518 95.7132 246.997 97.7713 247.42 99.8395C247.846 101.904 248.219 103.986 248.539 106.074C248.859 108.159 249.125 110.257 249.338 112.355C249.551 114.453 249.711 116.561 249.818 118.669C249.924 120.777 249.951 123.944 249.978 125C250.007 126.056 250.007 123.944 249.978 125Z" fill="#F0E9E5"/>
<path fill-rule="evenodd" clip-rule="evenodd" d="M117.765 212.135C117.948 212.111 118.38 211.621 118.859 211.988C119.342 212.354 120.287 213.039 120.649 214.334C121.011 215.632 121.029 218.24 121.029 219.766C121.029 221.295 121.11 224.541 120.656 223.505C120.206 222.466 118.713 215.206 118.321 213.544" fill="#3E4F8A"/>
<path fill-rule="evenodd" clip-rule="evenodd" d="M117.765 212.135C117.948 212.111 118.38 211.621 118.859 211.988C119.342 212.354 120.287 213.039 120.649 214.334C121.011 215.632 121.029 218.24 121.029 219.766C121.029 221.295 121.11 224.541 120.656 223.505C120.206 222.466 118.713 215.206 118.321 213.544M117.765 212.135C117.948 212.111 118.38 211.621 118.859 211.988C119.342 212.354 120.287 213.039 120.649 214.334C121.011 215.632 121.029 218.24 121.029 219.766C121.029 221.295 121.11 224.541 120.656 223.505C120.206 222.466 118.713 215.206 118.321 213.544" fill="#3E4F8A"/>
<path fill-rule="evenodd" clip-rule="evenodd" d="M149.725 110.594C148.76 110.567 140.515 112.867 143.932 110.435C147.354 108.003 164.036 99.7435 170.246 95.9961C176.451 92.2486 178.495 90.2352 181.172 87.9464C183.85 85.6615 184.618 84.8042 186.319 82.2671C188.019 79.73 190.468 75.7653 191.367 72.7161C192.267 69.6709 192.042 66.4122 191.711 63.9876C191.376 61.563 189.27 58.0445 189.368 58.1647C189.462 58.2889 191.989 61.2915 192.287 64.7131C192.59 68.1346 193.236 74.1127 191.163 78.6942C189.095 83.2757 186.765 86.8874 179.856 92.2059C172.952 97.5206 154.749 107.529 149.725 110.594Z" fill="#3E4F8A"/>
<path fill-rule="evenodd" clip-rule="evenodd" d="M149.725 110.594C148.76 110.567 140.515 112.867 143.932 110.435C147.354 108.003 164.036 99.7435 170.246 95.9961C176.451 92.2486 178.495 90.2352 181.172 87.9464C183.85 85.6615 184.618 84.8042 186.319 82.2671C188.019 79.73 190.468 75.7653 191.367 72.7161C192.267 69.6709 192.042 66.4122 191.711 63.9876C191.376 61.563 189.27 58.0445 189.368 58.1647C189.462 58.2889 191.989 61.2915 192.287 64.7131C192.59 68.1346 193.236 74.1127 191.163 78.6942C189.095 83.2757 186.765 86.8874 179.856 92.2059C172.952 97.5206 154.749 107.529 149.725 110.594ZM149.725 110.594C148.76 110.567 140.515 112.867 143.932 110.435C147.354 108.003 164.036 99.7435 170.246 95.9961C176.451 92.2486 178.495 90.2352 181.172 87.9464C183.85 85.6615 184.618 84.8042 186.319 82.2671C188.019 79.73 190.468 75.7653 191.367 72.7161C192.267 69.6709 192.042 66.4122 191.711 63.9876C191.376 61.563 189.27 58.0445 189.368 58.1647C189.462 58.2889 191.989 61.2915 192.287 64.7131C192.59 68.1346 193.236 74.1127 191.163 78.6942C189.095 83.2757 186.765 86.8874 179.856 92.2059C172.952 97.5206 154.749 107.529 149.725 110.594Z" fill="#3E4F8A"/>
<path fill-rule="evenodd" clip-rule="evenodd" d="M141.974 214.041C135.868 213.247 114.693 211.551 105.341 209.267C95.9901 206.98 91.163 204.266 85.8692 200.333C80.5719 196.404 77.0059 192.848 73.5718 185.684C70.1376 178.52 67.5263 165.731 65.2642 157.356C63.0021 148.977 61.6875 144.31 60.0025 135.426C58.3175 126.544 56.1586 112.035 55.1576 104.066C54.1601 96.0928 54.0426 92.9722 54.0034 87.6036C53.9606 82.235 54.3276 76.0934 54.9118 71.8612C55.4925 67.6291 57.149 62.6987 57.491 62.2106C57.833 61.7226 56.7607 66.5319 56.9637 68.9401C57.1632 71.3483 56.8889 73.0582 58.6951 76.6563C60.5012 80.2579 63.401 86.4957 67.8006 90.539C72.2002 94.5824 77.3622 97.9168 85.0855 100.927C92.8124 103.937 102.94 106.691 114.148 108.597C125.355 110.503 142.986 111.882 152.33 112.359C161.674 112.836 166.483 110.221 170.213 111.465C173.947 112.704 172.739 116.623 174.72 119.808C176.7 122.993 180.733 128.034 182.094 130.57C183.455 133.106 183.48 131.279 182.885 135.027C182.293 138.774 181.242 143.459 178.531 153.06C175.82 162.664 169.048 184.911 166.619 192.649C164.189 200.383 165.162 197.729 163.947 199.478C162.729 201.227 161.478 201.697 159.316 203.14C157.153 204.586 153.855 206.336 150.965 208.152C148.073 209.969 143.474 213.061 141.974 214.041Z" fill="#E0D9D4"/>
<path fill-rule="evenodd" clip-rule="evenodd" d="M141.974 214.041C135.868 213.247 114.693 211.551 105.341 209.267C95.9901 206.98 91.163 204.266 85.8692 200.333C80.5719 196.404 77.0059 192.848 73.5718 185.684C70.1376 178.52 67.5263 165.731 65.2642 157.356C63.0021 148.977 61.6875 144.31 60.0025 135.426C58.3175 126.544 56.1586 112.035 55.1576 104.066C54.1601 96.0928 54.0426 92.9722 54.0034 87.6036C53.9606 82.235 54.3276 76.0934 54.9118 71.8612C55.4925 67.6291 57.149 62.6987 57.491 62.2106C57.833 61.7226 56.7607 66.5319 56.9637 68.9401C57.1632 71.3483 56.8889 73.0582 58.6951 76.6563C60.5012 80.2579 63.401 86.4957 67.8006 90.539C72.2002 94.5824 77.3622 97.9168 85.0855 100.927C92.8124 103.937 102.94 106.691 114.148 108.597C125.355 110.503 142.986 111.882 152.33 112.359C161.674 112.836 166.483 110.221 170.213 111.465C173.947 112.704 172.739 116.623 174.72 119.808C176.7 122.993 180.733 128.034 182.094 130.57C183.455 133.106 183.48 131.279 182.885 135.027C182.293 138.774 181.242 143.459 178.531 153.06C175.82 162.664 169.048 184.911 166.619 192.649C164.189 200.383 165.162 197.729 163.947 199.478C162.729 201.227 161.478 201.697 159.316 203.14C157.153 204.586 153.855 206.336 150.965 208.152C148.073 209.969 143.474 213.061 141.974 214.041ZM141.974 214.041C135.868 213.247 114.693 211.551 105.341 209.267C95.9901 206.98 91.163 204.266 85.8692 200.333C80.5719 196.404 77.0059 192.848 73.5718 185.684C70.1376 178.52 67.5263 165.731 65.2642 157.356C63.0021 148.977 61.6875 144.31 60.0025 135.426C58.3175 126.544 56.1586 112.035 55.1576 104.066C54.1601 96.0928 54.0426 92.9722 54.0034 87.6036C53.9606 82.235 54.3276 76.0934 54.9118 71.8612C55.4925 67.6291 57.149 62.6987 57.491 62.2106C57.833 61.7226 56.7607 66.5319 56.9637 68.9401C57.1632 71.3483 56.8889 73.0582 58.6951 76.6563C60.5012 80.2579 63.401 86.4957 67.8006 90.539C72.2002 94.5824 77.3622 97.9168 85.0855 100.927C92.8124 103.937 102.94 106.691 114.148 108.597C125.355 110.503 142.986 111.882 152.33 112.359C161.674 112.836 166.483 110.221 170.213 111.465C173.947 112.704 172.739 116.623 174.72 119.808C176.7 122.993 180.733 128.034 182.094 130.57C183.455 133.106 183.48 131.279 182.885 135.027C182.293 138.774 181.242 143.459 178.531 153.06C175.82 162.664 169.048 184.911 166.619 192.649C164.189 200.383 165.162 197.729 163.947 199.478C162.729 201.227 161.478 201.697 159.316 203.14C157.153 204.586 153.855 206.336 150.965 208.152C148.073 209.969 143.474 213.061 141.974 214.041Z" fill="#E0D9D4"/>
<path d="M140.752 214.259L140.939 214.286L141.097 214.182C141.523 213.904 142.192 213.461 142.998 212.926C145.055 211.56 148.006 209.602 150.081 208.299L150.082 208.298C151.407 207.465 152.82 206.646 154.177 205.858C154.29 205.793 154.402 205.727 154.514 205.662C155.967 204.819 157.347 204.012 158.443 203.279C158.924 202.958 159.367 202.682 159.781 202.425C161.163 201.566 162.215 200.911 163.207 199.486L163.208 199.486C163.476 199.1 163.621 198.955 163.724 198.852L163.739 198.836C163.799 198.776 163.875 198.7 163.948 198.593C164.021 198.487 164.08 198.367 164.14 198.219C164.283 197.867 164.49 197.2 164.939 195.752C165.189 194.945 165.514 193.895 165.946 192.521L165.469 192.371L165.946 192.521C168.376 184.782 175.15 162.529 177.863 152.918C180.575 143.312 181.633 138.605 182.229 134.828C182.292 134.428 182.348 134.087 182.397 133.797C182.459 133.419 182.508 133.127 182.539 132.901C182.592 132.514 182.618 132.204 182.519 131.916C182.47 131.77 182.397 131.653 182.326 131.553C182.291 131.503 182.241 131.438 182.192 131.373C182.159 131.33 182.126 131.286 182.097 131.247C181.932 131.023 181.7 130.682 181.391 130.068C180.085 127.472 176.57 121.91 174.395 119.056C173.873 118.372 173.477 117.728 173.112 117.118C173.069 117.046 173.027 116.975 172.985 116.903C172.67 116.375 172.363 115.859 172.013 115.386C171.192 114.276 170.139 113.403 168.132 112.813C166.144 112.228 164.164 112.26 161.599 112.333C161.472 112.336 161.342 112.34 161.212 112.344C158.7 112.416 155.568 112.507 151.22 112.157C149.504 112.019 147.485 111.869 145.263 111.705C135.533 110.987 121.917 109.981 112.819 108.358C101.651 106.363 91.774 103.27 84.1227 100.186C76.4895 97.1059 71.3683 93.8292 66.985 89.8898C62.6167 85.964 59.4121 80.8496 57.8177 76.5747L57.8177 76.5746C57.0345 74.4763 56.8444 72.1848 56.895 70.0245C56.9801 70.5712 57.0934 71.1207 57.2405 71.6675C58.0266 74.5887 60.2121 78.5989 61.6009 80.8554C62.2973 81.9868 62.7334 82.6221 63.3044 83.2353C63.7757 83.7415 64.3373 84.2297 65.1983 84.9782C65.3579 85.117 65.5278 85.2646 65.7093 85.423C68.0571 87.4787 72.7855 91.4103 75.8649 93.3394L75.8651 93.3396C78.1685 94.7808 79.6257 95.3045 81.6942 96.0478C82.4091 96.3048 83.1971 96.5879 84.1182 96.9443C84.9407 97.2633 85.772 97.6031 86.6402 97.958C89.5812 99.16 92.9457 100.535 97.8261 101.862L97.8263 101.863C104.121 103.572 114.705 106.049 121.927 107.217L121.928 107.217C129.159 108.384 134.948 108.659 141.143 108.855C147.346 109.055 154.891 108.805 159.167 108.408C160.237 108.308 160.906 108.215 161.396 108.108C161.899 107.997 162.205 107.874 162.538 107.73C162.566 107.719 162.593 107.707 162.622 107.694C163.226 107.434 164.077 107.067 166.801 106.471L166.801 106.471C168.261 106.151 170.43 105.541 172.907 104.836C173.133 104.772 173.361 104.707 173.592 104.641C175.901 103.983 178.447 103.258 180.951 102.604C183.706 101.885 186.395 101.256 188.646 100.9C189.771 100.723 190.776 100.615 191.619 100.597C192.471 100.578 193.114 100.653 193.539 100.809C194.283 101.082 194.859 101.14 195.271 101.137C194.654 102.451 193.074 105.914 190.854 114.919C186.176 133.872 170.34 196.109 165.174 213.92C163.881 218.378 163.036 221.02 162.464 222.498C162.282 222.967 162.134 223.302 162.015 223.535C161.995 223.463 161.973 223.381 161.949 223.293C161.897 223.095 161.837 222.871 161.777 222.682C161.681 222.378 161.54 222.007 161.305 221.751C161.178 221.613 161.004 221.485 160.775 221.437C160.544 221.388 160.318 221.434 160.114 221.532L160.114 221.532C159.861 221.655 159.705 221.72 159.601 221.75C159.566 221.761 159.543 221.765 159.529 221.767C159.518 221.759 159.498 221.744 159.469 221.719C159.454 221.706 159.429 221.683 159.399 221.656C159.326 221.59 159.22 221.494 159.121 221.412C158.446 220.857 157.119 220.094 153.449 219.511L153.449 219.511C150.38 219.026 145.066 218.368 139.25 217.647C138.17 217.513 137.072 217.377 135.968 217.239C128.911 216.36 121.598 215.422 116.895 214.607C115.322 214.334 113.889 214.097 112.565 213.878C105.914 212.777 102.014 212.131 96.9813 209.749C90.9424 206.887 84.4016 201.569 80.5075 197.388L80.5074 197.388C78.5932 195.335 76.7175 192.134 75.3973 189.446C75.1179 188.877 74.8648 188.334 74.6427 187.833C75.1948 188.698 75.8489 189.719 76.5748 190.8C78.5814 193.786 81.191 197.302 83.8472 199.317L83.8474 199.318C89.0611 203.269 94.5491 206.41 104.065 208.904L104.065 208.904C108.823 210.15 116.487 211.266 123.697 212.181C127.121 212.616 130.44 213.005 133.311 213.341C136.506 213.715 139.145 214.024 140.752 214.259Z" fill="#727075" stroke="#727075"/>
<path fill-rule="evenodd" clip-rule="evenodd" d="M140.824 213.764C134.718 212.873 113.636 210.892 104.192 208.42C94.744 205.944 89.3149 202.834 84.1494 198.919C78.9839 195 73.8718 185.111 73.202 184.912C72.5359 184.716 76.2123 193.515 80.1416 197.729C84.0674 201.944 90.6579 207.305 96.7675 210.201C102.881 213.094 107.376 213.465 116.81 215.1C126.243 216.735 146.114 218.858 153.371 220.005C160.624 221.156 158.283 222.976 160.332 221.982C162.38 220.992 160.485 231.886 165.654 214.059C170.823 196.237 186.662 133.99 191.339 115.038C196.013 96.0827 197.819 101.85 193.712 100.34C189.604 98.8293 172.458 104.718 166.694 105.983C160.927 107.244 163.378 107.515 159.121 107.91C154.867 108.305 147.343 108.555 141.159 108.355C134.971 108.159 129.207 107.885 122.007 106.724C114.808 105.559 104.241 103.086 97.9573 101.38C91.6696 99.6701 87.9362 97.8888 84.299 96.4781C80.6618 95.071 79.1762 94.8216 76.1304 92.9157C73.088 91.0098 68.3857 87.1018 66.038 85.0463C63.6868 82.9944 63.4125 82.8447 62.0267 80.5933C60.6409 78.3418 58.4892 74.384 57.7233 71.5376C56.9574 68.6912 57.1355 65.7487 57.4276 63.5222C57.7162 61.2956 59.5508 58.0645 59.4689 58.175C59.3834 58.289 57.2745 61.0926 56.9218 64.1883C56.5691 67.2841 55.7284 72.4068 57.3493 76.7494C58.9702 81.0956 62.2191 86.2789 66.6508 90.2617C71.0824 94.2445 76.255 97.5504 83.9356 100.65C91.6162 103.745 101.527 106.848 112.731 108.85C123.938 110.849 141.971 111.914 151.18 112.655C160.389 113.396 164.19 112.174 167.991 113.293C171.796 114.411 171.838 116.527 173.997 119.36C176.156 122.192 179.654 127.728 180.944 130.293C182.234 132.858 182.33 131.002 181.735 134.749C181.143 138.497 180.093 143.181 177.382 152.782C174.671 162.387 167.898 184.634 165.469 192.371C163.039 200.105 164.012 197.451 162.797 199.201C161.579 200.95 160.328 201.42 158.166 202.863C156.003 204.309 152.705 206.058 149.816 207.875C146.923 209.692 142.324 212.784 140.824 213.764ZM140.824 213.764C134.718 212.873 113.636 210.892 104.192 208.42C94.744 205.944 89.3149 202.834 84.1494 198.919C78.9839 195 73.8718 185.111 73.202 184.912C72.5359 184.716 76.2123 193.515 80.1416 197.729C84.0674 201.944 90.6579 207.305 96.7675 210.201C102.881 213.094 107.376 213.465 116.81 215.1C126.243 216.735 146.114 218.858 153.371 220.005C160.624 221.156 158.283 222.976 160.332 221.982C162.38 220.992 160.485 231.886 165.654 214.059C170.823 196.237 186.662 133.99 191.339 115.038C196.013 96.0827 197.819 101.85 193.712 100.34C189.604 98.8293 172.458 104.718 166.694 105.983C160.927 107.244 163.378 107.515 159.121 107.91C154.867 108.305 147.343 108.555 141.159 108.355C134.971 108.159 129.207 107.885 122.007 106.724C114.808 105.559 104.241 103.086 97.9573 101.38C91.6696 99.6701 87.9362 97.8888 84.299 96.4781C80.6618 95.071 79.1762 94.8216 76.1304 92.9157C73.088 91.0098 68.3857 87.1018 66.038 85.0463C63.6868 82.9944 63.4125 82.8447 62.0267 80.5933C60.6409 78.3418 58.4892 74.384 57.7233 71.5376C56.9574 68.6912 57.1355 65.7487 57.4276 63.5222C57.7162 61.2956 59.5508 58.0645 59.4689 58.175C59.3834 58.289 57.2745 61.0926 56.9218 64.1883C56.5691 67.2841 55.7284 72.4068 57.3493 76.7494C58.9702 81.0956 62.2191 86.2789 66.6508 90.2617C71.0824 94.2445 76.255 97.5504 83.9356 100.65C91.6162 103.745 101.527 106.848 112.731 108.85C123.938 110.849 141.971 111.914 151.18 112.655C160.389 113.396 164.19 112.174 167.991 113.293C171.796 114.411 171.838 116.527 173.997 119.36C176.156 122.192 179.654 127.728 180.944 130.293C182.234 132.858 182.33 131.002 181.735 134.749C181.143 138.497 180.093 143.181 177.382 152.782C174.671 162.387 167.898 184.634 165.469 192.371C163.039 200.105 164.012 197.451 162.797 199.201C161.579 200.95 160.328 201.42 158.166 202.863C156.003 204.309 152.705 206.058 149.816 207.875C146.923 209.692 142.324 212.784 140.824 213.764Z" fill="#727075"/>
<path d="M140.824 213.764C134.718 212.873 113.636 210.892 104.192 208.42C94.744 205.944 89.3149 202.834 84.1494 198.919C78.9839 195 73.8718 185.111 73.202 184.912C72.5359 184.716 76.2123 193.515 80.1416 197.729C84.0674 201.944 90.6579 207.305 96.7675 210.201C102.881 213.094 107.376 213.465 116.81 215.1C126.243 216.735 146.114 218.858 153.371 220.005C160.624 221.156 158.283 222.976 160.332 221.982C162.38 220.992 160.485 231.886 165.654 214.059C170.823 196.237 186.662 133.99 191.339 115.038C196.013 96.0827 197.819 101.85 193.712 100.34C189.604 98.8293 172.458 104.718 166.694 105.983C160.927 107.244 163.378 107.515 159.121 107.91C154.867 108.305 147.343 108.555 141.159 108.355C134.971 108.159 129.207 107.885 122.007 106.724C114.808 105.559 104.241 103.086 97.9573 101.38C91.6696 99.6701 87.9362 97.8888 84.299 96.4781C80.6618 95.071 79.1762 94.8216 76.1304 92.9157C73.088 91.0098 68.3857 87.1018 66.038 85.0463C63.6868 82.9944 63.4125 82.8447 62.0267 80.5933C60.6409 78.3418 58.4892 74.384 57.7233 71.5376C56.9574 68.6912 57.1355 65.7487 57.4276 63.5222C57.7162 61.2956 59.5508 58.0645 59.4689 58.175C59.3834 58.289 57.2745 61.0926 56.9218 64.1883C56.5691 67.2841 55.7284 72.4068 57.3493 76.7494C58.9702 81.0956 62.2191 86.2789 66.6508 90.2617C71.0824 94.2445 76.255 97.5504 83.9356 100.65C91.6162 103.745 101.527 106.848 112.731 108.85C123.938 110.849 141.971 111.914 151.18 112.655C160.389 113.396 164.19 112.174 167.991 113.293C171.796 114.411 171.838 116.527 173.997 119.36C176.156 122.192 179.654 127.728 180.944 130.293C182.234 132.858 182.33 131.002 181.735 134.749C181.143 138.497 180.093 143.181 177.382 152.782C174.671 162.387 167.898 184.634 165.469 192.371C163.039 200.105 164.012 197.451 162.797 199.201C161.579 200.95 160.328 201.42 158.166 202.863C156.003 204.309 152.705 206.058 149.816 207.875C146.923 209.692 142.324 212.784 140.824 213.764Z" stroke="#727075" stroke-linecap="round"/>
<path d="M127.398 77.9939C127.825 79.1054 128.249 80.2204 129.307 82.9813C130.376 85.475 130.376 85.475 129.307 87.9687C128.833 89.1015 128.356 90.2344 127.398 92.5215C126.329 95.0152 126.329 95.0152 125.26 92.5215C124.768 91.4741 124.277 90.4268 123.123 87.9687C122.054 85.475 122.054 85.475 123.123 82.9813C123.668 81.7095 124.213 80.4413 125.26 77.9939C126.329 75.5002 126.329 75.5002 127.398 77.9939Z" fill="#3E4F8A"/>
<path d="M127.398 77.9939C127.946 79.4224 128.491 80.8545 129.307 82.9813ZM127.398 77.9939C127.992 79.5507 128.591 81.1075 129.307 82.9813ZM129.307 82.9813C130.376 85.475 130.376 85.475 129.307 87.9687ZM129.307 82.9813C130.376 85.475 130.376 85.475 129.307 87.9687ZM129.307 87.9687C128.904 88.9305 128.498 89.896 127.398 92.5215ZM129.307 87.9687C128.598 89.6573 127.889 91.3494 127.398 92.5215ZM127.398 92.5215C126.329 95.0152 126.329 95.0152 125.26 92.5215ZM127.398 92.5215C126.329 95.0152 126.329 95.0152 125.26 92.5215ZM125.26 92.5215C124.498 90.897 123.735 89.2725 123.123 87.9687ZM125.26 92.5215C124.469 90.8329 123.675 89.1479 123.123 87.9687ZM123.123 87.9687C122.054 85.475 122.054 85.475 123.123 82.9813ZM123.123 87.9687C122.054 85.475 122.054 85.475 123.123 82.9813ZM123.123 82.9813C123.675 81.6953 124.223 80.4092 125.26 77.9939ZM123.123 82.9813C123.582 81.9126 124.038 80.8403 125.26 77.9939ZM125.26 77.9939C126.329 75.5002 126.329 75.5002 127.398 77.9939ZM125.26 77.9939C126.329 75.5002 126.329 75.5002 127.398 77.9939Z" fill="#3E4F8A"/>
<path d="M113.809 68.4899C113.809 68.9423 113.769 69.4054 113.691 69.8543C113.613 70.3031 113.492 70.7484 113.335 71.1759C113.182 71.6034 112.986 72.0238 112.758 72.4192C112.53 72.8147 112.262 73.1923 111.97 73.5414C111.678 73.8905 111.35 74.2182 111.001 74.5104C110.652 74.8025 110.275 75.0697 109.879 75.2977C109.484 75.5257 109.063 75.7216 108.636 75.8748C108.208 76.0315 107.763 76.1526 107.314 76.231C106.865 76.3094 106.402 76.3486 105.95 76.3486C105.494 76.3486 105.031 76.3094 104.582 76.231C104.137 76.1526 103.688 76.0315 103.26 75.8748C102.833 75.7216 102.412 75.5257 102.017 75.2977C101.625 75.0697 101.244 74.8025 100.895 74.5104C100.546 74.2182 100.218 73.8905 99.9258 73.5414C99.6337 73.1923 99.3665 72.8147 99.1421 72.4192C98.9141 72.0238 98.7181 71.6034 98.5614 71.1759C98.4047 70.7484 98.2871 70.3031 98.2087 69.8543C98.1268 69.4054 98.0876 68.9423 98.0876 68.4899C98.0876 68.0339 98.1268 67.5708 98.2087 67.1219C98.2871 66.6766 98.4047 66.2277 98.5614 65.8002C98.7181 65.3728 98.9141 64.9524 99.1421 64.557C99.3665 64.1651 99.6337 63.7839 99.9258 63.4348C100.218 63.0857 100.546 62.7579 100.895 62.4658C101.244 62.1737 101.625 61.9065 102.017 61.6821C102.412 61.4541 102.833 61.2582 103.26 61.1014C103.688 60.9447 104.137 60.8271 104.582 60.7487C105.031 60.6668 105.494 60.6276 105.95 60.6276C106.402 60.6276 106.865 60.6668 107.314 60.7487C107.763 60.8271 108.208 60.9447 108.636 61.1014C109.063 61.2582 109.484 61.4541 109.879 61.6821C110.275 61.9065 110.652 62.1737 111.001 62.4658C111.35 62.7579 111.678 63.0857 111.97 63.4348C112.262 63.7839 112.53 64.1651 112.758 64.557C112.986 64.9524 113.182 65.3728 113.335 65.8002C113.492 66.2277 113.613 66.6766 113.691 67.1219C113.769 67.5708 113.791 68.2619 113.809 68.4899C113.83 68.7179 113.83 68.2619 113.809 68.4899Z" fill="#0C0E10"/>
<path d="M113.809 68.4899C113.809 68.9423 113.769 69.4054 113.691 69.8543C113.613 70.3031 113.492 70.7484 113.335 71.1759C113.182 71.6034 112.986 72.0238 112.758 72.4192C112.53 72.8147 112.262 73.1923 111.97 73.5414C111.678 73.8905 111.35 74.2182 111.001 74.5104C110.652 74.8025 110.275 75.0697 109.879 75.2977C109.484 75.5257 109.063 75.7216 108.636 75.8748C108.208 76.0315 107.763 76.1526 107.314 76.231C106.865 76.3094 106.402 76.3486 105.95 76.3486C105.494 76.3486 105.031 76.3094 104.582 76.231C104.137 76.1526 103.688 76.0315 103.26 75.8748C102.833 75.7216 102.412 75.5257 102.017 75.2977C101.625 75.0697 101.244 74.8025 100.895 74.5104C100.546 74.2182 100.218 73.8905 99.9258 73.5414C99.6337 73.1923 99.3665 72.8147 99.1421 72.4192C98.9141 72.0238 98.7181 71.6034 98.5614 71.1759C98.4047 70.7484 98.2871 70.3031 98.2087 69.8543C98.1268 69.4054 98.0876 68.9423 98.0876 68.4899C98.0876 68.0339 98.1268 67.5708 98.2087 67.1219C98.2871 66.6766 98.4047 66.2277 98.5614 65.8002C98.7181 65.3728 98.9141 64.9524 99.1421 64.557C99.3665 64.1651 99.6337 63.7839 99.9258 63.4348C100.218 63.0857 100.546 62.7579 100.895 62.4658C101.244 62.1737 101.625 61.9065 102.017 61.6821C102.412 61.4541 102.833 61.2582 103.26 61.1014C103.688 60.9447 104.137 60.8271 104.582 60.7487C105.031 60.6668 105.494 60.6276 105.95 60.6276C106.402 60.6276 106.865 60.6668 107.314 60.7487C107.763 60.8271 108.208 60.9447 108.636 61.1014C109.063 61.2582 109.484 61.4541 109.879 61.6821C110.275 61.9065 110.652 62.1737 111.001 62.4658C111.35 62.7579 111.678 63.0857 111.97 63.4348C112.262 63.7839 112.53 64.1651 112.758 64.557C112.986 64.9524 113.182 65.3728 113.335 65.8002C113.492 66.2277 113.613 66.6766 113.691 67.1219C113.769 67.5708 113.791 68.2619 113.809 68.4899C113.83 68.7179 113.83 68.2619 113.809 68.4899Z" fill="#0C0E10"/>
<path d="M155.952 68.2715C155.952 68.7239 155.913 69.1871 155.835 69.6359C155.756 70.0848 155.635 70.5301 155.479 70.9576C155.325 71.3851 155.129 71.8054 154.902 72.2009C154.674 72.5963 154.406 72.9739 154.114 73.323C153.822 73.6721 153.494 73.9999 153.145 74.292C152.796 74.5841 152.418 74.8513 152.023 75.0793C151.628 75.3073 151.207 75.5032 150.78 75.6564C150.352 75.8132 149.907 75.9343 149.458 76.0127C149.009 76.091 148.546 76.1302 148.094 76.1302C147.638 76.1302 147.175 76.091 146.726 76.0127C146.28 75.9343 145.832 75.8132 145.404 75.6564C144.977 75.5032 144.556 75.3073 144.161 75.0793C143.769 74.8513 143.388 74.5841 143.039 74.292C142.69 73.9999 142.362 73.6721 142.07 73.323C141.778 72.9739 141.51 72.5963 141.286 72.2009C141.058 71.8054 140.862 71.3851 140.705 70.9576C140.549 70.5301 140.431 70.0848 140.353 69.6359C140.271 69.1871 140.231 68.7239 140.231 68.2715C140.231 67.8155 140.271 67.3524 140.353 66.9035C140.431 66.4582 140.549 66.0094 140.705 65.5819C140.862 65.1544 141.058 64.734 141.286 64.3386C141.51 63.9467 141.778 63.5656 142.07 63.2164C142.362 62.8673 142.69 62.5396 143.039 62.2475C143.388 61.9553 143.769 61.6882 144.161 61.4637C144.556 61.2357 144.977 61.0398 145.404 60.8831C145.832 60.7263 146.28 60.6087 146.726 60.5304C147.175 60.4484 147.638 60.4092 148.094 60.4092C148.546 60.4092 149.009 60.4484 149.458 60.5304C149.907 60.6087 150.352 60.7263 150.78 60.8831C151.207 61.0398 151.628 61.2357 152.023 61.4637C152.418 61.6882 152.796 61.9553 153.145 62.2475C153.494 62.5396 153.822 62.8673 154.114 63.2164C154.406 63.5656 154.674 63.9467 154.902 64.3386C155.129 64.734 155.325 65.1544 155.479 65.5819C155.635 66.0094 155.756 66.4582 155.835 66.9035C155.913 67.3524 155.935 68.0435 155.952 68.2715C155.974 68.4995 155.974 68.0435 155.952 68.2715Z" fill="#0C0E10"/>
<path d="M155.952 68.2715C155.952 68.7239 155.913 69.1871 155.835 69.6359C155.756 70.0848 155.635 70.5301 155.479 70.9576C155.325 71.3851 155.129 71.8054 154.902 72.2009C154.674 72.5963 154.406 72.9739 154.114 73.323C153.822 73.6721 153.494 73.9999 153.145 74.292C152.796 74.5841 152.418 74.8513 152.023 75.0793C151.628 75.3073 151.207 75.5032 150.78 75.6564C150.352 75.8132 149.907 75.9343 149.458 76.0127C149.009 76.091 148.546 76.1302 148.094 76.1302C147.638 76.1302 147.175 76.091 146.726 76.0127C146.28 75.9343 145.832 75.8132 145.404 75.6564C144.977 75.5032 144.556 75.3073 144.161 75.0793C143.769 74.8513 143.388 74.5841 143.039 74.292C142.69 73.9999 142.362 73.6721 142.07 73.323C141.778 72.9739 141.51 72.5963 141.286 72.2009C141.058 71.8054 140.862 71.3851 140.705 70.9576C140.549 70.5301 140.431 70.0848 140.353 69.6359C140.271 69.1871 140.231 68.7239 140.231 68.2715C140.231 67.8155 140.271 67.3524 140.353 66.9035C140.431 66.4582 140.549 66.0094 140.705 65.5819C140.862 65.1544 141.058 64.734 141.286 64.3386C141.51 63.9467 141.778 63.5656 142.07 63.2164C142.362 62.8673 142.69 62.5396 143.039 62.2475C143.388 61.9553 143.769 61.6882 144.161 61.4637C144.556 61.2357 144.977 61.0398 145.404 60.8831C145.832 60.7263 146.28 60.6087 146.726 60.5304C147.175 60.4484 147.638 60.4092 148.094 60.4092C148.546 60.4092 149.009 60.4484 149.458 60.5304C149.907 60.6087 150.352 60.7263 150.78 60.8831C151.207 61.0398 151.628 61.2357 152.023 61.4637C152.418 61.6882 152.796 61.9553 153.145 62.2475C153.494 62.5396 153.822 62.8673 154.114 63.2164C154.406 63.5656 154.674 63.9467 154.902 64.3386C155.129 64.734 155.325 65.1544 155.479 65.5819C155.635 66.0094 155.756 66.4582 155.835 66.9035C155.913 67.3524 155.935 68.0435 155.952 68.2715C155.974 68.4995 155.974 68.0435 155.952 68.2715Z" fill="#0C0E10"/>
<path fill-rule="evenodd" clip-rule="evenodd" d="M125.889 23.0074C123.484 22.9753 117.963 20.8949 111.458 22.8079C104.956 24.7245 93.0791 32.0524 86.8734 34.4926C80.6641 36.9329 77.7465 37.6846 74.2054 37.4423C70.6644 37.2036 64.9431 31.6961 65.6271 33.0499C66.3147 34.4071 71.1275 43.4949 78.32 45.5825C85.5126 47.67 102.416 45.187 108.786 45.5825C115.155 45.9779 114.354 46.9006 116.534 47.9586C118.718 49.0131 120.232 50.0034 121.881 51.9165C123.527 53.833 125.754 64.2602 126.423 59.4439C127.093 54.6239 125.978 29.0813 125.889 23.0074Z" fill="#3E4F8A"/>
<path fill-rule="evenodd" clip-rule="evenodd" d="M125.889 23.0074C123.484 22.9753 117.963 20.8949 111.458 22.8079C104.956 24.7245 93.0791 32.0524 86.8734 34.4926C80.6641 36.9329 77.7465 37.6846 74.2054 37.4423C70.6644 37.2036 64.9431 31.6961 65.6271 33.0499C66.3147 34.4071 71.1275 43.4949 78.32 45.5825C85.5126 47.67 102.416 45.187 108.786 45.5825C115.155 45.9779 114.354 46.9006 116.534 47.9586C118.718 49.0131 120.232 50.0034 121.881 51.9165C123.527 53.833 125.754 64.2602 126.423 59.4439C127.093 54.6239 125.978 29.0813 125.889 23.0074ZM125.889 23.0074C123.484 22.9753 117.963 20.8949 111.458 22.8079C104.956 24.7245 93.0791 32.0524 86.8734 34.4926C80.6641 36.9329 77.7465 37.6846 74.2054 37.4423C70.6644 37.2036 64.9431 31.6961 65.6271 33.0499C66.3147 34.4071 71.1275 43.4949 78.32 45.5825C85.5126 47.67 102.416 45.187 108.786 45.5825C115.155 45.9779 114.354 46.9006 116.534 47.9586C118.718 49.0131 120.232 50.0034 121.881 51.9165C123.527 53.833 125.754 64.2602 126.423 59.4439C127.093 54.6239 125.978 29.0813 125.889 23.0074Z" fill="#3E4F8A"/>
<path fill-rule="evenodd" clip-rule="evenodd" d="M125.812 23.0708C128.217 23.0387 133.739 20.9582 140.244 22.8713C146.745 24.7878 158.622 32.1157 164.828 34.556C171.037 36.9963 173.955 37.7479 177.496 37.5057C181.037 37.267 186.758 31.7595 186.074 33.1132C185.387 34.4705 180.574 43.5582 173.381 45.6458C166.189 47.7334 149.285 45.2504 142.915 45.6458C136.546 46.0413 137.347 46.9639 135.167 48.022C132.983 49.0764 131.469 50.0668 129.82 51.9798C128.174 53.8964 125.948 64.3236 125.278 59.5072C124.608 54.6873 125.723 29.1447 125.812 23.0708Z" fill="#3E4F8A"/>
<path fill-rule="evenodd" clip-rule="evenodd" d="M125.812 23.0708C128.217 23.0387 133.739 20.9582 140.244 22.8713C146.745 24.7878 158.622 32.1157 164.828 34.556C171.037 36.9963 173.955 37.7479 177.496 37.5057C181.037 37.267 186.758 31.7595 186.074 33.1132C185.387 34.4705 180.574 43.5582 173.381 45.6458C166.189 47.7334 149.285 45.2504 142.915 45.6458C136.546 46.0413 137.347 46.9639 135.167 48.022C132.983 49.0764 131.469 50.0668 129.82 51.9798C128.174 53.8964 125.948 64.3236 125.278 59.5072C124.608 54.6873 125.723 29.1447 125.812 23.0708ZM125.812 23.0708C128.217 23.0387 133.739 20.9582 140.244 22.8713C146.745 24.7878 158.622 32.1157 164.828 34.556C171.037 36.9963 173.955 37.7479 177.496 37.5057C181.037 37.267 186.758 31.7595 186.074 33.1132C185.387 34.4705 180.574 43.5582 173.381 45.6458C166.189 47.7334 149.285 45.2504 142.915 45.6458C136.546 46.0413 137.347 46.9639 135.167 48.022C132.983 49.0764 131.469 50.0668 129.82 51.9798C128.174 53.8964 125.948 64.3236 125.278 59.5072C124.608 54.6873 125.723 29.1447 125.812 23.0708Z" fill="#3E4F8A"/>
<path fill-rule="evenodd" clip-rule="evenodd" d="M126.235 23.3019C123.581 23.2663 117.493 20.9721 110.322 23.0846C103.15 25.1936 90.055 33.2767 83.208 35.9663C76.3646 38.656 73.1478 39.486 69.2433 39.2224C65.3389 38.9552 59.0263 32.8813 59.7851 34.3775C60.5403 35.8737 65.8484 45.8912 73.7783 48.1961C81.7118 50.4975 100.35 47.758 107.376 48.1961C114.397 48.6307 113.514 49.6496 115.922 50.8145C118.326 51.9794 119.997 53.0731 121.814 55.182C123.631 57.2946 126.089 68.7941 126.823 63.4789C127.56 58.1674 126.335 29.9993 126.235 23.3019Z" fill="#2B292E"/>
<path fill-rule="evenodd" clip-rule="evenodd" d="M126.235 23.3019C123.581 23.2663 117.493 20.9721 110.322 23.0846C103.15 25.1936 90.055 33.2767 83.208 35.9663C76.3646 38.656 73.1478 39.486 69.2433 39.2224C65.3389 38.9552 59.0263 32.8813 59.7851 34.3775C60.5403 35.8737 65.8484 45.8912 73.7783 48.1961C81.7118 50.4975 100.35 47.758 107.376 48.1961C114.397 48.6307 113.514 49.6496 115.922 50.8145C118.326 51.9794 119.997 53.0731 121.814 55.182C123.631 57.2946 126.089 68.7941 126.823 63.4789C127.56 58.1674 126.335 29.9993 126.235 23.3019ZM126.235 23.3019C123.581 23.2663 117.493 20.9721 110.322 23.0846C103.15 25.1936 90.055 33.2767 83.208 35.9663C76.3646 38.656 73.1478 39.486 69.2433 39.2224C65.3389 38.9552 59.0263 32.8813 59.7851 34.3775C60.5403 35.8737 65.8484 45.8912 73.7783 48.1961C81.7118 50.4975 100.35 47.758 107.376 48.1961C114.397 48.6307 113.514 49.6496 115.922 50.8145C118.326 51.9794 119.997 53.0731 121.814 55.182C123.631 57.2946 126.089 68.7941 126.823 63.4789C127.56 58.1674 126.335 29.9993 126.235 23.3019Z" fill="#2B292E"/>
<path fill-rule="evenodd" clip-rule="evenodd" d="M126.15 23.3717C128.804 23.336 134.892 21.0418 142.064 23.1544C149.235 25.2633 162.33 33.3464 169.177 36.0361C176.021 38.7257 179.237 39.5558 183.142 39.2921C187.046 39.025 193.359 32.951 192.6 34.4472C191.845 35.9435 186.537 45.961 178.607 48.2659C170.673 50.5672 152.035 47.8277 145.01 48.2659C137.988 48.7005 138.872 49.7193 136.463 50.8843C134.059 52.0492 132.388 53.1428 130.571 55.2518C128.754 57.3643 126.296 68.8638 125.562 63.5487C124.825 58.2371 126.051 30.069 126.15 23.3717Z" fill="#2B292E"/>
<path fill-rule="evenodd" clip-rule="evenodd" d="M126.15 23.3717C128.804 23.336 134.892 21.0418 142.064 23.1544C149.235 25.2633 162.33 33.3464 169.177 36.0361C176.021 38.7257 179.237 39.5558 183.142 39.2921C187.046 39.025 193.359 32.951 192.6 34.4472C191.845 35.9435 186.537 45.961 178.607 48.2659C170.673 50.5672 152.035 47.8277 145.01 48.2659C137.988 48.7005 138.872 49.7193 136.463 50.8843C134.059 52.0492 132.388 53.1428 130.571 55.2518C128.754 57.3643 126.296 68.8638 125.562 63.5487C124.825 58.2371 126.051 30.069 126.15 23.3717ZM126.15 23.3717C128.804 23.336 134.892 21.0418 142.064 23.1544C149.235 25.2633 162.33 33.3464 169.177 36.0361C176.021 38.7257 179.237 39.5558 183.142 39.2921C187.046 39.025 193.359 32.951 192.6 34.4472C191.845 35.9435 186.537 45.961 178.607 48.2659C170.673 50.5672 152.035 47.8277 145.01 48.2659C137.988 48.7005 138.872 49.7193 136.463 50.8843C134.059 52.0492 132.388 53.1428 130.571 55.2518C128.754 57.3643 126.296 68.8638 125.562 63.5487C124.825 58.2371 126.051 30.069 126.15 23.3717Z" fill="#2B292E"/>
</svg>
