<svg width="250" height="250" viewBox="0 0 250 250" fill="none" xmlns="http://www.w3.org/2000/svg">
<path d="M249.978 125C249.978 127.111 249.924 129.223 249.818 131.331C249.711 133.439 249.551 135.547 249.338 137.649C249.125 139.747 248.859 141.845 248.539 143.93C248.219 146.014 247.846 148.096 247.42 150.164C246.997 152.232 246.518 154.29 245.988 156.332C245.459 158.376 244.879 160.408 244.247 162.423C243.614 164.434 242.931 166.436 242.199 168.414C241.466 170.392 240.683 172.357 239.851 174.295C239.018 176.234 238.136 178.155 237.207 180.05C236.278 181.945 235.299 183.82 234.273 185.665C233.251 187.51 232.179 189.332 231.06 191.123C229.944 192.912 228.782 194.677 227.577 196.409C226.371 198.14 225.119 199.845 223.827 201.514C222.538 203.182 221.2 204.821 219.828 206.423C218.452 208.025 217.034 209.593 215.582 211.122C214.127 212.651 212.631 214.146 211.103 215.601C209.574 217.053 208.006 218.472 206.404 219.847C204.803 221.219 203.164 222.558 201.496 223.847C199.828 225.139 198.123 226.391 196.391 227.597C194.659 228.803 192.894 229.965 191.106 231.08C189.315 232.199 187.493 233.272 185.648 234.294C183.803 235.32 181.929 236.299 180.034 237.228C178.139 238.157 176.218 239.04 174.28 239.873C172.342 240.705 170.377 241.488 168.399 242.22C166.421 242.953 164.419 243.636 162.408 244.269C160.393 244.901 158.362 245.481 156.318 246.01C154.276 246.54 152.218 247.019 150.15 247.442C148.082 247.869 146.001 248.242 143.917 248.561C141.832 248.881 139.734 249.147 137.636 249.361C135.535 249.574 133.427 249.734 131.319 249.84C129.211 249.947 127.1 250 124.989 250C122.881 250 120.766 249.947 118.658 249.84C116.55 249.734 114.443 249.574 112.345 249.361C110.247 249.147 108.149 248.881 106.064 248.561C103.976 248.242 101.895 247.869 99.8305 247.442C97.7626 247.019 95.7046 246.54 93.66 246.01C91.6187 245.481 89.5874 244.901 87.5727 244.269C85.5581 243.636 83.56 242.953 81.5787 242.22C79.6007 241.488 77.6393 240.705 75.6979 239.873C73.7598 239.04 71.8384 238.157 69.9436 237.228C68.0488 236.299 66.1774 235.32 64.3325 234.294C62.4877 233.272 60.6662 232.199 58.8747 231.08C57.0831 229.965 55.3182 228.803 53.5866 227.597C51.855 226.391 50.15 225.139 48.4817 223.847C46.8133 222.558 45.175 221.219 43.5732 219.847C41.9748 218.472 40.4064 217.053 38.8746 215.601C37.3461 214.146 35.8509 212.651 34.399 211.122C32.9438 209.593 31.5286 208.025 30.1533 206.423C28.778 204.821 27.4426 203.182 26.1506 201.514C24.8586 199.845 23.6098 198.14 22.4043 196.409C21.1955 194.677 20.0334 192.912 18.9178 191.123C17.8023 189.332 16.73 187.51 15.7043 185.665C14.682 183.82 13.703 181.945 12.7739 180.05C11.8449 178.155 10.9624 176.234 10.1299 174.295C9.2974 172.357 8.51485 170.392 7.77891 168.414C7.04631 166.436 6.36366 164.434 5.73095 162.423C5.10158 160.408 4.51883 158.376 3.98936 156.332C3.45988 154.29 2.98369 152.232 2.55745 150.164C2.13454 148.096 1.76158 146.014 1.4419 143.93C1.12221 141.845 0.855814 139.747 0.642693 137.649C0.426242 135.547 0.266401 133.439 0.159841 131.331C0.0532802 129.223 0 127.111 0 125C0 122.892 0.0532802 120.777 0.159841 118.669C0.266401 116.561 0.426242 114.453 0.642693 112.355C0.855814 110.257 1.12221 108.159 1.4419 106.074C1.76158 103.986 2.13454 101.904 2.55745 99.8395C2.98369 97.7714 3.45988 95.7132 3.98936 93.6684C4.51883 91.6269 5.10158 89.5954 5.73095 87.5806C6.36366 85.5658 7.04631 83.5676 7.77891 81.586C8.51485 79.6078 9.2974 77.6463 10.1299 75.7047C10.9624 73.7665 11.8449 71.8449 12.7739 69.9499C13.703 68.055 14.682 66.1833 15.7043 64.3383C16.73 62.4933 17.8023 60.6717 18.9178 58.88C20.0334 57.0882 21.1955 55.3232 22.4043 53.5914C23.6098 51.8596 24.8586 50.1545 26.1506 48.486C27.4426 46.8176 28.778 45.179 30.1533 43.5772C31.5286 41.9786 32.9438 40.41 34.399 38.8781C35.8509 37.3495 37.3461 35.8542 38.8746 34.4021C40.4064 32.9468 41.9748 31.5314 43.5732 30.156C45.175 28.7806 46.8133 27.4451 48.4817 26.153C50.15 24.8608 51.855 23.6119 53.5866 22.4064C55.3182 21.1974 57.0831 20.0352 58.8747 18.9195C60.6662 17.8039 62.4877 16.7315 64.3325 15.7058C66.1774 14.6834 68.0488 13.7042 69.9436 12.7751C71.8384 11.8459 73.7598 10.9634 75.6979 10.1308C77.6393 9.29824 79.6007 8.51561 81.5787 7.77961C83.56 7.04694 85.5581 6.36423 87.5727 5.73147C89.5874 5.10204 91.6187 4.51924 93.66 3.98972C95.7046 3.4602 97.7626 2.98396 99.8305 2.55768C101.895 2.13473 103.976 1.76174 106.064 1.44203C108.149 1.12232 110.247 0.855891 112.345 0.642751C114.443 0.42628 116.55 0.266425 118.658 0.159855C120.766 0.053285 122.881 0 124.989 0C127.1 0 129.211 0.053285 131.319 0.159855C133.427 0.266425 135.535 0.42628 137.636 0.642751C139.734 0.855891 141.832 1.12232 143.917 1.44203C146.001 1.76174 148.082 2.13473 150.15 2.55768C152.218 2.98396 154.276 3.4602 156.318 3.98972C158.362 4.51924 160.393 5.10204 162.408 5.73147C164.419 6.36423 166.421 7.04694 168.399 7.77961C170.377 8.51561 172.342 9.29824 174.28 10.1308C176.218 10.9634 178.139 11.8459 180.034 12.7751C181.929 13.7042 183.803 14.6834 185.648 15.7058C187.493 16.7315 189.315 17.8039 191.106 18.9195C192.894 20.0352 194.659 21.1974 196.391 22.4064C198.123 23.6119 199.828 24.8608 201.496 26.153C203.164 27.4451 204.803 28.7806 206.404 30.156C208.006 31.5314 209.574 32.9468 211.103 34.4021C212.631 35.8542 214.127 37.3495 215.582 38.8781C217.034 40.41 218.452 41.9786 219.828 43.5772C221.2 45.179 222.538 46.8176 223.827 48.486C225.119 50.1545 226.371 51.8596 227.577 53.5914C228.782 55.3232 229.944 57.0882 231.06 58.88C232.179 60.6717 233.251 62.4933 234.273 64.3383C235.299 66.1833 236.278 68.055 237.207 69.9499C238.136 71.8449 239.018 73.7665 239.851 75.7047C240.683 77.6463 241.466 79.6078 242.199 81.586C242.931 83.5676 243.614 85.5658 244.247 87.5806C244.879 89.5954 245.459 91.6269 245.988 93.6684C246.518 95.7132 246.997 97.7714 247.42 99.8395C247.846 101.904 248.219 103.986 248.539 106.074C248.859 108.159 249.125 110.257 249.338 112.355C249.551 114.453 249.711 116.561 249.818 118.669C249.924 120.777 249.951 123.944 249.978 125C250.007 126.056 250.007 123.944 249.978 125Z" fill="#0A1020"/>
<path d="M249.978 125C249.978 127.111 249.924 129.223 249.818 131.331C249.711 133.439 249.551 135.547 249.338 137.649C249.125 139.747 248.859 141.845 248.539 143.93C248.219 146.014 247.846 148.096 247.42 150.164C246.997 152.232 246.518 154.29 245.988 156.332C245.459 158.376 244.879 160.408 244.247 162.423C243.614 164.434 242.931 166.436 242.199 168.414C241.466 170.392 240.683 172.357 239.851 174.295C239.018 176.234 238.136 178.155 237.207 180.05C236.278 181.945 235.299 183.82 234.273 185.665C233.251 187.51 232.179 189.332 231.06 191.123C229.944 192.912 228.782 194.677 227.577 196.409C226.371 198.14 225.119 199.845 223.827 201.514C222.538 203.182 221.2 204.821 219.828 206.423C218.452 208.025 217.034 209.593 215.582 211.122C214.127 212.651 212.631 214.146 211.103 215.601C209.574 217.053 208.006 218.472 206.404 219.847C204.803 221.219 203.164 222.558 201.496 223.847C199.828 225.139 198.123 226.391 196.391 227.597C194.659 228.803 192.894 229.965 191.106 231.08C189.315 232.199 187.493 233.272 185.648 234.294C183.803 235.32 181.929 236.299 180.034 237.228C178.139 238.157 176.218 239.04 174.28 239.873C172.342 240.705 170.377 241.488 168.399 242.22C166.421 242.953 164.419 243.636 162.408 244.269C160.393 244.901 158.362 245.481 156.318 246.01C154.276 246.54 152.218 247.019 150.15 247.442C148.082 247.869 146.001 248.242 143.917 248.561C141.832 248.881 139.734 249.147 137.636 249.361C135.535 249.574 133.427 249.734 131.319 249.84C129.211 249.947 127.1 250 124.989 250C122.881 250 120.766 249.947 118.658 249.84C116.55 249.734 114.443 249.574 112.345 249.361C110.247 249.147 108.149 248.881 106.064 248.561C103.976 248.242 101.895 247.869 99.8305 247.442C97.7626 247.019 95.7046 246.54 93.66 246.01C91.6187 245.481 89.5874 244.901 87.5727 244.269C85.5581 243.636 83.56 242.953 81.5787 242.22C79.6007 241.488 77.6393 240.705 75.6979 239.873C73.7598 239.04 71.8384 238.157 69.9436 237.228C68.0488 236.299 66.1774 235.32 64.3325 234.294C62.4877 233.272 60.6662 232.199 58.8747 231.08C57.0831 229.965 55.3182 228.803 53.5866 227.597C51.855 226.391 50.15 225.139 48.4817 223.847C46.8133 222.558 45.175 221.219 43.5732 219.847C41.9748 218.472 40.4064 217.053 38.8746 215.601C37.3461 214.146 35.8509 212.651 34.399 211.122C32.9438 209.593 31.5286 208.025 30.1533 206.423C28.778 204.821 27.4426 203.182 26.1506 201.514C24.8586 199.845 23.6098 198.14 22.4043 196.409C21.1955 194.677 20.0334 192.912 18.9178 191.123C17.8023 189.332 16.73 187.51 15.7043 185.665C14.682 183.82 13.703 181.945 12.7739 180.05C11.8449 178.155 10.9624 176.234 10.1299 174.295C9.2974 172.357 8.51485 170.392 7.77891 168.414C7.04631 166.436 6.36366 164.434 5.73095 162.423C5.10158 160.408 4.51883 158.376 3.98936 156.332C3.45988 154.29 2.98369 152.232 2.55745 150.164C2.13454 148.096 1.76158 146.014 1.4419 143.93C1.12221 141.845 0.855814 139.747 0.642693 137.649C0.426242 135.547 0.266401 133.439 0.159841 131.331C0.0532802 129.223 0 127.111 0 125C0 122.892 0.0532802 120.777 0.159841 118.669C0.266401 116.561 0.426242 114.453 0.642693 112.355C0.855814 110.257 1.12221 108.159 1.4419 106.074C1.76158 103.986 2.13454 101.904 2.55745 99.8395C2.98369 97.7714 3.45988 95.7132 3.98936 93.6684C4.51883 91.6269 5.10158 89.5954 5.73095 87.5806C6.36366 85.5658 7.04631 83.5676 7.77891 81.586C8.51485 79.6078 9.2974 77.6463 10.1299 75.7047C10.9624 73.7665 11.8449 71.8449 12.7739 69.9499C13.703 68.055 14.682 66.1833 15.7043 64.3383C16.73 62.4933 17.8023 60.6717 18.9178 58.88C20.0334 57.0882 21.1955 55.3232 22.4043 53.5914C23.6098 51.8596 24.8586 50.1545 26.1506 48.486C27.4426 46.8176 28.778 45.179 30.1533 43.5772C31.5286 41.9786 32.9438 40.41 34.399 38.8781C35.8509 37.3495 37.3461 35.8542 38.8746 34.4021C40.4064 32.9468 41.9748 31.5314 43.5732 30.156C45.175 28.7806 46.8133 27.4451 48.4817 26.153C50.15 24.8608 51.855 23.6119 53.5866 22.4064C55.3182 21.1974 57.0831 20.0352 58.8747 18.9195C60.6662 17.8039 62.4877 16.7315 64.3325 15.7058C66.1774 14.6834 68.0488 13.7042 69.9436 12.7751C71.8384 11.8459 73.7598 10.9634 75.6979 10.1308C77.6393 9.29824 79.6007 8.51561 81.5787 7.77961C83.56 7.04694 85.5581 6.36423 87.5727 5.73147C89.5874 5.10204 91.6187 4.51924 93.66 3.98972C95.7046 3.4602 97.7626 2.98396 99.8305 2.55768C101.895 2.13473 103.976 1.76174 106.064 1.44203C108.149 1.12232 110.247 0.855891 112.345 0.642751C114.443 0.42628 116.55 0.266425 118.658 0.159855C120.766 0.053285 122.881 0 124.989 0C127.1 0 129.211 0.053285 131.319 0.159855C133.427 0.266425 135.535 0.42628 137.636 0.642751C139.734 0.855891 141.832 1.12232 143.917 1.44203C146.001 1.76174 148.082 2.13473 150.15 2.55768C152.218 2.98396 154.276 3.4602 156.318 3.98972C158.362 4.51924 160.393 5.10204 162.408 5.73147C164.419 6.36423 166.421 7.04694 168.399 7.77961C170.377 8.51561 172.342 9.29824 174.28 10.1308C176.218 10.9634 178.139 11.8459 180.034 12.7751C181.929 13.7042 183.803 14.6834 185.648 15.7058C187.493 16.7315 189.315 17.8039 191.106 18.9195C192.894 20.0352 194.659 21.1974 196.391 22.4064C198.123 23.6119 199.828 24.8608 201.496 26.153C203.164 27.4451 204.803 28.7806 206.404 30.156C208.006 31.5314 209.574 32.9468 211.103 34.4021C212.631 35.8542 214.127 37.3495 215.582 38.8781C217.034 40.41 218.452 41.9786 219.828 43.5772C221.2 45.179 222.538 46.8176 223.827 48.486C225.119 50.1545 226.371 51.8596 227.577 53.5914C228.782 55.3232 229.944 57.0882 231.06 58.88C232.179 60.6717 233.251 62.4933 234.273 64.3383C235.299 66.1833 236.278 68.055 237.207 69.9499C238.136 71.8449 239.018 73.7665 239.851 75.7047C240.683 77.6463 241.466 79.6078 242.199 81.586C242.931 83.5676 243.614 85.5658 244.247 87.5806C244.879 89.5954 245.459 91.6269 245.988 93.6684C246.518 95.7132 246.997 97.7714 247.42 99.8395C247.846 101.904 248.219 103.986 248.539 106.074C248.859 108.159 249.125 110.257 249.338 112.355C249.551 114.453 249.711 116.561 249.818 118.669C249.924 120.777 249.951 123.944 249.978 125C250.007 126.056 250.007 123.944 249.978 125Z" fill="#0A1020"/>
<path fill-rule="evenodd" clip-rule="evenodd" d="M118.478 205.39C118.643 205.367 119.033 204.926 119.465 205.256C119.9 205.587 120.751 206.204 121.078 207.371C121.404 208.541 121.421 210.892 121.421 212.268C121.421 213.646 121.494 216.572 121.084 215.639C120.679 214.702 119.333 208.158 118.98 206.66" fill="#7286FF"/>
<path fill-rule="evenodd" clip-rule="evenodd" d="M147.287 116.395C146.417 116.37 138.985 118.555 142.066 116.244C145.15 113.934 160.186 106.09 165.783 102.531C171.376 98.9714 173.218 97.0592 175.632 94.8853C178.045 92.7151 178.738 91.9009 180.27 89.4912C181.803 87.0815 184.01 83.316 184.821 80.4199C185.631 77.5276 185.429 74.4326 185.13 72.1298C184.828 69.827 182.931 66.4851 183.019 66.5993C183.104 66.7172 185.381 69.5691 185.65 72.8188C185.922 76.0685 186.505 81.7463 184.636 86.0978C182.772 90.4492 180.672 93.8794 174.445 98.9309C168.222 103.979 151.815 113.485 147.287 116.395Z" fill="#7286FF"/>
<mask id="mask0_19_738" style="mask-type:alpha" maskUnits="userSpaceOnUse" x="61" y="70" width="117" height="138">
<path fill-rule="evenodd" clip-rule="evenodd" d="M140.3 207.107C134.796 206.391 115.709 204.863 107.28 202.804C98.8502 200.743 94.499 198.296 89.7272 194.751C84.9522 191.209 81.7377 188.004 78.6422 181.546C75.5466 175.089 73.1927 163.56 71.1536 156.011C69.1145 148.458 67.9296 144.251 66.4107 136.243C64.8918 128.237 62.9458 115.158 62.0435 107.975C61.1443 100.788 61.0384 97.9749 61.003 93.1356C60.9645 88.2963 61.2953 82.7602 61.8219 78.9453C62.3453 75.1304 63.8385 70.6861 64.1468 70.2462C64.4551 69.8063 63.4885 74.1414 63.6715 76.3122C63.8514 78.4829 63.6041 80.0243 65.2322 83.2676C66.8603 86.5141 69.4742 92.1369 73.44 95.7817C77.4058 99.4264 82.0589 102.432 89.0207 105.146C95.9858 107.859 105.115 110.341 115.218 112.059C125.32 113.777 141.212 115.02 149.635 115.45C158.058 115.881 162.393 113.524 165.756 114.644C169.121 115.762 168.032 119.294 169.818 122.165C171.603 125.036 175.238 129.58 176.465 131.866C177.692 134.152 177.714 132.505 177.178 135.883C176.645 139.261 175.697 143.484 173.254 152.138C170.81 160.796 164.705 180.849 162.515 187.824C160.325 194.796 161.202 192.403 160.107 193.98C159.009 195.557 157.882 195.981 155.932 197.281C153.983 198.585 151.01 200.162 148.405 201.799C145.798 203.437 141.652 206.224 140.3 207.107Z" fill="#C5D1EA"/>
<path fill-rule="evenodd" clip-rule="evenodd" d="M140.3 207.107C134.796 206.391 115.709 204.863 107.28 202.804C98.8502 200.743 94.499 198.296 89.7272 194.751C84.9522 191.209 81.7377 188.004 78.6422 181.546C75.5466 175.089 73.1927 163.56 71.1536 156.011C69.1145 148.458 67.9296 144.251 66.4107 136.243C64.8918 128.237 62.9458 115.158 62.0435 107.975C61.1443 100.788 61.0384 97.9749 61.003 93.1356C60.9645 88.2963 61.2953 82.7602 61.8219 78.9453C62.3453 75.1304 63.8385 70.6861 64.1468 70.2462C64.4551 69.8063 63.4885 74.1414 63.6715 76.3122C63.8514 78.4829 63.6041 80.0243 65.2322 83.2676C66.8603 86.5141 69.4742 92.1369 73.44 95.7817C77.4058 99.4264 82.0589 102.432 89.0207 105.146C95.9858 107.859 105.115 110.341 115.218 112.059C125.32 113.777 141.212 115.02 149.635 115.45C158.058 115.881 162.393 113.524 165.756 114.644C169.121 115.762 168.032 119.294 169.818 122.165C171.603 125.036 175.238 129.58 176.465 131.866C177.692 134.152 177.714 132.505 177.178 135.883C176.645 139.261 175.697 143.484 173.254 152.138C170.81 160.796 164.705 180.849 162.515 187.824C160.325 194.796 161.202 192.403 160.107 193.98C159.009 195.557 157.882 195.981 155.932 197.281C153.983 198.585 151.01 200.162 148.405 201.799C145.798 203.437 141.652 206.224 140.3 207.107ZM140.3 207.107C134.796 206.391 115.709 204.863 107.28 202.804C98.8502 200.743 94.499 198.296 89.7272 194.751C84.9522 191.209 81.7377 188.004 78.6422 181.546C75.5466 175.089 73.1927 163.56 71.1536 156.011C69.1145 148.458 67.9296 144.251 66.4107 136.243C64.8918 128.237 62.9458 115.158 62.0435 107.975C61.1443 100.788 61.0384 97.9749 61.003 93.1356C60.9645 88.2963 61.2953 82.7602 61.8219 78.9453C62.3453 75.1304 63.8385 70.6861 64.1468 70.2462C64.4551 69.8063 63.4885 74.1414 63.6715 76.3122C63.8514 78.4829 63.6041 80.0243 65.2322 83.2676C66.8603 86.5141 69.4742 92.1369 73.44 95.7817C77.4058 99.4264 82.0589 102.432 89.0207 105.146C95.9858 107.859 105.115 110.341 115.218 112.059C125.32 113.777 141.212 115.02 149.635 115.45C158.058 115.881 162.393 113.524 165.756 114.644C169.121 115.762 168.032 119.294 169.818 122.165C171.603 125.036 175.238 129.58 176.465 131.866C177.692 134.152 177.714 132.505 177.178 135.883C176.645 139.261 175.697 143.484 173.254 152.138C170.81 160.796 164.705 180.849 162.515 187.824C160.325 194.796 161.202 192.403 160.107 193.98C159.009 195.557 157.882 195.981 155.932 197.281C153.983 198.585 151.01 200.162 148.405 201.799C145.798 203.437 141.652 206.224 140.3 207.107Z" fill="#C5D1EA"/>
</mask>
<g mask="url(#mask0_19_738)">
<path d="M13.2111 -3.50267C91.4147 -3.50267 169.615 -3.50267 246.783 -3.50267C254.646 -3.50267 258.573 0.428699 258.573 8.28775C258.573 93.5288 258.573 178.774 258.573 241.86C258.573 249.722 254.646 253.65 246.783 253.65C172.139 253.65 97.4905 253.65 13.2111 253.65C5.35203 253.65 1.42066 249.722 1.42066 241.86C1.42066 162.554 1.42066 83.249 1.42066 8.28775C1.42066 0.428699 5.35203 -3.50267 13.2111 -3.50267Z" fill="url(#paint0_linear_19_738)"/>
<path d="M13.2111 -3.50267C83.7436 -3.50267 154.276 -3.50267 246.783 -3.50267ZM13.2111 -3.50267C87.3544 -3.50267 161.501 -3.50267 246.783 -3.50267ZM246.783 -3.50267C254.646 -3.50267 258.573 0.428699 258.573 8.28775ZM246.783 -3.50267C254.646 -3.50267 258.573 0.428699 258.573 8.28775ZM258.573 8.28775C258.573 74.491 258.573 140.698 258.573 241.86ZM258.573 8.28775C258.573 100.091 258.573 191.898 258.573 241.86ZM258.573 241.86C258.573 249.722 254.646 253.65 246.783 253.65ZM258.573 241.86C258.573 249.722 254.646 253.65 246.783 253.65ZM246.783 253.65C189.36 253.65 131.933 253.65 13.2111 253.65ZM246.783 253.65C158.922 253.65 71.0578 253.65 13.2111 253.65ZM13.2111 253.65C5.35203 253.65 1.42066 249.722 1.42066 241.86ZM13.2111 253.65C5.35203 253.65 1.42066 249.722 1.42066 241.86ZM1.42066 241.86C1.42066 178.921 1.42066 115.982 1.42066 8.28775ZM1.42066 241.86C1.42066 173.184 1.42066 104.505 1.42066 8.28775ZM1.42066 8.28775C1.42066 0.428699 5.35203 -3.50267 13.2111 -3.50267ZM1.42066 8.28775C1.42066 0.428699 5.35203 -3.50267 13.2111 -3.50267Z" fill="url(#paint1_linear_19_738)"/>
</g>
<path fill-rule="evenodd" clip-rule="evenodd" d="M139.264 206.857C133.76 206.055 114.756 204.269 106.243 202.041C97.727 199.809 92.8331 197.006 88.1769 193.476C83.5207 189.944 78.9126 181.03 78.3089 180.85C77.7084 180.673 81.0224 188.605 84.5643 192.404C88.103 196.203 94.0438 201.036 99.551 203.646C105.061 206.254 109.114 206.588 117.617 208.062C126.12 209.536 144.032 211.449 150.574 212.484C157.112 213.521 155.002 215.162 156.848 214.266C158.695 213.373 156.986 223.193 161.646 207.124C166.305 191.058 180.582 134.949 184.799 117.866C189.012 100.779 190.64 105.978 186.937 104.616C183.235 103.255 167.779 108.563 162.584 109.703C157.385 110.839 159.594 111.084 155.757 111.44C151.922 111.796 145.14 112.021 139.566 111.841C133.988 111.665 128.792 111.417 122.302 110.371C115.812 109.321 106.288 107.092 100.624 105.554C94.9557 104.012 91.5904 102.407 88.3118 101.135C85.0331 99.8668 83.6941 99.642 80.9485 97.924C78.2061 96.206 73.9674 92.6833 71.8512 90.8305C69.7318 88.9808 69.4845 88.846 68.2354 86.8165C66.9862 84.787 65.0466 81.2194 64.3562 78.6536C63.6658 76.0879 63.8264 73.4354 64.0897 71.4284C64.3498 69.4214 66.0036 66.5089 65.9297 66.6084C65.8527 66.7112 63.9516 69.2384 63.6337 72.0289C63.3158 74.8195 62.558 79.4372 64.0191 83.3516C65.4802 87.2693 68.4088 91.9416 72.4035 95.5317C76.3982 99.1218 81.0609 102.102 87.9842 104.896C94.9076 107.686 103.841 110.483 113.94 112.288C124.043 114.089 140.298 115.049 148.599 115.717C156.9 116.385 160.326 115.284 163.752 116.292C167.182 117.3 167.221 119.208 169.167 121.761C171.113 124.314 174.266 129.304 175.428 131.616C176.591 133.928 176.678 132.255 176.141 135.633C175.608 139.011 174.661 143.234 172.217 151.888C169.773 160.546 163.669 180.6 161.479 187.574C159.289 194.546 160.166 192.153 159.071 193.73C157.972 195.307 156.845 195.731 154.896 197.031C152.947 198.335 149.973 199.912 147.369 201.549C144.761 203.187 140.616 205.974 139.264 206.857Z" fill="#E5EDFE"/>
<path fill-rule="evenodd" clip-rule="evenodd" d="M139.264 206.857C133.76 206.055 114.756 204.269 106.243 202.041C97.727 199.809 92.8331 197.006 88.1769 193.476C83.5207 189.944 78.9126 181.03 78.3089 180.85C77.7084 180.673 81.0224 188.605 84.5643 192.404C88.103 196.203 94.0438 201.036 99.551 203.646C105.061 206.254 109.114 206.588 117.617 208.062C126.12 209.536 144.032 211.449 150.574 212.484C157.112 213.521 155.002 215.162 156.848 214.266C158.695 213.373 156.986 223.193 161.646 207.124C166.305 191.058 180.582 134.949 184.799 117.866C189.012 100.779 190.64 105.978 186.937 104.616C183.235 103.255 167.779 108.563 162.584 109.703C157.385 110.839 159.594 111.084 155.757 111.44C151.922 111.796 145.14 112.021 139.566 111.841C133.988 111.665 128.792 111.417 122.302 110.371C115.812 109.321 106.288 107.092 100.624 105.554C94.9557 104.012 91.5904 102.407 88.3118 101.135C85.0331 99.8668 83.6941 99.642 80.9485 97.924C78.2061 96.206 73.9674 92.6833 71.8512 90.8305C69.7318 88.9808 69.4845 88.846 68.2354 86.8165C66.9862 84.787 65.0466 81.2194 64.3562 78.6536C63.6658 76.0879 63.8264 73.4354 64.0897 71.4284C64.3498 69.4214 66.0036 66.5089 65.9297 66.6084C65.8527 66.7112 63.9516 69.2384 63.6337 72.0289C63.3158 74.8195 62.558 79.4372 64.0191 83.3516C65.4802 87.2693 68.4088 91.9416 72.4035 95.5317C76.3982 99.1218 81.0609 102.102 87.9842 104.896C94.9076 107.686 103.841 110.483 113.94 112.288C124.043 114.089 140.298 115.049 148.599 115.717C156.9 116.385 160.326 115.284 163.752 116.292C167.182 117.3 167.221 119.208 169.167 121.761C171.113 124.314 174.266 129.304 175.428 131.616C176.591 133.928 176.678 132.255 176.141 135.633C175.608 139.011 174.661 143.234 172.217 151.888C169.773 160.546 163.669 180.6 161.479 187.574C159.289 194.546 160.166 192.153 159.071 193.73C157.972 195.307 156.845 195.731 154.896 197.031C152.947 198.335 149.973 199.912 147.369 201.549C144.761 203.187 140.616 205.974 139.264 206.857ZM139.264 206.857C133.76 206.055 114.756 204.269 106.243 202.041C97.727 199.809 92.8331 197.006 88.1769 193.476C83.5207 189.944 78.9126 181.03 78.3089 180.85C77.7084 180.673 81.0224 188.605 84.5643 192.404C88.103 196.203 94.0438 201.036 99.551 203.646C105.061 206.254 109.114 206.588 117.617 208.062C126.12 209.536 144.032 211.449 150.574 212.484C157.112 213.521 155.002 215.162 156.848 214.266C158.695 213.373 156.986 223.193 161.646 207.124C166.305 191.058 180.582 134.949 184.799 117.866C189.012 100.779 190.64 105.978 186.937 104.616C183.235 103.255 167.779 108.563 162.584 109.703C157.385 110.839 159.594 111.084 155.757 111.44C151.922 111.796 145.14 112.021 139.566 111.841C133.988 111.665 128.792 111.417 122.302 110.371C115.812 109.321 106.288 107.092 100.624 105.554C94.9557 104.012 91.5904 102.407 88.3118 101.135C85.0331 99.8668 83.6941 99.642 80.9485 97.924C78.2061 96.206 73.9674 92.6833 71.8512 90.8305C69.7318 88.9808 69.4845 88.846 68.2354 86.8165C66.9862 84.787 65.0466 81.2194 64.3562 78.6536C63.6658 76.0879 63.8264 73.4354 64.0897 71.4284C64.3498 69.4214 66.0036 66.5089 65.9297 66.6084C65.8527 66.7112 63.9516 69.2384 63.6337 72.0289C63.3158 74.8195 62.558 79.4372 64.0191 83.3516C65.4802 87.2693 68.4088 91.9416 72.4035 95.5317C76.3982 99.1218 81.0609 102.102 87.9842 104.896C94.9076 107.686 103.841 110.483 113.94 112.288C124.043 114.089 140.298 115.049 148.599 115.717C156.9 116.385 160.326 115.284 163.752 116.292C167.182 117.3 167.221 119.208 169.167 121.761C171.113 124.314 174.266 129.304 175.428 131.616C176.591 133.928 176.678 132.255 176.141 135.633C175.608 139.011 174.661 143.234 172.217 151.888C169.773 160.546 163.669 180.6 161.479 187.574C159.289 194.546 160.166 192.153 159.071 193.73C157.972 195.307 156.845 195.731 154.896 197.031C152.947 198.335 149.973 199.912 147.369 201.549C144.761 203.187 140.616 205.974 139.264 206.857Z" fill="#E5EDFE"/>
<path d="M127.161 84.4734C127.547 85.4753 127.929 86.4804 128.882 88.9691C129.846 91.2169 129.846 91.2169 128.882 93.4647C128.455 94.4859 128.025 95.507 127.161 97.5686C126.198 99.8165 126.198 99.8165 125.234 97.5686C124.791 96.6245 124.348 95.6805 123.308 93.4647C122.344 91.2169 122.344 91.2169 123.308 88.9691C123.799 87.8227 124.29 86.6795 125.234 84.4734C126.198 82.2255 126.198 82.2255 127.161 84.4734Z" fill="#394382"/>
<path d="M127.161 84.4734C127.656 85.7611 128.147 87.052 128.882 88.9691ZM127.161 84.4734C127.697 85.8767 128.237 87.28 128.882 88.9691ZM128.882 88.9691C129.846 91.2169 129.846 91.2169 128.882 93.4647ZM128.882 88.9691C129.846 91.2169 129.846 91.2169 128.882 93.4647ZM128.882 93.4647C128.52 94.3318 128.153 95.202 127.161 97.5686ZM128.882 93.4647C128.243 94.9868 127.604 96.5122 127.161 97.5686ZM127.161 97.5686C126.198 99.8165 126.198 99.8165 125.234 97.5686ZM127.161 97.5686C126.198 99.8165 126.198 99.8165 125.234 97.5686ZM125.234 97.5686C124.547 96.1043 123.86 94.64 123.308 93.4647ZM125.234 97.5686C124.522 96.0465 123.805 94.5276 123.308 93.4647ZM123.308 93.4647C122.344 91.2169 122.344 91.2169 123.308 88.9691ZM123.308 93.4647C122.344 91.2169 122.344 91.2169 123.308 88.9691ZM123.308 88.9691C123.805 87.8098 124.3 86.6506 125.234 84.4734ZM123.308 88.9691C123.722 88.0057 124.133 87.0391 125.234 84.4734ZM125.234 84.4734C126.198 82.2255 126.198 82.2255 127.161 84.4734ZM125.234 84.4734C126.198 82.2255 126.198 82.2255 127.161 84.4734Z" fill="#394382"/>
<path d="M114.912 75.9064C114.912 76.3142 114.877 76.7316 114.806 77.1363C114.735 77.5409 114.626 77.9423 114.485 78.3276C114.347 78.713 114.17 79.0919 113.965 79.4483C113.759 79.8048 113.518 80.1451 113.255 80.4598C112.992 80.7745 112.696 81.07 112.382 81.3333C112.067 81.5966 111.726 81.8374 111.37 82.043C111.014 82.2485 110.635 82.4251 110.249 82.5632C109.864 82.7045 109.463 82.8137 109.058 82.8843C108.653 82.9549 108.236 82.9903 107.828 82.9903C107.417 82.9903 107 82.9549 106.595 82.8843C106.194 82.8137 105.789 82.7045 105.404 82.5632C105.018 82.4251 104.639 82.2485 104.283 82.043C103.93 81.8374 103.586 81.5966 103.271 81.3333C102.957 81.07 102.661 80.7745 102.398 80.4598C102.135 80.1451 101.894 79.8048 101.691 79.4483C101.486 79.0919 101.309 78.713 101.168 78.3276C101.027 77.9423 100.921 77.5409 100.85 77.1363C100.776 76.7316 100.741 76.3142 100.741 75.9064C100.741 75.4953 100.776 75.0779 100.85 74.6733C100.921 74.2719 101.027 73.8673 101.168 73.4819C101.309 73.0966 101.486 72.7176 101.691 72.3612C101.894 72.008 102.135 71.6644 102.398 71.3497C102.661 71.035 102.957 70.7395 103.271 70.4762C103.586 70.2129 103.93 69.9721 104.283 69.7698C104.639 69.5642 105.018 69.3876 105.404 69.2463C105.789 69.105 106.194 68.9991 106.595 68.9284C107 68.8546 107.417 68.8193 107.828 68.8193C108.236 68.8193 108.653 68.8546 109.058 68.9284C109.463 68.9991 109.864 69.105 110.249 69.2463C110.635 69.3876 111.014 69.5642 111.37 69.7698C111.726 69.9721 112.067 70.2129 112.382 70.4762C112.696 70.7395 112.992 71.035 113.255 71.3497C113.518 71.6644 113.759 72.008 113.965 72.3612C114.17 72.7176 114.347 73.0966 114.485 73.4819C114.626 73.8673 114.735 74.2719 114.806 74.6733C114.877 75.0779 114.896 75.7008 114.912 75.9064C114.931 76.1119 114.931 75.7008 114.912 75.9064Z" fill="#7286FF"/>
<path d="M114.912 75.9064C114.912 76.3142 114.877 76.7316 114.806 77.1363C114.735 77.5409 114.626 77.9423 114.485 78.3276C114.347 78.713 114.17 79.0919 113.965 79.4483C113.759 79.8048 113.518 80.1451 113.255 80.4598C112.992 80.7745 112.696 81.07 112.382 81.3333C112.067 81.5966 111.726 81.8374 111.37 82.043C111.014 82.2485 110.635 82.4251 110.249 82.5632C109.864 82.7045 109.463 82.8137 109.058 82.8843C108.653 82.9549 108.236 82.9903 107.828 82.9903C107.417 82.9903 107 82.9549 106.595 82.8843C106.194 82.8137 105.789 82.7045 105.404 82.5632C105.018 82.4251 104.639 82.2485 104.283 82.043C103.93 81.8374 103.586 81.5966 103.271 81.3333C102.957 81.07 102.661 80.7745 102.398 80.4598C102.135 80.1451 101.894 79.8048 101.691 79.4483C101.486 79.0919 101.309 78.713 101.168 78.3276C101.027 77.9423 100.921 77.5409 100.85 77.1363C100.776 76.7316 100.741 76.3142 100.741 75.9064C100.741 75.4953 100.776 75.0779 100.85 74.6733C100.921 74.2719 101.027 73.8673 101.168 73.4819C101.309 73.0966 101.486 72.7176 101.691 72.3612C101.894 72.008 102.135 71.6644 102.398 71.3497C102.661 71.035 102.957 70.7395 103.271 70.4762C103.586 70.2129 103.93 69.9721 104.283 69.7698C104.639 69.5642 105.018 69.3876 105.404 69.2463C105.789 69.105 106.194 68.9991 106.595 68.9284C107 68.8546 107.417 68.8193 107.828 68.8193C108.236 68.8193 108.653 68.8546 109.058 68.9284C109.463 68.9991 109.864 69.105 110.249 69.2463C110.635 69.3876 111.014 69.5642 111.37 69.7698C111.726 69.9721 112.067 70.2129 112.382 70.4762C112.696 70.7395 112.992 71.035 113.255 71.3497C113.518 71.6644 113.759 72.008 113.965 72.3612C114.17 72.7176 114.347 73.0966 114.485 73.4819C114.626 73.8673 114.735 74.2719 114.806 74.6733C114.877 75.0779 114.896 75.7008 114.912 75.9064C114.931 76.1119 114.931 75.7008 114.912 75.9064Z" fill="#7286FF"/>
<path d="M152.901 75.7095C152.901 76.1174 152.865 76.5348 152.795 76.9394C152.724 77.344 152.615 77.7454 152.474 78.1308C152.336 78.5161 152.159 78.895 151.953 79.2515C151.748 79.6079 151.507 79.9483 151.244 80.263C150.98 80.5777 150.685 80.8731 150.37 81.1365C150.056 81.3998 149.715 81.6406 149.359 81.8461C149.002 82.0516 148.623 82.2283 148.238 82.3663C147.853 82.5076 147.451 82.6168 147.047 82.6875C146.642 82.7581 146.225 82.7934 145.817 82.7934C145.406 82.7934 144.988 82.7581 144.584 82.6875C144.182 82.6168 143.778 82.5076 143.392 82.3663C143.007 82.2283 142.628 82.0516 142.272 81.8461C141.918 81.6406 141.575 81.3998 141.26 81.1365C140.945 80.8731 140.65 80.5777 140.387 80.263C140.123 79.9483 139.883 79.6079 139.68 79.2515C139.475 78.895 139.298 78.5161 139.157 78.1308C139.016 77.7454 138.91 77.344 138.839 76.9394C138.765 76.5348 138.73 76.1174 138.73 75.7095C138.73 75.2985 138.765 74.881 138.839 74.4764C138.91 74.075 139.016 73.6704 139.157 73.2851C139.298 72.8997 139.475 72.5208 139.68 72.1644C139.883 71.8111 140.123 71.4675 140.387 71.1528C140.65 70.8381 140.945 70.5427 141.26 70.2794C141.575 70.0161 141.918 69.7752 142.272 69.5729C142.628 69.3674 143.007 69.1908 143.392 69.0495C143.778 68.9082 144.182 68.8022 144.584 68.7316C144.988 68.6577 145.406 68.6224 145.817 68.6224C146.225 68.6224 146.642 68.6577 147.047 68.7316C147.451 68.8022 147.853 68.9082 148.238 69.0495C148.623 69.1908 149.002 69.3674 149.359 69.5729C149.715 69.7752 150.056 70.0161 150.37 70.2794C150.685 70.5427 150.98 70.8381 151.244 71.1528C151.507 71.4675 151.748 71.8111 151.953 72.1644C152.159 72.5208 152.336 72.8997 152.474 73.2851C152.615 73.6704 152.724 74.075 152.795 74.4764C152.865 74.881 152.885 75.504 152.901 75.7095C152.92 75.915 152.92 75.504 152.901 75.7095Z" fill="#7286FF"/>
<path d="M152.901 75.7095C152.901 76.1174 152.865 76.5348 152.795 76.9394C152.724 77.344 152.615 77.7454 152.474 78.1308C152.336 78.5161 152.159 78.895 151.953 79.2515C151.748 79.6079 151.507 79.9483 151.244 80.263C150.98 80.5777 150.685 80.8731 150.37 81.1365C150.056 81.3998 149.715 81.6406 149.359 81.8461C149.002 82.0516 148.623 82.2283 148.238 82.3663C147.853 82.5076 147.451 82.6168 147.047 82.6875C146.642 82.7581 146.225 82.7934 145.817 82.7934C145.406 82.7934 144.988 82.7581 144.584 82.6875C144.182 82.6168 143.778 82.5076 143.392 82.3663C143.007 82.2283 142.628 82.0516 142.272 81.8461C141.918 81.6406 141.575 81.3998 141.26 81.1365C140.945 80.8731 140.65 80.5777 140.387 80.263C140.123 79.9483 139.883 79.6079 139.68 79.2515C139.475 78.895 139.298 78.5161 139.157 78.1308C139.016 77.7454 138.91 77.344 138.839 76.9394C138.765 76.5348 138.73 76.1174 138.73 75.7095C138.73 75.2985 138.765 74.881 138.839 74.4764C138.91 74.075 139.016 73.6704 139.157 73.2851C139.298 72.8997 139.475 72.5208 139.68 72.1644C139.883 71.8111 140.123 71.4675 140.387 71.1528C140.65 70.8381 140.945 70.5427 141.26 70.2794C141.575 70.0161 141.918 69.7752 142.272 69.5729C142.628 69.3674 143.007 69.1908 143.392 69.0495C143.778 68.9082 144.182 68.8022 144.584 68.7316C144.988 68.6577 145.406 68.6224 145.817 68.6224C146.225 68.6224 146.642 68.6577 147.047 68.7316C147.451 68.8022 147.853 68.9082 148.238 69.0495C148.623 69.1908 149.002 69.3674 149.359 69.5729C149.715 69.7752 150.056 70.0161 150.37 70.2794C150.685 70.5427 150.98 70.8381 151.244 71.1528C151.507 71.4675 151.748 71.8111 151.953 72.1644C152.159 72.5208 152.336 72.8997 152.474 73.2851C152.615 73.6704 152.724 74.075 152.795 74.4764C152.865 74.881 152.885 75.504 152.901 75.7095C152.92 75.915 152.92 75.504 152.901 75.7095Z" fill="#7286FF"/>
<path fill-rule="evenodd" clip-rule="evenodd" d="M125.801 34.9081C123.634 34.8792 118.656 33.0038 112.793 34.7282C106.932 36.4559 96.2263 43.0613 90.6324 45.261C85.0352 47.4606 82.4053 48.1382 79.2133 47.9198C76.0214 47.7047 70.8642 42.7402 71.4808 43.9604C72.1005 45.1839 76.4389 53.3757 82.9223 55.2574C89.4057 57.1392 104.643 54.901 110.384 55.2574C116.126 55.6139 115.404 56.4456 117.369 57.3993C119.337 58.3498 120.702 59.2425 122.189 60.9669C123.672 62.6946 125.679 72.0937 126.283 67.7522C126.887 63.4074 125.882 40.3832 125.801 34.9081Z" fill="#7286FF"/>
<path fill-rule="evenodd" clip-rule="evenodd" d="M125.801 34.9081C123.634 34.8792 118.656 33.0038 112.793 34.7282C106.932 36.4559 96.2263 43.0613 90.6324 45.261C85.0352 47.4606 82.4053 48.1382 79.2133 47.9198C76.0214 47.7047 70.8642 42.7402 71.4808 43.9604C72.1005 45.1839 76.4389 53.3757 82.9223 55.2574C89.4057 57.1392 104.643 54.901 110.384 55.2574C116.126 55.6139 115.404 56.4456 117.369 57.3993C119.337 58.3498 120.702 59.2425 122.189 60.9669C123.672 62.6946 125.679 72.0937 126.283 67.7522C126.887 63.4074 125.882 40.3832 125.801 34.9081ZM125.801 34.9081C123.634 34.8792 118.656 33.0038 112.793 34.7282C106.932 36.4559 96.2263 43.0613 90.6324 45.261C85.0352 47.4606 82.4053 48.1382 79.2133 47.9198C76.0214 47.7047 70.8642 42.7402 71.4808 43.9604C72.1005 45.1839 76.4389 53.3757 82.9223 55.2574C89.4057 57.1392 104.643 54.901 110.384 55.2574C116.126 55.6139 115.404 56.4456 117.369 57.3993C119.337 58.3498 120.702 59.2425 122.189 60.9669C123.672 62.6946 125.679 72.0937 126.283 67.7522C126.887 63.4074 125.882 40.3832 125.801 34.9081Z" fill="#7286FF"/>
<path fill-rule="evenodd" clip-rule="evenodd" d="M125.732 34.9652C127.9 34.9363 132.877 33.0609 138.741 34.7854C144.601 36.513 155.307 43.1184 160.901 45.3181C166.498 47.5178 169.128 48.1953 172.32 47.977C175.512 47.7618 180.669 42.7973 180.053 44.0175C179.433 45.241 175.095 53.4328 168.611 55.3145C162.128 57.1963 146.891 54.9581 141.149 55.3145C135.407 55.671 136.13 56.5027 134.165 57.4564C132.196 58.4069 130.832 59.2996 129.345 61.0241C127.861 62.7517 125.854 72.1509 125.25 67.8093C124.647 63.4646 125.652 40.4403 125.732 34.9652Z" fill="#7286FF"/>
<path fill-rule="evenodd" clip-rule="evenodd" d="M125.732 34.9652C127.9 34.9363 132.877 33.0609 138.741 34.7854C144.601 36.513 155.307 43.1184 160.901 45.3181C166.498 47.5178 169.128 48.1953 172.32 47.977C175.512 47.7618 180.669 42.7973 180.053 44.0175C179.433 45.241 175.095 53.4328 168.611 55.3145C162.128 57.1963 146.891 54.9581 141.149 55.3145C135.407 55.671 136.13 56.5027 134.165 57.4564C132.196 58.4069 130.832 59.2996 129.345 61.0241C127.861 62.7517 125.854 72.1509 125.25 67.8093C124.647 63.4646 125.652 40.4403 125.732 34.9652ZM125.732 34.9652C127.9 34.9363 132.877 33.0609 138.741 34.7854C144.601 36.513 155.307 43.1184 160.901 45.3181C166.498 47.5178 169.128 48.1953 172.32 47.977C175.512 47.7618 180.669 42.7973 180.053 44.0175C179.433 45.241 175.095 53.4328 168.611 55.3145C162.128 57.1963 146.891 54.9581 141.149 55.3145C135.407 55.671 136.13 56.5027 134.165 57.4564C132.196 58.4069 130.832 59.2996 129.345 61.0241C127.861 62.7517 125.854 72.1509 125.25 67.8093C124.647 63.4646 125.652 40.4403 125.732 34.9652Z" fill="#7286FF"/>
<path fill-rule="evenodd" clip-rule="evenodd" d="M126.113 35.1736C123.721 35.1415 118.233 33.0735 111.769 34.9777C105.305 36.8787 93.5003 44.1649 87.3284 46.5894C81.1597 49.0138 78.26 49.762 74.7405 49.5244C71.221 49.2836 65.5308 43.8085 66.2147 45.1572C66.8955 46.5059 71.6802 55.5358 78.8283 57.6134C85.9797 59.6879 102.781 57.2184 109.113 57.6134C115.442 58.0052 114.646 58.9236 116.817 59.9737C118.984 61.0237 120.49 62.0096 122.128 63.9106C123.766 65.8148 125.982 76.1806 126.643 71.3895C127.308 66.6016 126.203 41.2106 126.113 35.1736Z" fill="#E5EDFE"/>
<path fill-rule="evenodd" clip-rule="evenodd" d="M126.113 35.1736C123.721 35.1415 118.233 33.0735 111.769 34.9777C105.305 36.8787 93.5003 44.1649 87.3284 46.5894C81.1597 49.0138 78.26 49.762 74.7405 49.5244C71.221 49.2836 65.5308 43.8085 66.2147 45.1572C66.8955 46.5059 71.6802 55.5358 78.8283 57.6134C85.9797 59.6879 102.781 57.2184 109.113 57.6134C115.442 58.0052 114.646 58.9236 116.817 59.9737C118.984 61.0237 120.49 62.0096 122.128 63.9106C123.766 65.8148 125.982 76.1806 126.643 71.3895C127.308 66.6016 126.203 41.2106 126.113 35.1736ZM126.113 35.1736C123.721 35.1415 118.233 33.0735 111.769 34.9777C105.305 36.8787 93.5003 44.1649 87.3284 46.5894C81.1597 49.0138 78.26 49.762 74.7405 49.5244C71.221 49.2836 65.5308 43.8085 66.2147 45.1572C66.8955 46.5059 71.6802 55.5358 78.8283 57.6134C85.9797 59.6879 102.781 57.2184 109.113 57.6134C115.442 58.0052 114.646 58.9236 116.817 59.9737C118.984 61.0237 120.49 62.0096 122.128 63.9106C123.766 65.8148 125.982 76.1806 126.643 71.3895C127.308 66.6016 126.203 41.2106 126.113 35.1736Z" fill="#E5EDFE"/>
<path fill-rule="evenodd" clip-rule="evenodd" d="M126.037 35.2364C128.429 35.2043 133.917 33.1363 140.381 35.0406C146.845 36.9416 158.65 44.2278 164.822 46.6522C170.99 49.0767 173.89 49.8249 177.41 49.5873C180.929 49.3464 186.619 43.8713 185.935 45.2201C185.255 46.5688 180.47 55.5986 173.322 57.6763C166.17 59.7507 149.369 57.2813 143.037 57.6763C136.708 58.0681 137.504 58.9865 135.333 60.0365C133.166 61.0866 131.66 62.0724 130.022 63.9734C128.384 65.8777 126.169 76.2434 125.507 71.4523C124.842 66.6644 125.947 41.2735 126.037 35.2364Z" fill="#E5EDFE"/>
<path fill-rule="evenodd" clip-rule="evenodd" d="M126.037 35.2364C128.429 35.2043 133.917 33.1363 140.381 35.0406C146.845 36.9416 158.65 44.2278 164.822 46.6522C170.99 49.0767 173.89 49.8249 177.41 49.5873C180.929 49.3464 186.619 43.8713 185.935 45.2201C185.255 46.5688 180.47 55.5986 173.322 57.6763C166.17 59.7507 149.369 57.2813 143.037 57.6763C136.708 58.0681 137.504 58.9865 135.333 60.0365C133.166 61.0866 131.66 62.0724 130.022 63.9734C128.384 65.8777 126.169 76.2434 125.507 71.4523C124.842 66.6644 125.947 41.2735 126.037 35.2364ZM126.037 35.2364C128.429 35.2043 133.917 33.1363 140.381 35.0406C146.845 36.9416 158.65 44.2278 164.822 46.6522C170.99 49.0767 173.89 49.8249 177.41 49.5873C180.929 49.3464 186.619 43.8713 185.935 45.2201C185.255 46.5688 180.47 55.5986 173.322 57.6763C166.17 59.7507 149.369 57.2813 143.037 57.6763C136.708 58.0681 137.504 58.9865 135.333 60.0365C133.166 61.0866 131.66 62.0724 130.022 63.9734C128.384 65.8777 126.169 76.2434 125.507 71.4523C124.842 66.6644 125.947 41.2735 126.037 35.2364Z" fill="#E5EDFE"/>
<defs>
<linearGradient id="paint0_linear_19_738" x1="7.02197" y1="-0.645758" x2="253.147" y2="251.559" gradientUnits="userSpaceOnUse">
<stop stop-color="#0A0F20"/>
<stop offset="0.640684" stop-color="#17162D"/>
<stop offset="1" stop-color="#38264C"/>
</linearGradient>
<linearGradient id="paint1_linear_19_738" x1="7.02197" y1="-0.645758" x2="253.147" y2="251.559" gradientUnits="userSpaceOnUse">
<stop stop-color="#0A0F20"/>
<stop offset="0.640684" stop-color="#17162D"/>
<stop offset="1" stop-color="#38264C"/>
</linearGradient>
</defs>
</svg>
